<svg xmlns="http://www.w3.org/2000/svg" viewBox="0 0 116 55.69"><defs><style>.cls-1,.cls-3{fill:#fff;}.cls-1{fill-rule:evenodd;}.cls-2{fill:#ff4d00;}</style></defs><g id="图层_2" data-name="图层 2"><g id="图层_1-2" data-name="图层 1"><path class="cls-1" d="M76.6,52h3.76v-.92H76.6V48.62h4.05V47.7H76.6V45.06h-1V47.7H73.36A15.43,15.43,0,0,0,74,46.18l-1-.27a13.12,13.12,0,0,1-2.36,4.33l.62.84a14.84,14.84,0,0,0,1.68-2.46h2.69v2.49H71.84V52h3.75v2.74H70.67v.92H81.22v-.92H76.6Z"/><path class="cls-1" d="M91.36,50.26l-1.06.37V48.48h1.06v-.81H90.3V45.13h-.89v2.54h-.7a11.39,11.39,0,0,0,.13-1.31L88,46.22a12.19,12.19,0,0,1-.79,3.64l.78.54a13.71,13.71,0,0,0,.57-1.92h.85v2.46l-2,.71.16,1L89.41,52v3.66h.89v-4l1.21-.46Z"/><path class="cls-1" d="M97.26,46.91h-4q.32-.78.57-1.59L93,45.06A18.58,18.58,0,0,1,91,49.42l.75.47a20.46,20.46,0,0,0,1.13-2.12h.68A7.4,7.4,0,0,1,91,53l.61.7a8.42,8.42,0,0,0,2.84-5.9h.86c-.17,3.47-1.27,5.54-3.58,7.18l.59.74c2.44-1.9,3.69-4,3.88-7.92h.55a.15.15,0,0,1,.15.15c-.06,1.93-.15,3.75-.28,5.64a1.06,1.06,0,0,1-1,1H94.42v.93h1.44a1.76,1.76,0,0,0,1.69-1.68c.15-2,.22-4.2.28-6.3A.57.57,0,0,0,97.26,46.91Z"/><path class="cls-1" d="M63.1,54a.82.82,0,0,1-.82.82h-6a.82.82,0,0,1-.81-.82V50.51h6.86V51h1V46.13a.68.68,0,0,0-.69-.68H55.14a.68.68,0,0,0-.68.68V54a1.74,1.74,0,0,0,1.73,1.74h6.18A1.74,1.74,0,0,0,64.11,54V52.63h-1Zm-.94-7.59a.18.18,0,0,1,.17.18v3.05H59.4V46.36Zm-6.69.18a.17.17,0,0,1,.17-.18h2.75v3.23H55.47Z"/><path class="cls-1" d="M42.31,54.44a.33.33,0,0,1-.33.33H40.34v.92h1.89a1.08,1.08,0,0,0,1.08-1.09V48.54h-1Z"/><path class="cls-1" d="M39.81,49.77a10.57,10.57,0,0,1-2.23,3.79l.81.59a13.13,13.13,0,0,0,2.32-4Z"/><path class="cls-1" d="M44.59,50.44a21.83,21.83,0,0,1,2.16,3.82l1-.41A21.79,21.79,0,0,0,45.34,50Z"/><path class="cls-1" d="M47.25,46.49H40.09c.25-.63.38-1.06.38-1.06l-.9-.37a12.42,12.42,0,0,1-2.24,4.22l.8.58a10.17,10.17,0,0,0,1.56-2.46h7a.08.08,0,0,1,.07.1,7.56,7.56,0,0,1-.92,1.62l.9.37a14,14,0,0,0,1.14-2A.71.71,0,0,0,47.25,46.49Z"/><path class="cls-1" d="M30.84,54.73A10.68,10.68,0,0,1,27,54.16c1-.51,3.12-2.14,2-2.35h-4.6a8,8,0,0,0,.56-.6h3.77v.26h1v-.26h0v-.68h0V50h0v-.68h0v-.59h0V48h0v-.44a.82.82,0,0,0-.82-.82H25.91l.15-.63h4.78v-.91H20.21v.91H25l-.14.63H21.48v4.72h1v-.26h1.36a8.84,8.84,0,0,1-3.56,1.95l.59.72a10.79,10.79,0,0,0,2.22-1.05,9.54,9.54,0,0,0,1.6,1.29,16.9,16.9,0,0,1-4.48.71l.3.84a17.7,17.7,0,0,0,5.27-1,10.88,10.88,0,0,0,4.82,1Zm-8.36-7.31H28.6a.18.18,0,0,1,.18.18V48h-6.3Zm0,1.26h6.3v.59h-6.3Zm0,1.85V50h6.3v.58Zm1.29,1.95h4a9.39,9.39,0,0,1-2,1.19A10.54,10.54,0,0,1,23.77,52.48Z"/><path class="cls-2" d="M88.44,7.37h0a2.05,2.05,0,0,0-2,2.05h0a2,2,0,0,0,2,2.05h0a2,2,0,0,0,2-2.05h0A2.05,2.05,0,0,0,88.44,7.37Z"/><path class="cls-3" d="M39.06,32.66,20.21,0,0,35H2.65a1.71,1.71,0,0,0,1.48-.85l9.53-16.5,1.61,2.78,4.94-8.56L33.07,34.15a1.7,1.7,0,0,0,1.48.85H116V33.51H40.54A1.71,1.71,0,0,1,39.06,32.66Z"/><path class="cls-3" d="M112.42,14V9.77h-2.93V14h-2.87v2.93h2.87V26a4.61,4.61,0,0,0,1.64,3.81,5,5,0,0,0,3.1.94,9.69,9.69,0,0,0,1.77-.2v-3c-1.44.35-2.56.33-3.07-.07a1.9,1.9,0,0,1-.51-1.49V16.88H116V14Z"/><path class="cls-3" d="M49.05,26a4.58,4.58,0,0,0,1.65,3.81,4.93,4.93,0,0,0,3.1.94,9.69,9.69,0,0,0,1.77-.2v-3c-1.44.35-2.56.33-3.07-.07A1.9,1.9,0,0,1,52,26V16.88h3.58V14H52V9.77H49.05V14H46.19v2.93h2.86Z"/><path class="cls-3" d="M62,22.76a5.47,5.47,0,0,1,5.09-5.82V14A5.24,5.24,0,0,0,62,17V14H59.1V30.5H62Z"/><rect class="cls-3" x="86.97" y="13.95" width="2.94" height="16.55"/><rect class="cls-3" x="40.33" y="9.74" width="2.94" height="20.76"/><path class="cls-3" d="M100.43,27.78a5.13,5.13,0,0,1-5.71-2.44L92.38,27a7.82,7.82,0,0,0,6.68,3.76,7.23,7.23,0,0,0,2.3-.29,4.67,4.67,0,0,0,3.45-4.93c-.31-3.06-3.11-3.82-5.36-4.48-1.52-.45-2.9-.95-3.34-1.84a1.76,1.76,0,0,1,0-1.55,2.61,2.61,0,0,1,2.43-1.24,4.28,4.28,0,0,1,3.37,1.92l2.27-1.79a6.58,6.58,0,0,0-5.64-3.07,5.45,5.45,0,0,0-5,2.51,4.46,4.46,0,0,0-.21,4.43c1,2.05,3.35,2.73,5.32,3.31,2.14.63,3.13,1,3.23,2A2,2,0,0,1,100.43,27.78Z"/><path class="cls-3" d="M76.76,30.79a6.68,6.68,0,0,0,6.67-6.68V14H80.51V24.11a3.75,3.75,0,0,1-7.5,0V14H70.09V24.11A6.68,6.68,0,0,0,76.76,30.79Z"/></g></g></svg>