<svg xmlns="http://www.w3.org/2000/svg" xmlns:xlink="http://www.w3.org/1999/xlink" viewBox="0 0 370 350"><defs><style>.cls-1,.cls-11,.cls-12,.cls-14,.cls-16,.cls-20,.cls-22,.cls-30,.cls-31,.cls-32,.cls-33,.cls-35,.cls-8{fill:none;}.cls-2{isolation:isolate;}.cls-3,.cls-4{fill:#27aae1;}.cls-3{opacity:0.2;}.cls-5{clip-path:url(#clip-path);}.cls-6{fill:#fff;}.cls-7{fill:#fff9ed;}.cls-11,.cls-12,.cls-8{stroke:#262423;}.cls-11,.cls-12,.cls-16,.cls-20,.cls-22,.cls-30,.cls-31,.cls-32,.cls-33,.cls-35,.cls-8{stroke-miterlimit:10;}.cls-8{stroke-width:1.04px;}.cls-9{fill:#f47d3e;}.cls-10{fill:#262423;}.cls-11{stroke-width:0.52px;}.cls-12{stroke-width:0.53px;}.cls-13{fill:#e73e31;}.cls-14,.cls-30,.cls-31,.cls-32,.cls-33{stroke:#fff;}.cls-14{stroke-linecap:round;stroke-linejoin:round;stroke-width:2.01px;}.cls-15{fill:#e83d32;}.cls-16,.cls-35{stroke:#e83d32;}.cls-16{stroke-width:6.52px;}.cls-17{fill:url(#linear-gradient);}.cls-18{fill:#f6c996;}.cls-19{clip-path:url(#clip-path-2);}.cls-20,.cls-22{stroke:#c39f69;}.cls-20{stroke-width:1.01px;}.cls-21{clip-path:url(#clip-path-3);}.cls-22{stroke-width:0.64px;}.cls-23{fill:#c39f69;}.cls-24{fill:#fedc00;}.cls-25{fill:#eb2627;}.cls-26{fill:#dc9d95;}.cls-27{fill:#cc756e;}.cls-28,.cls-34{fill:#231f20;}.cls-29{fill:#414142;}.cls-30,.cls-31,.cls-32,.cls-33{stroke-width:0.51px;}.cls-31{stroke-dasharray:2.97 2.97;}.cls-32{stroke-dasharray:3.08 3.08;}.cls-33{stroke-dasharray:3.16 3.16;}.cls-34{opacity:0.1;mix-blend-mode:multiply;}.cls-35{stroke-width:0.44px;stroke-dasharray:1.76;}</style><clipPath id="clip-path"><circle class="cls-1" cx="185" cy="175" r="133.88"/></clipPath><linearGradient id="linear-gradient" x1="72.63" y1="-104.07" x2="240.21" y2="-164.03" gradientTransform="matrix(0.96, 0.27, -0.27, 0.96, -24.85, 216.12)" gradientUnits="userSpaceOnUse"><stop offset="0" stop-color="#fff"/><stop offset="1" stop-color="#fff" stop-opacity="0"/></linearGradient><clipPath id="clip-path-2"><path class="cls-1" d="M15.88,90.46s-6.65-6,4-17.68,15.51-11.19,19.64-8.4c0,0,132.15,150,150.65,159a30.32,30.32,0,0,0,3.32,2.46c1.54,1,3.33,2.24,5.24,2.27,1.24,0,2.33-.74,3.6-.71a5.54,5.54,0,0,1,3.71,1.32c1.53,1.49,1.09,4.22.24,5.94,0,0-8.46,17.1-17.71,14.32,0,0-4.82-2.19-2-8,0,0,1.09-4.12-6.26-9.51C180.31,231.41,95.51,149.61,15.88,90.46Z"/></clipPath><clipPath id="clip-path-3"><polygon class="cls-1" points="6.49 18.88 -24.81 47.07 174.49 258.31 221.72 241.71 6.49 18.88"/></clipPath></defs><title>smaArtboard 1 copy 6</title><g class="cls-2"><g id="Layer_1" data-name="Layer 1"><circle class="cls-3" cx="185" cy="175" r="166.46"/><circle class="cls-4" cx="185" cy="175" r="133.88"/><g class="cls-5"><path class="cls-6" d="M190.67,254.25a12.2,12.2,0,0,1-3.5-.51,5,5,0,0,1-.63-.24,10.42,10.42,0,0,1-5.23-5.73,11,11,0,0,1,.23-7.77c-.25-.68-1.12-2.31-4.18-4.56a5,5,0,0,1-.51-.43C176,234.19,91.35,152.75,12.9,94.47q-.19-.14-.37-.3a12.36,12.36,0,0,1-3.67-8.49C8.61,80.5,11.09,75,16.24,69.4c7.4-8.08,13.12-11.69,18.56-11.69a13.29,13.29,0,0,1,7.57,2.51,5,5,0,0,1,1,.84c52.85,60,136.17,151.52,149.07,157.77a5,5,0,0,1,1.09.72l.48.42c1,.85,3.55,3.09,4.57,3.11.2,0,.44-.11.67-.18a11.49,11.49,0,0,1,3.27-.53c.28,0,.57,0,.87,0a10.32,10.32,0,0,1,6.16,2.61c3.36,3.19,3.08,8.24,1.31,11.82C209.36,239.75,201.63,254.25,190.67,254.25Z"/><path class="cls-6" d="M117.93,199.58a24.37,24.37,0,0,0,14.72,3c0,.07,0,.14,0,.21.1,1.7.92,4.82,5.33,6.71a10,10,0,0,0,4,.81,15,15,0,0,0,7-2c.44,2.41,2.11,5.44,7.1,9.79a16.13,16.13,0,0,0-6.51,2.1,8,8,0,0,0-3.86,7.45,8.5,8.5,0,0,0,3.71,6.62c1.29.89,4.42,3.06,14.07,1.76,0,.08,0,.16,0,.25.1,1.7.92,4.82,5.33,6.71a10,10,0,0,0,4,.81c3.74,0,7.26-2,9.9-3.83a176.89,176.89,0,0,0,16.8,8q4.16,1.72,8.28,3.18l-19.38,58.17a5,5,0,0,0-.11.49h44.34l20.81-57.09a14.73,14.73,0,0,0,3.35,6.31,16.29,16.29,0,0,0,12.28,5h0A23.94,23.94,0,0,0,288,254.21a5,5,0,0,0,6.06,2.69c9.51-3.05,17.26-10.84,22.87-18.41a4.91,4.91,0,0,0,4.08-.7c6.13-4.21,9.65-10.32,11.56-16.84a47.56,47.56,0,0,0,1.42-6.61,5,5,0,0,0,4.81-4c1.7-8.41-.36-17.86-2.74-25,3.11-4.2,8.61-12.82,15.76-24.73C368.5,132.8,351.31,112,315.55,86a10.43,10.43,0,0,0-1.07-3,16.62,16.62,0,0,0-5.37-5.71,15.71,15.71,0,0,0-8.52-2.88,9.6,9.6,0,0,0-2.32.28q-2.39-1.34-4.93-2.59l-1.12-.55-1.07-.5-1.85-.84-.59-.26q-1.39-.6-2.76-1.14h0q-1.48-.58-2.93-1.09l-.1,0q-3.05-1.06-6-1.82l-.16,0q-1.48-.37-2.94-.67l-.44-.09c-1-.19-2-.37-3-.52a37.67,37.67,0,0,0-5.48-.41h0a27.88,27.88,0,0,0-14,3.45C244.86,71,241,76.76,238.14,81a141.49,141.49,0,0,1-9.75,12.69l-.08.07L228,94l-.25.22c-.5.45-1.07,1-1.64,1.52-6.85-.88-23.65-2.87-34.67-2.87-7.61,0-12.36.78-14.09,4.74a6.3,6.3,0,0,0,1.44,6.91c1.71,1.85,7.64,7.53,16.3,15.11l-.1.2-.11.24c-.06.14-.12.28-.17.43s-.06.17-.08.25-.08.31-.11.47,0,.15,0,.23a5,5,0,0,0,0,.71s0,.08,0,.12a5,5,0,0,0,0,.54l0,.11s0,0,0,0c-1.09.42-2.11.88-3.1,1.35a20.09,20.09,0,0,0-4.47,2.45,39.32,39.32,0,0,0-11.05,10.06,5,5,0,0,0,.5,6.22l0,0c-7.61,11-4.12,21.47-.37,26.19a5.09,5.09,0,0,0,.45.5,70.2,70.2,0,0,0,1.83,14.67l-.07-.07c-6-6.16-15.29-1.21-21.75,3.2-.83-1.23-1.79-2.52-2.9-3.92l-.12-.15a94,94,0,0,0-12.55-11.24c-5.46-4.07-13.36-9-19.09-5.48a7.42,7.42,0,0,0-3.8,6.39c0,2.74,1.19,6.25,7.91,11.93l-.67.16c-2.51.6-6,1.43-8.58,4.26a6.36,6.36,0,0,0-1,7.81A6.52,6.52,0,0,0,117.93,199.58ZM209.3,229q2.25,1.93,4.64,3.61L212.81,236c-3-1.08-5.84-2.2-8.44-3.29A17.58,17.58,0,0,0,209.3,229Zm-22-7.93c-.48-.71-1-1.46-1.6-2.23q1.54.61,3.14,1.21Zm-8.05-26.62a8.39,8.39,0,0,0,1.1-2.55c.66,1.94,1.15,3.13,1.23,3.31a5,5,0,0,0,4.33,3,55.48,55.48,0,0,0,4.45,10.18,5,5,0,0,0,4.31,2.46,5.06,5.06,0,0,0,.7,0c.15.34.3.66.46,1a159.66,159.66,0,0,1-25.11-11.28C174.46,199,177.7,196.94,179.27,194.47Z"/><polygon class="cls-7" points="227.33 309.72 256.31 230.25 223.58 219.51 193.53 309.72 227.33 309.72"/><line class="cls-8" x1="223.05" y1="239.49" x2="203.29" y2="299.73"/><line class="cls-8" x1="228.81" y1="241.38" x2="209.05" y2="301.62"/><path class="cls-9" d="M229.87,246.46a10.78,10.78,0,0,1-6.92-7l-2.76-9.57L239,215l7.16,25.84-7.2,4.52A10.73,10.73,0,0,1,229.87,246.46Z"/><path class="cls-10" d="M242.52,239.42l-5.24,3.29a7.65,7.65,0,0,1-11.36-4.2l-1.57-5,13-12.59Z"/><circle class="cls-11" cx="220.45" cy="257.02" r="1.38" transform="translate(-92.47 386.4) rotate(-71.84)"/><circle class="cls-12" cx="218.93" cy="261.48" r="1.42" transform="translate(-102.96 374.12) rotate(-69.35)"/><circle class="cls-12" cx="216.08" cy="271.03" r="1.42" transform="translate(-113.74 377.64) rotate(-69.35)"/><circle class="cls-12" cx="217.51" cy="266.29" r="1.42" transform="translate(-108.38 375.9) rotate(-69.35)"/><path class="cls-6" d="M327.15,155.7c-1.66-1.7-3.37-3.34-5.1-5-3.19-3-6.48-5.86-9.66-8.87-1.57-1.48-3.07-3-4.64-4.51-.81-.77-2.74-2.1-3.38-3.08l-.53-.45c-.48-.4-1-.79-1.47-1.18l-13.94.78L278,115.64q-3.34-2-6.74-3.95Q267,109.3,262.7,107q-2.14-1.12-4.3-2.21l-2.55-1.26-2.92-1.37q-2.14-1-4.3-1.95c-2.17-1-4.35-1.9-6.53-2.83l-4.49,12.67-29.13,23.12-6.79,32.63,15.19,42.65,32.69,19.8,44.61-1.62L321,182.88l8.29-14,1.7-1.44A40.28,40.28,0,0,1,327.15,155.7Z"/><path class="cls-13" d="M326.94,176.2c2.39-1.57,4.6-3.09,6.67-4.57a34.16,34.16,0,0,1-4.81-9.38,21.41,21.41,0,0,1-2.09.64,76.31,76.31,0,0,0-2.19-9.8q-1.23-1.19-2.47-2.36c-3.19-3-6.48-5.86-9.66-8.87-1.57-1.48-3.07-3-4.64-4.51-.81-.77-2.74-2.1-3.38-3.08l-.53-.45a222.8,222.8,0,0,0-32.61-22.14Q267,109.3,262.7,107q-2.14-1.12-4.3-2.21l-2.55-1.26-2.92-1.37-.15-.07c-3.87.66-7.47,1.4-9.29,1.79a19,19,0,0,1-2,2.12,18,18,0,0,1-7.75,5,18.08,18.08,0,0,1-8.83,2.08l-4.85,6.49a35.47,35.47,0,0,0-20.7,2.58c2.33-.3,8.19,2.91,8.19,2.91-18.85,1.66-27.61,14.6-27.61,14.6a9.67,9.67,0,0,1,7.53-1c-18.08,14.36-7.61,27.56-7.61,27.56-.11-1.28,2.44-6.51,2.44-6.51-3.41,16.49,3.85,33.56,3.85,33.56,0-2.14,3-11.77,3-11.77-2.25,11.21,5.53,24.4,5.53,24.4-.71-2,1.67-11.72,1.67-11.72.85,9.89,4.16,16.59,6.76,20.44a22.56,22.56,0,0,0,3.29,4c.48.45.95.89,1.42,1.32h0l-.13,0a40.64,40.64,0,0,1,7.05,6.16c-8-8.82-5.35-4.62.64-1.45,4.4,2.33,7,4.63,11.42,5.41,9.26,1.62,18.36,3.49,27.52,5.63,10,2.34,16.59,2.17,26.27,2.8l5.74,1.26c4.12-1.11,8.22-2,12.47-2.76.69-.12,1.38-.17,2.07-.23a104.09,104.09,0,0,0,8.54-8.8c-.1,2.53-2.18,5.8-4.44,8.66a29.52,29.52,0,0,1,4.94.68l.16-.11a11,11,0,0,1,2.07-1l-.67.05c6.92-7.39,10.78-18,10.78-18,1.55,4.8-4.05,15.43-4.05,15.43,17.8-12.22,9.47-45.27,9.47-45.27,3.76,5.23,6.25,20.94,6.25,20.94C336.84,195,326.94,176.2,326.94,176.2Zm-115-12s-1.65-8-.42-13.9,9,2.21,15.84,9.64S211.95,164.23,211.95,164.23Zm63.52,4.35c-7.82,11.91-22.14,16.31-32,9.85S232,157.07,239.8,145.16s27.12-23.88,37-17.42S283.29,156.68,275.47,168.59Z"/><path class="cls-13" d="M268,225.17s37-13.87,37.62-13.68,17.05,7.42,17.05,7.42S311,246.22,292.57,252.13c0,0,9.24-9.43,11.76-14.55,0,0-13.9,17.74-45.54,11.56a6.8,6.8,0,0,0,.22-.93,41.52,41.52,0,0,0,16.07-5.14,109.31,109.31,0,0,1-18.54-.69c-.47,0-.86-.17-1.38-.22a26,26,0,0,1-3.5-.45c-15.9-2.53-36.13-9.2-48-26.34Z"/><path class="cls-14" d="M301.57,187s-36,55.31-87.61,6"/><path class="cls-6" d="M310,190.73s3-20.37-18.4-9.13C291.57,181.61,308.1,175.39,310,190.73Z"/><ellipse class="cls-13" cx="256.56" cy="170.59" rx="6.07" ry="3.11" transform="translate(-25.11 295.44) rotate(-57.53)"/><ellipse class="cls-6" cx="224.6" cy="142.73" rx="6.07" ry="3.11" transform="translate(-21.99 242.78) rotate(-54.52)"/><path class="cls-15" d="M155.18,198.27c4.79,1.49,25.06-4.15,19.44-10.35-4.48-4.62-15.95,4.25-19.64,7l-.38-.53a41.4,41.4,0,0,0-4.95-7.5c-3.06-3.56-19.85-19.18-25.24-15.71-7.49,4.35,17.24,19.15,21.24,21.54A24.65,24.65,0,0,0,127.29,190c-2.45.62-5.16,1.06-7,3-.45.48-.82,1.21-.47,1.77a1.66,1.66,0,0,0,.6.51,19.56,19.56,0,0,0,12.78,2.18A86.22,86.22,0,0,0,146.86,194l.85-.27c-3.29,1.92-15,8.05-7.74,11.14,3.75,1.61,8.62-2.12,11.4-4.31"/><path class="cls-16" d="M156.39,197.48s44.46,33.3,97,25.69"/><path class="cls-17" d="M33.72,62.79s124.56,61.88,253.62,134c0,0-68.83-30.48-168.94-35.39l-78.27-81"/><path class="cls-18" d="M15.88,90.46s-6.65-6,4-17.68,15.51-11.19,19.64-8.4c0,0,132.15,150,150.65,159,2.32,2,5.78,5.26,9.13,4.67,1.25-.22,2.22-.75,3.52-.62a5.42,5.42,0,0,1,3.19,1.26c1.56,1.49,1.13,4.23.27,6,0,0-8.46,17.1-17.71,14.32,0,0-4.82-2.19-2-8,0,0,1.09-4.12-6.26-9.51C180.31,231.41,95.51,149.61,15.88,90.46Z"/><g class="cls-19"><path class="cls-20" d="M88.52,120.08C75.18,124,60.31,109.73,53.38,99.79,44.76,88,49.49,72.25,40.88,60.45c-5-7-11.48-11.25-19.12-14.49"/><g class="cls-21"><path class="cls-20" d="M142.41,219.62c0-12.78-9.17-21.42-17.64-29.32-7.12-6.41-12.75-20.9-23-21.08a16.65,16.65,0,0,0-10.17,4.44c-1.82,1-3.91,6.9-3.76,4.06"/><path class="cls-20" d="M109,145.11c-16,7.68,7.35,29.13,19.23,19.11"/><path class="cls-20" d="M-6.48,25.84c-3.13-1.23,2.31,3.32,3.65,4.8,4.32,5.55,9.47,9,14.54,13.89,8.83,7.56,20.58,20.6,24.23,32.15,4.25,13.71,8.62,25.3,18.68,36.47,9.73,10.8,27.65,14.22,33.73,27,8.05,15.68-.47,29.44-16.27,32.87"/><path class="cls-20" d="M-26.29,58.53c5.7-7.16,30.18-.2,37,4.42C22,71,24,80.68,28.72,92.64a48.7,48.7,0,0,0,9.81,16.13"/><path class="cls-22" d="M239.84,297.7c0-8.06-5.78-13.5-11.12-18.48-4.49-4-8-13.18-14.52-13.29a10.5,10.5,0,0,0-6.41,2.8c-1.15.61-2.46,4.35-2.37,2.56"/><path class="cls-22" d="M218.8,250.73c-10.1,4.84,4.64,18.37,12.12,12"/><path class="cls-22" d="M146,175.54c-2-.77,1.46,2.09,2.3,3,2.73,3.5,6,5.68,9.17,8.76,5.57,4.77,13,13,15.28,20.27,2.68,8.64,5.43,15.95,11.78,23,6.13,6.81,17.43,9,21.26,17,5.08,9.89-.3,18.56-10.26,20.72"/><path class="cls-22" d="M133.48,196.15c3.59-4.51,19-.12,23.35,2.79,7.12,5.07,8.37,11.18,11.33,18.72a30.7,30.7,0,0,0,6.18,10.17"/></g></g><path class="cls-23" d="M31.09,64.49c-1-1-5.5,2.13-10,6.91s-7.28,9.45-6.24,10.42,5.51-2.13,10-6.91S32.12,65.46,31.09,64.49Z"/><path class="cls-15" d="M186,231.72c4.79,1.49,25.06-4.15,19.44-10.35-4.48-4.62-15.95,4.25-19.64,7l-.38-.53a41.4,41.4,0,0,0-4.95-7.5c-3.06-3.56-19.85-19.18-25.24-15.71-7.49,4.35,17.24,19.15,21.24,21.54-6.57-3.74-26.38-5.58-25.79,1.13.42,8.28,22,1.83,27.85-.06-3.29,1.92-15,8.05-7.74,11.14,3.75,1.61,8.62-2.12,11.4-4.31"/><path class="cls-24" d="M60.12,111.74,15,99.08,39.51,125,5.95,142.09s31,3.24,30.74,4.36-19.89,28.1-19.89,28.1l34.07-7.77L46.22,197l21.94-18.91,9.05,30.46,11.09-28.42,26.18,21.64-7-45.82Z"/><polyline class="cls-24" points="60.12 111.74 63.09 70.07 78.17 96.05 102.43 69.34 99.35 107.03 145.39 95.2 113.58 120.06 163.06 132.68 106.85 143.87"/><circle class="cls-6" cx="76.76" cy="136.93" r="33.75" transform="translate(-80.14 141.69) rotate(-62.47)"/><rect class="cls-25" x="65.07" y="163.7" width="0.62" height="4.95" transform="translate(-112.08 186.06) rotate(-74.92)"/><polygon class="cls-25" points="68.68 164.02 64.08 162.19 64.31 161.61 68.91 163.44 68.68 164.02"/><polygon class="cls-25" points="69.98 161.14 65.62 158.78 65.92 158.24 70.28 160.59 69.98 161.14"/><rect class="cls-25" x="69.41" y="154.32" width="0.62" height="4.95" transform="translate(-98.84 124.63) rotate(-55.22)"/><polygon class="cls-25" points="73.6 155.84 69.9 152.54 70.31 152.08 74.01 155.38 73.6 155.84"/><rect class="cls-25" x="73.98" y="149.14" width="0.62" height="4.96" transform="translate(-82.42 88.79) rotate(-42.05)"/><rect class="cls-25" x="76.54" y="147.08" width="0.62" height="4.95" transform="translate(-72.94 73.16) rotate(-35.78)"/><rect class="cls-25" x="79.3" y="145.32" width="0.62" height="4.95" transform="translate(-62.48 58.39) rotate(-29.51)"/><path class="cls-25" d="M83.23,148.74l-2-4.55.57-.24,2,4.55Z"/><rect class="cls-25" x="85.29" y="142.74" width="0.62" height="4.95" transform="translate(-38.89 31.56) rotate(-17.09)"/><rect class="cls-25" x="88.47" y="141.94" width="0.62" height="4.95" transform="translate(-25.56 19.26) rotate(-10.83)"/><rect class="cls-25" x="91.74" y="141.49" width="0.62" height="4.95" transform="translate(-11.15 7.77) rotate(-4.56)"/><path class="cls-25" d="M95.23,146.36c.08-2,.12-3,.2-4.95l.62,0c-.08,2-.12,3-.2,5Z"/><rect class="cls-25" x="96.51" y="143.91" width="4.95" height="0.62" transform="translate(-58.54 220.26) rotate(-81.3)"/><rect class="cls-25" x="99.85" y="144.63" width="4.95" height="0.62" transform="translate(-64.36 205.69) rotate(-74.8)"/><rect class="cls-25" x="103.16" y="145.74" width="4.95" height="0.62" transform="translate(-69.23 189.78) rotate(-68.16)"/><polygon class="cls-25" points="82.83 108.69 82.97 108.08 87.79 109.25 87.64 109.85 82.83 108.69"/><rect class="cls-25" x="83.99" y="109.83" width="0.62" height="4.95" transform="translate(-50.19 152.7) rotate(-69.82)"/><polygon class="cls-25" points="85.02 116.83 80.59 114.61 80.88 114.06 85.3 116.28 85.02 116.83"/><polygon class="cls-25" points="83.18 119.97 79.03 117.27 79.37 116.75 83.52 119.45 83.18 119.97"/><rect class="cls-25" x="78.82" y="118.77" width="0.62" height="4.95" transform="translate(-64.62 103.98) rotate(-50.02)"/><rect class="cls-25" x="76.57" y="121.18" width="0.62" height="4.95" transform="translate(-64.18 87.55) rotate(-43.78)"/><rect class="cls-25" x="74.08" y="123.31" width="0.62" height="4.95" transform="translate(-61.22 71.32) rotate(-37.52)"/><rect class="cls-25" x="71.38" y="125.15" width="0.62" height="4.95" transform="translate(-55.84 55.76) rotate(-31.28)"/><rect class="cls-25" x="68.5" y="126.7" width="0.62" height="4.95" transform="translate(-48.24 41.3) rotate(-25.06)"/><rect class="cls-25" x="65.46" y="127.92" width="0.62" height="4.95" transform="translate(-38.55 28.19) rotate(-18.82)"/><rect class="cls-25" x="62.3" y="128.82" width="0.62" height="4.95" transform="translate(-27.06 16.76) rotate(-12.56)"/><rect class="cls-25" x="59.04" y="129.36" width="0.62" height="4.95" transform="translate(-13.99 7.24) rotate(-6.24)"/><rect class="cls-25" x="53.26" y="131.71" width="4.95" height="0.62" transform="translate(-76.89 186.3) rotate(-89.37)"/><rect class="cls-25" x="49.89" y="131.48" width="4.95" height="0.62" transform="translate(-84.86 167.57) rotate(-82.94)"/><polygon class="cls-25" points="48.08 133.5 49.25 128.69 49.85 128.83 48.69 133.64 48.08 133.5"/><rect class="cls-25" x="43.11" y="129.82" width="4.95" height="0.62" transform="translate(-92.27 127.43) rotate(-69.57)"/><path class="cls-7" d="M222.61,251.26a95.21,95.21,0,0,0,29-8.37l-2.54-5.18a88.94,88.94,0,0,1-27.26,7.78A18.46,18.46,0,0,1,222.61,251.26Z"/><path class="cls-15" d="M234.09,252.59a16.31,16.31,0,0,1,.44-5.57c-26.4-4.54-49.14-18-49.45-18.14l-3,5a158.06,158.06,0,0,0,19.31,9.43,152,152,0,0,0,32.65,9.58C234.08,252.75,234.08,252.67,234.09,252.59Z"/><path class="cls-10" d="M233,246.74s-1.57,3.12-.87,5.75l4,.67s-.11-5,.27-5.84Z"/><path class="cls-9" d="M234.94,253s-.13-3.92.73-5.76l4,.57a24.94,24.94,0,0,0-.37,5.8Z"/><path class="cls-6" d="M327.15,155.7c-1.66-1.7-3.37-3.34-5.1-5-3.19-3-6.48-5.86-9.66-8.87-1.57-1.48-3.07-3-4.64-4.51-.81-.77-2.74-2.1-3.38-3.08l-.53-.45c-.48-.4-1-.79-1.47-1.18l-13.94.78L278,115.64q-3.34-2-6.74-3.95Q267,109.3,262.7,107q-2.14-1.12-4.3-2.21l-2.55-1.26-2.92-1.37q-2.14-1-4.3-1.95c-2.17-1-4.35-1.9-6.53-2.83l-4.49,12.67-29.13,23.12-6.79,32.63,15.19,42.65,32.69,19.8,44.61-1.62L321,182.88l8.29-14,1.7-1.44A40.28,40.28,0,0,1,327.15,155.7Z"/><path class="cls-13" d="M326.94,176.2c2.39-1.57,4.6-3.09,6.67-4.57a34.16,34.16,0,0,1-4.81-9.38,21.41,21.41,0,0,1-2.09.64,76.31,76.31,0,0,0-2.19-9.8q-1.23-1.19-2.47-2.36c-3.19-3-6.48-5.86-9.66-8.87-1.57-1.48-3.07-3-4.64-4.51-.81-.77-2.74-2.1-3.38-3.08l-.53-.45a222.8,222.8,0,0,0-32.61-22.14Q267,109.3,262.7,107q-2.14-1.12-4.3-2.21l-2.55-1.26-2.92-1.37-.15-.07c-5.52.95-10.52,2.05-10.52,2.05a13.87,13.87,0,0,1-.19-6.78l-1.14-.48a18.13,18.13,0,0,1-2.39,3.3,18.19,18.19,0,0,1-6.76,6.2,15.33,15.33,0,0,1-3,1.57l-8.67,11.6a35.47,35.47,0,0,0-20.7,2.58c2.33-.3,8.19,2.91,8.19,2.91-18.85,1.66-27.61,14.6-27.61,14.6a9.67,9.67,0,0,1,7.53-1c-18.08,14.36-7.61,27.56-7.61,27.56-.11-1.28,2.44-6.51,2.44-6.51-3.41,16.49,3.85,33.56,3.85,33.56,0-2.14,3-11.77,3-11.77-2.25,11.21,5.53,24.4,5.53,24.4-.71-2,1.67-11.72,1.67-11.72.85,9.89,4.16,16.59,6.76,20.44a22.56,22.56,0,0,0,3.29,4c.48.45.95.89,1.42,1.32h0l-.13,0a40.64,40.64,0,0,1,7.05,6.16c-8-8.82-5.35-4.62.64-1.45,4.4,2.33,7,4.63,11.42,5.41,9.26,1.62,18.36,3.49,27.52,5.63,10,2.34,16.59,2.17,26.27,2.8l5.74,1.26c4.12-1.11,8.22-2,12.47-2.76.69-.12,1.38-.17,2.07-.23a104.09,104.09,0,0,0,8.54-8.8c-.1,2.53-2.18,5.8-4.44,8.66a29.52,29.52,0,0,1,4.94.68l.16-.11a11,11,0,0,1,2.07-1l-.67.05c6.92-7.39,10.78-18,10.78-18,1.55,4.8-4.05,15.43-4.05,15.43,17.8-12.22,9.47-45.27,9.47-45.27,3.76,5.23,6.25,20.94,6.25,20.94C336.84,195,326.94,176.2,326.94,176.2Zm-115-12s-1.65-8-.42-13.9,9,2.21,15.84,9.64S211.95,164.23,211.95,164.23Zm63.52,4.35c-7.82,11.91-22.14,16.31-32,9.85S232,157.07,239.8,145.16s27.12-23.88,37-17.42S283.29,156.68,275.47,168.59Z"/><path class="cls-13" d="M268,225.17s37-13.87,37.62-13.68,17.05,7.42,17.05,7.42S311,246.22,292.57,252.13c0,0,9.24-9.43,11.76-14.55,0,0-13.9,17.74-45.54,11.56a6.8,6.8,0,0,0,.22-.93,41.52,41.52,0,0,0,16.07-5.14,109.31,109.31,0,0,1-18.54-.69c-.47,0-.86-.17-1.38-.22a26,26,0,0,1-3.5-.45c-15.9-2.53-36.13-9.2-48-26.34Z"/><ellipse class="cls-13" cx="242.86" cy="158.15" rx="6.1" ry="3.68" transform="translate(-21.73 276.4) rotate(-57.15)"/><ellipse class="cls-6" cx="228.12" cy="144.66" rx="6.1" ry="3.68" transform="matrix(0.78, -0.63, 0.63, 0.78, -40.34, 174.52)"/><path class="cls-26" d="M284.57,229.15c-4.31-9.38-9-14.3-13.41-16.59a12.2,12.2,0,0,1-4.29,1.25,12.34,12.34,0,0,1-6,1.34,12.1,12.1,0,0,1-3.6.74,12.3,12.3,0,0,1-5.17,0c-.49.43-.76.7-.76.7,15.08,4.47,6.66,29.8,6.66,29.8C255.86,269.31,298.41,259.25,284.57,229.15Z"/><path class="cls-27" d="M261,215.14h-.11a11.86,11.86,0,0,1-2.06.57c6.89,2.74,18.18,10.64,13.41,32.51C272.2,248.22,283.71,225.27,261,215.14Z"/><path class="cls-14" d="M294.33,200.95s-49.48,43.64-86-17.72"/><path class="cls-28" d="M228.46,101.14s-52.78-7.26-46,0,100.4,94.6,148.17,83Z"/><path class="cls-29" d="M228.18,101.54c-.58-.82,3.31-3.8,3.93-4.54a147,147,0,0,0,10.17-13.23c3-4.51,6.26-9.13,11.08-11.88s10.74-3.25,16.27-2.44c14.85,2.19,28.73,10.3,40.72,18.92,38.49,27.67,51.41,45.93,37.21,69.61s-16.95,26.15-16.95,26.15S262.7,150,228.18,101.54Z"/><path class="cls-30" d="M304.1,84.7a15.05,15.05,0,0,0-1.51-.28"/><path class="cls-31" d="M299.63,84.3c-18.6.88-41.57,30.92-48,39.84"/><path class="cls-30" d="M250.77,125.36c-.57.81-.87,1.26-.87,1.26"/><path class="cls-30" d="M305.05,84.7q.52.58,1,1.18"/><path class="cls-32" d="M307.8,88.42c13.07,21.72-12.38,56.48-19.79,65.82"/><path class="cls-30" d="M287,155.44c-.62.77-1,1.18-1,1.18"/><path class="cls-30" d="M314.64,176s.33-.43.91-1.23"/><path class="cls-33" d="M317.33,172.13c8.5-13.07,31.74-56.7-12.49-87.52"/><path class="cls-30" d="M303.52,83.71l-1.28-.85"/><ellipse class="cls-28" cx="304.1" cy="84.7" rx="3.97" ry="7.5" transform="translate(64.19 289.87) rotate(-56.1)"/><path class="cls-34" d="M300.65,81.87c-9.56-5.92-20-10.79-31-12.41-5.53-.82-11.42-.33-16.27,2.44s-8,7.37-11.08,11.88A146.9,146.9,0,0,1,232.12,97c-.63.74-4.52,3.72-3.93,4.54,2.52,3.53,5.22,7,8,10.36C245.25,99.69,267.46,76,300.65,81.87Z"/><circle class="cls-28" cx="297.5" cy="98.32" r="3.15"/><circle class="cls-29" cx="297.5" cy="98.32" r="1.63"/><ellipse class="cls-28" cx="284.19" cy="80.64" rx="3.15" ry="1.89"/><ellipse class="cls-29" cx="284.19" cy="80.64" rx="1.63" ry="0.98"/><path class="cls-6" d="M274.67,128l-25.53-9.31a2.87,2.87,0,0,1-1.66-3.23L253,88.24A2.57,2.57,0,0,1,255.84,86l27.93,5.81A3,3,0,0,1,286,95.53l-7.89,30.75A2.56,2.56,0,0,1,274.67,128Z"/><path class="cls-35" d="M248.89,116.27l5.7-28a.53.53,0,0,1,.6-.46L283.58,94a.62.62,0,0,1,.46.77l-7.89,31.17a.53.53,0,0,1-.72.37l-26.2-9.33A.6.6,0,0,1,248.89,116.27Z"/><path class="cls-15" d="M278.87,94.72l-3.73-.83c.34.25.69.5,1,.78a20,20,0,0,1,3.54,3.76l-4.53,4.34a9.87,9.87,0,0,0-4.93-4.92q-3.25-1.68-4.51,1.07a2.9,2.9,0,0,0,.15,2.48,26,26,0,0,0,3.4,4.77,17.38,17.38,0,0,1,2.8,4.41,10.21,10.21,0,0,1,.61,1.92,8.94,8.94,0,0,1-.88,5.79A7.25,7.25,0,0,1,268,122l3.92,1.36a2.94,2.94,0,0,0,3.88-2.07l5.54-22.37A3.41,3.41,0,0,0,278.87,94.72Z"/><path class="cls-15" d="M262.42,107.17a20.59,20.59,0,0,1-2.21-3.46,9.41,9.41,0,0,1-.5-8.27,7.48,7.48,0,0,1,3.22-3.72,6.94,6.94,0,0,1,.77-.36l-5.4-1.18a2.93,2.93,0,0,0-3.37,2.49l-4.1,20.28a3.3,3.3,0,0,0,2,3.75l2,.71-.14-.13a25.42,25.42,0,0,1-2.79-3.9l4-3.55a11.5,11.5,0,0,0,4.69,5.58c2.25,1.38,3.79,1.22,4.62-.48a3.9,3.9,0,0,0,.15-3.12A20.84,20.84,0,0,0,262.42,107.17Z"/><path class="cls-34" d="M189.76,130.93s58.11,66,139.23,53.55L209,119.43s-7.78,1.27-9.65,2.76c0,0,6.35,2.64,8.19,2.91C207.59,125.09,193.57,127.64,189.76,130.93Z"/></g><path class="cls-6" d="M190.67,254.25a12.2,12.2,0,0,1-3.5-.51,5,5,0,0,1-.63-.24,10.42,10.42,0,0,1-5.23-5.73,11,11,0,0,1,.23-7.77c-.25-.68-1.12-2.31-4.18-4.56a5,5,0,0,1-.51-.43C176,234.19,91.35,152.75,12.9,94.47q-.19-.14-.37-.3a12.36,12.36,0,0,1-3.67-8.49C8.61,80.5,11.09,75,16.24,69.4c7.4-8.08,13.12-11.69,18.56-11.69a13.29,13.29,0,0,1,7.57,2.51,5,5,0,0,1,1,.84c52.85,60,136.17,151.52,149.07,157.77a5,5,0,0,1,1.09.72l.48.42c1,.85,3.55,3.09,4.57,3.11.2,0,.44-.11.67-.18a11.49,11.49,0,0,1,3.27-.53c.28,0,.57,0,.87,0a10.32,10.32,0,0,1,6.16,2.61c3.36,3.19,3.08,8.24,1.31,11.82C209.36,239.75,201.63,254.25,190.67,254.25Z"/><path class="cls-6" d="M315.55,86a10.43,10.43,0,0,0-1.07-3,16.62,16.62,0,0,0-5.37-5.71,15.71,15.71,0,0,0-8.52-2.88,9.6,9.6,0,0,0-2.32.28q-2.39-1.34-4.93-2.59l-1.12-.55-1.07-.5-1.85-.84-.59-.26q-1.39-.6-2.76-1.14h0q-1.48-.58-2.93-1.09l-.1,0q-3.05-1.06-6-1.82l-.16,0q-1.48-.37-2.94-.67l-.44-.09c-1-.19-2-.37-3-.52a37.67,37.67,0,0,0-5.48-.41h0a27.88,27.88,0,0,0-14,3.45C244.86,71,241,76.76,238.14,81a141.49,141.49,0,0,1-9.75,12.69l-.08.07L228,94l-.25.22c-.5.45-1.07,1-1.64,1.52-6.85-.88-23.65-2.87-34.67-2.87-7.61,0-12.36.78-14.09,4.74a6.3,6.3,0,0,0,1.44,6.91c1.71,1.85,7.64,7.53,16.3,15.11l-.1.2-.11.24c-.06.14-.12.28-.17.43s-.06.17-.08.25-.08.31-.11.47,0,.15,0,.23a5,5,0,0,0,0,.71s0,.08,0,.12a5,5,0,0,0,0,.54l0,.11s0,0,0,0c-1.09.42-2.11.88-3.1,1.35a20.09,20.09,0,0,0-4.47,2.45,39.32,39.32,0,0,0-11.05,10.06,5,5,0,0,0,.5,6.22l0,0c-7.61,11-4.12,21.47-.37,26.19a5.09,5.09,0,0,0,.45.5,70.2,70.2,0,0,0,1.83,14.67l-.07-.07c-6-6.16-15.29-1.21-21.75,3.2-.83-1.23-1.79-2.52-2.9-3.92l-.12-.15a94,94,0,0,0-12.55-11.24c-5.46-4.07-13.36-9-19.09-5.48a7.42,7.42,0,0,0-3.8,6.39c0,2.74,1.19,6.25,7.91,11.93l-.67.16c-2.51.6-6,1.43-8.58,4.26a6.36,6.36,0,0,0-1,7.81,6.52,6.52,0,0,0,2.32,2.17,24.37,24.37,0,0,0,14.72,3c0,.07,0,.14,0,.21.1,1.7.92,4.82,5.33,6.71a10,10,0,0,0,4,.81,15,15,0,0,0,7-2c.44,2.41,2.11,5.44,7.1,9.79a16.13,16.13,0,0,0-6.51,2.1,8,8,0,0,0-3.86,7.45,8.5,8.5,0,0,0,3.71,6.62c1.29.89,4.42,3.06,14.07,1.76,0,.08,0,.16,0,.25.1,1.7.92,4.82,5.33,6.71a10,10,0,0,0,4,.81c3.74,0,7.26-2,9.9-3.83a176.89,176.89,0,0,0,16.8,8q4.16,1.72,8.28,3.18l-13.2,39.63q9.37,3,18.89,5.47c5.93-.68,11.89-1.7,17.76-2.83,2.67-.52,5.33-1.08,8-1.66l14.23-39a14.73,14.73,0,0,0,3.35,6.31,16.29,16.29,0,0,0,12.28,5h0A23.94,23.94,0,0,0,288,254.21a5,5,0,0,0,6.06,2.69c9.51-3.05,17.26-10.84,22.87-18.41a4.91,4.91,0,0,0,4.08-.7c6.13-4.21,9.65-10.32,11.56-16.84a47.56,47.56,0,0,0,1.42-6.61,5,5,0,0,0,4.81-4c1.7-8.41-.36-17.86-2.74-25,3.11-4.2,8.61-12.82,15.76-24.73C368.5,132.8,351.31,112,315.55,86ZM187.32,221.09c-.48-.71-1-1.46-1.6-2.23q1.54.61,3.14,1.21Zm-16.58-20.53c3.72-1.55,7-3.63,8.53-6.09a8.39,8.39,0,0,0,1.1-2.55c.66,1.94,1.15,3.13,1.23,3.31a5,5,0,0,0,4.33,3,55.48,55.48,0,0,0,4.45,10.18,5,5,0,0,0,4.31,2.46,5.06,5.06,0,0,0,.7,0c.15.34.3.66.46,1A159.66,159.66,0,0,1,170.74,200.56ZM212.81,236c-3-1.08-5.84-2.2-8.44-3.29a17.58,17.58,0,0,0,4.93-3.7q2.25,1.93,4.64,3.61Z"/><path class="cls-7" d="M231.25,293.32l2.23-.45,22.83-62.63-32.73-10.73-24.2,72.65c0,12.68,5.81,10.57,10.54,11.82C215.84,303.31,225.39,294.45,231.25,293.32Z"/><path class="cls-8" d="M223,239.49c-6,17.29-16.85,52.13-22.76,69.4"/><path class="cls-8" d="M228.81,241.38c-5.76,16.4-15.63,48.24-21.54,65.66"/><path class="cls-9" d="M229.87,246.46a10.78,10.78,0,0,1-6.92-7l-2.76-9.57L239,215l7.16,25.84-7.2,4.52A10.73,10.73,0,0,1,229.87,246.46Z"/><path class="cls-10" d="M242.52,239.42l-5.24,3.29a7.65,7.65,0,0,1-11.36-4.2l-1.57-5,13-12.59Z"/><circle class="cls-11" cx="220.45" cy="257.02" r="1.38" transform="translate(-92.47 386.4) rotate(-71.84)"/><circle class="cls-12" cx="218.93" cy="261.48" r="1.42" transform="translate(-102.96 374.12) rotate(-69.35)"/><circle class="cls-12" cx="216.08" cy="271.03" r="1.42" transform="translate(-113.74 377.64) rotate(-69.35)"/><circle class="cls-12" cx="217.51" cy="266.29" r="1.42" transform="translate(-108.38 375.9) rotate(-69.35)"/><path class="cls-6" d="M327.15,155.7c-1.66-1.7-3.37-3.34-5.1-5-3.19-3-6.48-5.86-9.66-8.87-1.57-1.48-3.07-3-4.64-4.51-.81-.77-2.74-2.1-3.38-3.08l-.53-.45c-.48-.4-1-.79-1.47-1.18l-13.94.78L278,115.64q-3.34-2-6.74-3.95Q267,109.3,262.7,107q-2.14-1.12-4.3-2.21l-2.55-1.26-2.92-1.37q-2.14-1-4.3-1.95c-2.17-1-4.35-1.9-6.53-2.83l-4.49,12.67-29.13,23.12-6.79,32.63,15.19,42.65,32.69,19.8,44.61-1.62L321,182.88l8.29-14,1.7-1.44A40.28,40.28,0,0,1,327.15,155.7Z"/><path class="cls-13" d="M326.94,176.2c2.39-1.57,4.6-3.09,6.67-4.57a34.16,34.16,0,0,1-4.81-9.38,21.41,21.41,0,0,1-2.09.64,76.31,76.31,0,0,0-2.19-9.8q-1.23-1.19-2.47-2.36c-3.19-3-6.48-5.86-9.66-8.87-1.57-1.48-3.07-3-4.64-4.51-.81-.77-2.74-2.1-3.38-3.08l-.53-.45a222.8,222.8,0,0,0-32.61-22.14Q267,109.3,262.7,107q-2.14-1.12-4.3-2.21l-2.55-1.26-2.92-1.37-.15-.07c-3.87.66-7.47,1.4-9.29,1.79a19,19,0,0,1-2,2.12,18,18,0,0,1-7.75,5,18.08,18.08,0,0,1-8.83,2.08l-4.85,6.49a35.47,35.47,0,0,0-20.7,2.58c2.33-.3,8.19,2.91,8.19,2.91-18.85,1.66-27.61,14.6-27.61,14.6a9.67,9.67,0,0,1,7.53-1c-18.08,14.36-7.61,27.56-7.61,27.56-.11-1.28,2.44-6.51,2.44-6.51-3.41,16.49,3.85,33.56,3.85,33.56,0-2.14,3-11.77,3-11.77-2.25,11.21,5.53,24.4,5.53,24.4-.71-2,1.67-11.72,1.67-11.72.85,9.89,4.16,16.59,6.76,20.44a22.56,22.56,0,0,0,3.29,4c.48.45.95.89,1.42,1.32h0l-.13,0a40.64,40.64,0,0,1,7.05,6.16c-8-8.82-5.35-4.62.64-1.45,4.4,2.33,7,4.63,11.42,5.41,9.26,1.62,18.36,3.49,27.52,5.63,10,2.34,16.59,2.17,26.27,2.8l5.74,1.26c4.12-1.11,8.22-2,12.47-2.76.69-.12,1.38-.17,2.07-.23a104.09,104.09,0,0,0,8.54-8.8c-.1,2.53-2.18,5.8-4.44,8.66a29.52,29.52,0,0,1,4.94.68l.16-.11a11,11,0,0,1,2.07-1l-.67.05c6.92-7.39,10.78-18,10.78-18,1.55,4.8-4.05,15.43-4.05,15.43,17.8-12.22,9.47-45.27,9.47-45.27,3.76,5.23,6.25,20.94,6.25,20.94C336.84,195,326.94,176.2,326.94,176.2Zm-115-12s-1.65-8-.42-13.9,9,2.21,15.84,9.64S211.95,164.23,211.95,164.23Zm63.52,4.35c-7.82,11.91-22.14,16.31-32,9.85S232,157.07,239.8,145.16s27.12-23.88,37-17.42S283.29,156.68,275.47,168.59Z"/><path class="cls-13" d="M268,225.17s37-13.87,37.62-13.68,17.05,7.42,17.05,7.42S311,246.22,292.57,252.13c0,0,9.24-9.43,11.76-14.55,0,0-13.9,17.74-45.54,11.56a6.8,6.8,0,0,0,.22-.93,41.52,41.52,0,0,0,16.07-5.14,109.31,109.31,0,0,1-18.54-.69c-.47,0-.86-.17-1.38-.22a26,26,0,0,1-3.5-.45c-15.9-2.53-36.13-9.2-48-26.34Z"/><path class="cls-14" d="M301.57,187s-36,55.31-87.61,6"/><path class="cls-6" d="M310,190.73s3-20.37-18.4-9.13C291.57,181.61,308.1,175.39,310,190.73Z"/><ellipse class="cls-13" cx="256.56" cy="170.59" rx="6.07" ry="3.11" transform="translate(-25.11 295.44) rotate(-57.53)"/><ellipse class="cls-6" cx="224.6" cy="142.73" rx="6.07" ry="3.11" transform="translate(-21.99 242.78) rotate(-54.52)"/><path class="cls-15" d="M155.18,198.27c4.79,1.49,25.06-4.15,19.44-10.35-4.48-4.62-15.95,4.25-19.64,7l-.38-.53a41.4,41.4,0,0,0-4.95-7.5c-3.06-3.56-19.85-19.18-25.24-15.71-7.49,4.35,17.24,19.15,21.24,21.54A24.65,24.65,0,0,0,127.29,190c-2.45.62-5.16,1.06-7,3-.45.48-.82,1.21-.47,1.77a1.66,1.66,0,0,0,.6.51,19.56,19.56,0,0,0,12.78,2.18A86.22,86.22,0,0,0,146.86,194l.85-.27c-3.29,1.92-15,8.05-7.74,11.14,3.75,1.61,8.62-2.12,11.4-4.31"/><path class="cls-16" d="M156.39,197.48s44.46,33.3,97,25.69"/><path class="cls-17" d="M33.72,62.79s124.56,61.88,253.62,134c0,0-68.83-30.48-168.94-35.39l-78.27-81"/><path class="cls-18" d="M15.88,90.46s-6.65-6,4-17.68,15.51-11.19,19.64-8.4c0,0,132.15,150,150.65,159,2.32,2,5.78,5.26,9.13,4.67,1.25-.22,2.22-.75,3.52-.62a5.42,5.42,0,0,1,3.19,1.26c1.56,1.49,1.13,4.23.27,6,0,0-8.46,17.1-17.71,14.32,0,0-4.82-2.19-2-8,0,0,1.09-4.12-6.26-9.51C180.31,231.41,95.51,149.61,15.88,90.46Z"/><g class="cls-19"><path class="cls-20" d="M88.52,120.08C75.18,124,60.31,109.73,53.38,99.79,44.76,88,49.49,72.25,40.88,60.45c-5-7-11.48-11.25-19.12-14.49"/><g class="cls-21"><path class="cls-20" d="M142.41,219.62c0-12.78-9.17-21.42-17.64-29.32-7.12-6.41-12.75-20.9-23-21.08a16.65,16.65,0,0,0-10.17,4.44c-1.82,1-3.91,6.9-3.76,4.06"/><path class="cls-20" d="M109,145.11c-16,7.68,7.35,29.13,19.23,19.11"/><path class="cls-20" d="M-6.48,25.84c-3.13-1.23,2.31,3.32,3.65,4.8,4.32,5.55,9.47,9,14.54,13.89,8.83,7.56,20.58,20.6,24.23,32.15,4.25,13.71,8.62,25.3,18.68,36.47,9.73,10.8,27.65,14.22,33.73,27,8.05,15.68-.47,29.44-16.27,32.87"/><path class="cls-20" d="M-26.29,58.53c5.7-7.16,30.18-.2,37,4.42C22,71,24,80.68,28.72,92.64a48.7,48.7,0,0,0,9.81,16.13"/><path class="cls-22" d="M237.5,289.24C233,281.78,226,277.78,222,270.78c-4-8-13-5-16.63.5"/><path class="cls-22" d="M218.8,250.73c-10.1,4.84,4.64,18.37,12.12,12"/><path class="cls-22" d="M146,175.54c-2-.77,1.46,2.09,2.3,3,2.73,3.5,6,5.68,9.17,8.76,5.57,4.77,13,13,15.28,20.27,2.68,8.64,5.43,15.95,11.78,23,6.13,6.81,17.43,9,21.26,17,5.08,9.89-.3,18.56-10.26,20.72"/><path class="cls-22" d="M133.48,196.15c3.59-4.51,19-.12,23.35,2.79,7.12,5.07,8.37,11.18,11.33,18.72a30.7,30.7,0,0,0,6.18,10.17"/></g></g><path class="cls-23" d="M31.09,64.49c-1-1-5.5,2.13-10,6.91s-7.28,9.45-6.24,10.42,5.51-2.13,10-6.91S32.12,65.46,31.09,64.49Z"/><path class="cls-15" d="M186,231.72c4.79,1.49,25.06-4.15,19.44-10.35-4.48-4.62-15.95,4.25-19.64,7l-.38-.53a41.4,41.4,0,0,0-4.95-7.5c-3.06-3.56-19.85-19.18-25.24-15.71-7.49,4.35,17.24,19.15,21.24,21.54-6.57-3.74-26.38-5.58-25.79,1.13.42,8.28,22,1.83,27.85-.06-3.29,1.92-15,8.05-7.74,11.14,3.75,1.61,8.62-2.12,11.4-4.31"/><path class="cls-24" d="M60.12,111.74,15,99.08,39.51,125,5.95,142.09s31,3.24,30.74,4.36-19.89,28.1-19.89,28.1l34.07-7.77L46.22,197l21.94-18.91,9.05,30.46,11.09-28.42,26.18,21.64-7-45.82Z"/><polyline class="cls-24" points="60.12 111.74 63.09 70.07 78.17 96.05 102.43 69.34 99.35 107.03 145.39 95.2 113.58 120.06 163.06 132.68 106.85 143.87"/><circle class="cls-6" cx="76.76" cy="136.93" r="33.75" transform="translate(-80.14 141.69) rotate(-62.47)"/><rect class="cls-25" x="65.07" y="163.7" width="0.62" height="4.95" transform="translate(-112.08 186.06) rotate(-74.92)"/><polygon class="cls-25" points="68.68 164.02 64.08 162.19 64.31 161.61 68.91 163.44 68.68 164.02"/><polygon class="cls-25" points="69.98 161.14 65.62 158.78 65.92 158.24 70.28 160.59 69.98 161.14"/><rect class="cls-25" x="69.41" y="154.32" width="0.62" height="4.95" transform="translate(-98.84 124.63) rotate(-55.22)"/><polygon class="cls-25" points="73.6 155.84 69.9 152.54 70.31 152.08 74.01 155.38 73.6 155.84"/><rect class="cls-25" x="73.98" y="149.14" width="0.62" height="4.96" transform="translate(-82.42 88.79) rotate(-42.05)"/><rect class="cls-25" x="76.54" y="147.08" width="0.62" height="4.95" transform="translate(-72.94 73.16) rotate(-35.78)"/><rect class="cls-25" x="79.3" y="145.32" width="0.62" height="4.95" transform="translate(-62.48 58.39) rotate(-29.51)"/><path class="cls-25" d="M83.23,148.74l-2-4.55.57-.24,2,4.55Z"/><rect class="cls-25" x="85.29" y="142.74" width="0.62" height="4.95" transform="translate(-38.89 31.56) rotate(-17.09)"/><rect class="cls-25" x="88.47" y="141.94" width="0.62" height="4.95" transform="translate(-25.56 19.26) rotate(-10.83)"/><rect class="cls-25" x="91.74" y="141.49" width="0.62" height="4.95" transform="translate(-11.15 7.77) rotate(-4.56)"/><path class="cls-25" d="M95.23,146.36c.08-2,.12-3,.2-4.95l.62,0c-.08,2-.12,3-.2,5Z"/><rect class="cls-25" x="96.51" y="143.91" width="4.95" height="0.62" transform="translate(-58.54 220.26) rotate(-81.3)"/><rect class="cls-25" x="99.85" y="144.63" width="4.95" height="0.62" transform="translate(-64.36 205.69) rotate(-74.8)"/><rect class="cls-25" x="103.16" y="145.74" width="4.95" height="0.62" transform="translate(-69.23 189.78) rotate(-68.16)"/><polygon class="cls-25" points="82.83 108.69 82.97 108.08 87.79 109.25 87.64 109.85 82.83 108.69"/><rect class="cls-25" x="83.99" y="109.83" width="0.62" height="4.95" transform="translate(-50.19 152.7) rotate(-69.82)"/><polygon class="cls-25" points="85.02 116.83 80.59 114.61 80.88 114.06 85.3 116.28 85.02 116.83"/><polygon class="cls-25" points="83.18 119.97 79.03 117.27 79.37 116.75 83.52 119.45 83.18 119.97"/><rect class="cls-25" x="78.82" y="118.77" width="0.62" height="4.95" transform="translate(-64.62 103.98) rotate(-50.02)"/><rect class="cls-25" x="76.57" y="121.18" width="0.62" height="4.95" transform="translate(-64.18 87.55) rotate(-43.78)"/><rect class="cls-25" x="74.08" y="123.31" width="0.62" height="4.95" transform="translate(-61.22 71.32) rotate(-37.52)"/><rect class="cls-25" x="71.38" y="125.15" width="0.62" height="4.95" transform="translate(-55.84 55.76) rotate(-31.28)"/><rect class="cls-25" x="68.5" y="126.7" width="0.62" height="4.95" transform="translate(-48.24 41.3) rotate(-25.06)"/><rect class="cls-25" x="65.46" y="127.92" width="0.62" height="4.95" transform="translate(-38.55 28.19) rotate(-18.82)"/><rect class="cls-25" x="62.3" y="128.82" width="0.62" height="4.95" transform="translate(-27.06 16.76) rotate(-12.56)"/><rect class="cls-25" x="59.04" y="129.36" width="0.62" height="4.95" transform="translate(-13.99 7.24) rotate(-6.24)"/><rect class="cls-25" x="53.26" y="131.71" width="4.95" height="0.62" transform="translate(-76.89 186.3) rotate(-89.37)"/><rect class="cls-25" x="49.89" y="131.48" width="4.95" height="0.62" transform="translate(-84.86 167.57) rotate(-82.94)"/><polygon class="cls-25" points="48.08 133.5 49.25 128.69 49.85 128.83 48.69 133.64 48.08 133.5"/><rect class="cls-25" x="43.11" y="129.82" width="4.95" height="0.62" transform="translate(-92.27 127.43) rotate(-69.57)"/><path class="cls-7" d="M222.61,251.26a95.21,95.21,0,0,0,29-8.37l-2.54-5.18a88.94,88.94,0,0,1-27.26,7.78A18.46,18.46,0,0,1,222.61,251.26Z"/><path class="cls-15" d="M234.09,252.59a16.31,16.31,0,0,1,.44-5.57c-26.4-4.54-49.14-18-49.45-18.14l-3,5a158.06,158.06,0,0,0,19.31,9.43,152,152,0,0,0,32.65,9.58C234.08,252.75,234.08,252.67,234.09,252.59Z"/><path class="cls-10" d="M233,246.74s-1.57,3.12-.87,5.75l4,.67s-.11-5,.27-5.84Z"/><path class="cls-9" d="M234.94,253s-.13-3.92.73-5.76l4,.57a24.94,24.94,0,0,0-.37,5.8Z"/><path class="cls-6" d="M327.15,155.7c-1.66-1.7-3.37-3.34-5.1-5-3.19-3-6.48-5.86-9.66-8.87-1.57-1.48-3.07-3-4.64-4.51-.81-.77-2.74-2.1-3.38-3.08l-.53-.45c-.48-.4-1-.79-1.47-1.18l-13.94.78L278,115.64q-3.34-2-6.74-3.95Q267,109.3,262.7,107q-2.14-1.12-4.3-2.21l-2.55-1.26-2.92-1.37q-2.14-1-4.3-1.95c-2.17-1-4.35-1.9-6.53-2.83l-4.49,12.67-29.13,23.12-6.79,32.63,15.19,42.65,32.69,19.8,44.61-1.62L321,182.88l8.29-14,1.7-1.44A40.28,40.28,0,0,1,327.15,155.7Z"/><path class="cls-13" d="M326.94,176.2c2.39-1.57,4.6-3.09,6.67-4.57a34.16,34.16,0,0,1-4.81-9.38,21.41,21.41,0,0,1-2.09.64,76.31,76.31,0,0,0-2.19-9.8q-1.23-1.19-2.47-2.36c-3.19-3-6.48-5.86-9.66-8.87-1.57-1.48-3.07-3-4.64-4.51-.81-.77-2.74-2.1-3.38-3.08l-.53-.45a222.8,222.8,0,0,0-32.61-22.14Q267,109.3,262.7,107q-2.14-1.12-4.3-2.21l-2.55-1.26-2.92-1.37-.15-.07c-5.52.95-10.52,2.05-10.52,2.05a13.87,13.87,0,0,1-.19-6.78l-1.14-.48a18.13,18.13,0,0,1-2.39,3.3,18.19,18.19,0,0,1-6.76,6.2,15.33,15.33,0,0,1-3,1.57l-8.67,11.6a35.47,35.47,0,0,0-20.7,2.58c2.33-.3,8.19,2.91,8.19,2.91-18.85,1.66-27.61,14.6-27.61,14.6a9.67,9.67,0,0,1,7.53-1c-18.08,14.36-7.61,27.56-7.61,27.56-.11-1.28,2.44-6.51,2.44-6.51-3.41,16.49,3.85,33.56,3.85,33.56,0-2.14,3-11.77,3-11.77-2.25,11.21,5.53,24.4,5.53,24.4-.71-2,1.67-11.72,1.67-11.72.85,9.89,4.16,16.59,6.76,20.44a22.56,22.56,0,0,0,3.29,4c.48.45.95.89,1.42,1.32h0l-.13,0a40.64,40.64,0,0,1,7.05,6.16c-8-8.82-5.35-4.62.64-1.45,4.4,2.33,7,4.63,11.42,5.41,9.26,1.62,18.36,3.49,27.52,5.63,10,2.34,16.59,2.17,26.27,2.8l5.74,1.26c4.12-1.11,8.22-2,12.47-2.76.69-.12,1.38-.17,2.07-.23a104.09,104.09,0,0,0,8.54-8.8c-.1,2.53-2.18,5.8-4.44,8.66a29.52,29.52,0,0,1,4.94.68l.16-.11a11,11,0,0,1,2.07-1l-.67.05c6.92-7.39,10.78-18,10.78-18,1.55,4.8-4.05,15.43-4.05,15.43,17.8-12.22,9.47-45.27,9.47-45.27,3.76,5.23,6.25,20.94,6.25,20.94C336.84,195,326.94,176.2,326.94,176.2Zm-115-12s-1.65-8-.42-13.9,9,2.21,15.84,9.64S211.95,164.23,211.95,164.23Zm63.52,4.35c-7.82,11.91-22.14,16.31-32,9.85S232,157.07,239.8,145.16s27.12-23.88,37-17.42S283.29,156.68,275.47,168.59Z"/><path class="cls-13" d="M268,225.17s37-13.87,37.62-13.68,17.05,7.42,17.05,7.42S311,246.22,292.57,252.13c0,0,9.24-9.43,11.76-14.55,0,0-13.9,17.74-45.54,11.56a6.8,6.8,0,0,0,.22-.93,41.52,41.52,0,0,0,16.07-5.14,109.31,109.31,0,0,1-18.54-.69c-.47,0-.86-.17-1.38-.22a26,26,0,0,1-3.5-.45c-15.9-2.53-36.13-9.2-48-26.34Z"/><ellipse class="cls-13" cx="242.86" cy="158.15" rx="6.1" ry="3.68" transform="translate(-21.73 276.4) rotate(-57.15)"/><ellipse class="cls-6" cx="228.12" cy="144.66" rx="6.1" ry="3.68" transform="matrix(0.78, -0.63, 0.63, 0.78, -40.34, 174.52)"/><path class="cls-26" d="M284.57,229.15c-4.31-9.38-9-14.3-13.41-16.59a12.2,12.2,0,0,1-4.29,1.25,12.34,12.34,0,0,1-6,1.34,12.1,12.1,0,0,1-3.6.74,12.3,12.3,0,0,1-5.17,0c-.49.43-.76.7-.76.7,15.08,4.47,6.66,29.8,6.66,29.8C255.86,269.31,298.41,259.25,284.57,229.15Z"/><path class="cls-27" d="M261,215.14h-.11a11.86,11.86,0,0,1-2.06.57c6.89,2.74,18.18,10.64,13.41,32.51C272.2,248.22,283.71,225.27,261,215.14Z"/><path class="cls-14" d="M294.33,200.95s-49.48,43.64-86-17.72"/><path class="cls-28" d="M228.46,101.14s-52.78-7.26-46,0,100.4,94.6,148.17,83Z"/><path class="cls-29" d="M228.18,101.54c-.58-.82,3.31-3.8,3.93-4.54a147,147,0,0,0,10.17-13.23c3-4.51,6.26-9.13,11.08-11.88s10.74-3.25,16.27-2.44c14.85,2.19,28.73,10.3,40.72,18.92,38.49,27.67,51.41,45.93,37.21,69.61s-16.95,26.15-16.95,26.15S262.7,150,228.18,101.54Z"/><path class="cls-30" d="M304.1,84.7a15.05,15.05,0,0,0-1.51-.28"/><path class="cls-31" d="M299.63,84.3c-18.6.88-41.57,30.92-48,39.84"/><path class="cls-30" d="M250.77,125.36c-.57.81-.87,1.26-.87,1.26"/><path class="cls-30" d="M305.05,84.7q.52.58,1,1.18"/><path class="cls-32" d="M307.8,88.42c13.07,21.72-12.38,56.48-19.79,65.82"/><path class="cls-30" d="M287,155.44c-.62.77-1,1.18-1,1.18"/><path class="cls-30" d="M314.64,176s.33-.43.91-1.23"/><path class="cls-33" d="M317.33,172.13c8.5-13.07,31.74-56.7-12.49-87.52"/><path class="cls-30" d="M303.52,83.71l-1.28-.85"/><ellipse class="cls-28" cx="304.1" cy="84.7" rx="3.97" ry="7.5" transform="translate(64.19 289.87) rotate(-56.1)"/><path class="cls-34" d="M300.65,81.87c-9.56-5.92-20-10.79-31-12.41-5.53-.82-11.42-.33-16.27,2.44s-8,7.37-11.08,11.88A146.9,146.9,0,0,1,232.12,97c-.63.74-4.52,3.72-3.93,4.54,2.52,3.53,5.22,7,8,10.36C245.25,99.69,267.46,76,300.65,81.87Z"/><circle class="cls-28" cx="297.5" cy="98.32" r="3.15"/><circle class="cls-29" cx="297.5" cy="98.32" r="1.63"/><ellipse class="cls-28" cx="284.19" cy="80.64" rx="3.15" ry="1.89"/><ellipse class="cls-29" cx="284.19" cy="80.64" rx="1.63" ry="0.98"/><path class="cls-6" d="M274.67,128l-25.53-9.31a2.87,2.87,0,0,1-1.66-3.23L253,88.24A2.57,2.57,0,0,1,255.84,86l27.93,5.81A3,3,0,0,1,286,95.53l-7.89,30.75A2.56,2.56,0,0,1,274.67,128Z"/><path class="cls-35" d="M248.89,116.27l5.7-28a.53.53,0,0,1,.6-.46L283.58,94a.62.62,0,0,1,.46.77l-7.89,31.17a.53.53,0,0,1-.72.37l-26.2-9.33A.6.6,0,0,1,248.89,116.27Z"/><path class="cls-15" d="M278.87,94.72l-3.73-.83c.34.25.69.5,1,.78a20,20,0,0,1,3.54,3.76l-4.53,4.34a9.87,9.87,0,0,0-4.93-4.92q-3.25-1.68-4.51,1.07a2.9,2.9,0,0,0,.15,2.48,26,26,0,0,0,3.4,4.77,17.38,17.38,0,0,1,2.8,4.41,10.21,10.21,0,0,1,.61,1.92,8.94,8.94,0,0,1-.88,5.79A7.25,7.25,0,0,1,268,122l3.92,1.36a2.94,2.94,0,0,0,3.88-2.07l5.54-22.37A3.41,3.41,0,0,0,278.87,94.72Z"/><path class="cls-15" d="M262.42,107.17a20.59,20.59,0,0,1-2.21-3.46,9.41,9.41,0,0,1-.5-8.27,7.48,7.48,0,0,1,3.22-3.72,6.94,6.94,0,0,1,.77-.36l-5.4-1.18a2.93,2.93,0,0,0-3.37,2.49l-4.1,20.28a3.3,3.3,0,0,0,2,3.75l2,.71-.14-.13a25.42,25.42,0,0,1-2.79-3.9l4-3.55a11.5,11.5,0,0,0,4.69,5.58c2.25,1.38,3.79,1.22,4.62-.48a3.9,3.9,0,0,0,.15-3.12A20.84,20.84,0,0,0,262.42,107.17Z"/><path class="cls-34" d="M189.76,130.93s58.11,66,139.23,53.55L209,119.43s-7.78,1.27-9.65,2.76c0,0,6.35,2.64,8.19,2.91C207.59,125.09,193.57,127.64,189.76,130.93Z"/></g></g></svg>