<svg xmlns="http://www.w3.org/2000/svg" viewBox="0 0 500 500"><defs><style>.cls-1{isolation:isolate;}.cls-2{fill:#d4eefc;}.cls-3{fill:#b2d7e8;}.cls-4{fill:#231f20;mix-blend-mode:multiply;}.cls-12,.cls-4{opacity:0.2;}.cls-5{fill:#a7a9ac;}.cls-6{fill:#55a4db;}.cls-7{fill:#e8282b;}.cls-8{fill:#1b75bc;}.cls-12,.cls-9{fill:#fff;}.cls-10{fill:#e73f34;}.cls-11{fill:#858789;}.cls-13{fill:#8dc641;}</style></defs><title>01</title><g class="cls-1"><g id="Layer_1" data-name="Layer 1"><path class="cls-2" d="M373.65,352s23.06,28.08,16.28,97.5l73.12.82s28.08-106.61-76.54-132.79Z"/><path class="cls-3" d="M427.22,457.3l-27.07-1,.09-.56c8.45-50.94.33-78.56-8-92.76-9-15.34-20.06-18.73-20.17-18.77l.28-1c.47.14,11.53,3.5,20.71,19.13,8.38,14.29,16.6,42,8.24,93l25.1.93a163.29,163.29,0,0,0,1.6-49.69c-3.19-24.55-14.48-57.14-50.19-73l-.42-.18,3.66-11,.43.08c.2,0,20.23,3.8,39,21.84,17.29,16.63,37,49.15,32.91,109.61l-1-.07c4.11-60-15.44-92.29-32.56-108.78s-35.13-20.88-38.1-21.53l-3.1,9.29C414.47,349,425.81,381.76,429,406.48a163.11,163.11,0,0,1-1.7,50.41Z"/><ellipse class="cls-4" cx="184.29" cy="463.41" rx="134.19" ry="3.41"/><polygon class="cls-5" points="334.76 277.26 333.75 283.29 333.19 286.66 321.21 357.82 320.64 361.2 318.69 372.81 290.69 360.43 282.65 356.88 272.25 352.28 264.21 348.73 236.33 336.4 242.57 327.26 244.49 324.46 261.05 300.22 268.16 289.8 277.19 276.59 277.19 276.58 283.73 267.01 284.28 266.2 285.66 264.17 289.03 259.25 334.76 277.26"/><polyline class="cls-5" points="324.17 317.09 373.79 324.26 372.85 339.41 316.99 340"/><path class="cls-5" d="M386.51,317.53c-.3-.13-.6-.28-.92-.4A18.45,18.45,0,1,0,372.7,351.7c.31.12.63.2.95.3Z"/><path class="cls-5" d="M280.43,323.27l-34-12.15a25.88,25.88,0,0,1,17.44-48.74l33.95,12.15Zm-24.85-52.81a16.29,16.29,0,0,0-5.87,31.62L274.63,311l11-30.67-24.92-8.92A16.4,16.4,0,0,0,255.58,270.46Z"/><polygon class="cls-5" points="291.33 255.21 336.84 268.88 339.15 262.89 292.65 250.48 291.33 255.21"/><circle class="cls-5" cx="316.36" cy="255.46" r="5.18"/><path class="cls-6" d="M219.4,254.24c-15.85,0-25.76-4.35-26.2-4.54l2.07-4.62-1,2.31,1-2.31c.11,0,10.37,4.5,26.33,4.07,14.73-.39,37.5-5.15,62.32-25.56l3.21,3.9c-26.05,21.43-50.1,26.36-65.69,26.72Z"/><path class="cls-7" d="M282.35,226.23a10.06,10.06,0,0,1-4.38-1.51,26,26,0,0,1-5.19-3.51c-1.59-1.39-4.56-4.55-1.67-6.27,4.08-2.25,10.12,6.33,12.1,9l.38-.28a29.51,29.51,0,0,1,5-4.13,51.8,51.8,0,0,1,9.07-4.28,38.58,38.58,0,0,1,5.92-1.83,9.32,9.32,0,0,1,4.63-.12,2.21,2.21,0,0,1,1.66,2.61,5.3,5.3,0,0,1-2.54,2.49,30.16,30.16,0,0,1-5.22,2.42,99.48,99.48,0,0,1-10.71,3.27l-1.28.32c5.34-1.18,18,1.76,17.59,6.27-2.31,5.58-15.57-3.41-19.24-6,1.86,2,8.63,8.75,3,9.35-2.93.32-7.86-5.41-9.31-7.51"/><path class="cls-6" d="M225.26,280.43c-28.49,0-47.92-8.94-59.57-16.89-14.06-9.61-20.05-19.7-20.3-20.13l4.37-2.55c.06.1,5.8,9.7,19,18.66,12.2,8.26,33.47,17.67,65.54,15.55l.33,5.05Q229.8,280.43,225.26,280.43Z"/><path class="cls-7" d="M231.5,276.31a10.14,10.14,0,0,1-2.67-3.78,25.18,25.18,0,0,1-2.17-5.88c-.48-2.06-1.06-6.36,2.3-6.07,4.62.56,4.53,11.05,4.59,14.36l.47,0a30.11,30.11,0,0,1,6.49-.43,51.71,51.71,0,0,1,9.86,1.81,37.48,37.48,0,0,1,5.87,2,9.25,9.25,0,0,1,3.84,2.6,2.2,2.2,0,0,1-.18,3.08c-.95.72-2.38.63-3.51.55a30.3,30.3,0,0,1-5.65-1.08,97.49,97.49,0,0,1-10.62-3.59l-1.22-.48c5,2.15,13.6,11.92,10.64,15.34-5.13,3.19-10.67-11.84-12.16-16.06.33,2.73,1.92,12.14-3,9.33-2.57-1.45-3.23-9-3.19-11.53"/><polygon class="cls-8" points="197.46 294.22 196.24 459.33 192.76 459.01 191.62 294.22 197.46 294.22"/><path class="cls-8" d="M196.34,459.27s3,4.76,10.24,4.76l.19,1.48s-9.27.74-12.07-3.7l.19,3.39-3.08-.32,1-6.14Z"/><polygon class="cls-8" points="180.89 294.22 179.67 459.33 176.2 459.01 175.05 294.22 180.89 294.22"/><path class="cls-8" d="M179.77,459.27s3,4.76,10.24,4.76l.2,1.48s-9.27.74-12.07-3.7l.18,3.39-3.08-.32,1-6.14Z"/><polygon class="cls-6" points="165.24 316.17 141.7 245.91 192.08 229.85 207.95 304.2 165.24 316.17"/><polygon class="cls-3" points="185.82 290.32 178.12 257.95 179.09 257.72 186.55 289.04 203.1 283.9 203.39 284.85 185.82 290.32"/><polygon class="cls-9" points="147.56 253.98 86.92 244.78 57.2 180.77 48.09 160.3 15.86 125.97 25.43 112.98 64.18 110.59 109.4 118.37 149.22 65.59 170.57 42.97 182.43 94.51 218.56 130.64 222.71 176.25 195.29 232.09 147.56 253.98"/><path class="cls-10" d="M256.74,140.13s-9.92-19-35.39-24.27c0,0,8.5-3.46,11.64-2.68a48.64,48.64,0,0,0-27.85-6.77L190.8,81.78l12.33-.94s-2.36-4-15.25-5.57c1.82-17.28-12.55-42-12.55-42C139.09,43.66,133.78,66.76,133,73.68a172.79,172.79,0,0,0-30,16.71s4.84-9.8,12.65-14.26c0,0-22.75,4.25-34.71,28.43,0,0-43.43-9.7-72,13.14,0,0,3.62,17.55,41.47,49.19,0,0-16.46,24.07-14.74,44.13,0,0,5.87-21.06,11.82-27.61,0,0-16.56,43.82,5.82,63.29,0,0-6-15.4-3.11-21.71,0,0,3.59,15.11,11.88,26.27l-.91-.18a15.4,15.4,0,0,1,2.66,1.75l.2.18a40.12,40.12,0,0,1,6.85-.15c-2.64-4.26-4.95-9.05-4.7-12.52a143.64,143.64,0,0,0,10.28,13.35c.93.2,1.86.37,2.79.64,5.69,1.66,11.14,3.57,16.58,5.73l8-.82c13.31.65,22.26,1.92,36.3.3,12.84-1.48,25.56-2.61,38.45-3.36,6.21-.37,10.07-3.1,16.44-5.59,8.68-3.39,13-8.7.65,2.08a56.16,56.16,0,0,1,10.59-7.3l-.17-.05h0c.71-.52,1.42-1,2.15-1.59a30.67,30.67,0,0,0,5.11-4.94c4.15-4.85,9.72-13.48,12.44-26.85,0,0,1.73,13.63.44,16.26,0,0,12.7-16.78,11.39-32.44,0,0,2.48,13.61,2.19,16.53,0,0,12.59-22.15,10.52-45.2,0,0,2.67,7.54,2.32,9.27,0,0,16.36-16.38-6.06-38.82A13.26,13.26,0,0,1,256.74,140.13ZM52.82,148.76c-15-5.62-28.75-26.34-28.75-26.34,14.37-11.76,43.05-4,43.05-4C57.44,130.75,52.82,148.76,52.82,148.76ZM164,183c-14.46,7.28-33.32-1-42.13-18.46s-9.82-48.67,4.64-56,38.92,12.09,47.72,29.57S178.45,175.76,164,183Zm48-33.34c.77,8.2-2.75,18.91-2.75,18.91s-30.92.83-20.38-8.23S211.24,141.51,212,149.7Zm-34.7-67.8S154.36,74,146.4,73.75c-3.44-.09,3.38-19.26,23-27.45C169.36,46.3,183,69.34,177.31,81.9Z"/><path class="cls-10" d="M49.53,225.86S61.19,265,85.42,275.94c0,0-11.13-14.32-13.77-21.7,0,0,17.31,28.26,65,22.46a56.57,56.57,0,0,1-25.95-10.37s67.24,12.79,101.87-26.6L123.18,243S74.9,218.25,74,218.41,49.53,225.86,49.53,225.86Z"/><path class="cls-10" d="M136.09,170.75s-1.5-39,36.94-22.67C173,148.08,141.24,141.25,136.09,170.75Z"/><path class="cls-9" d="M185.17,139.88s-.89-27.21,23.27-15.89C208.44,124,188.45,119.27,185.17,139.88Z"/><path class="cls-9" d="M136.42,229.49c20.72,3.77,43-3.25,66.35-20.9a1.27,1.27,0,0,0-1.54-2c-23.83,18-46.45,24.7-67.24,19.82-32.34-7.58-49.33-41-49.49-41.32a1.28,1.28,0,0,0-2.29,1.14c.18.34,17.67,34.79,51.18,42.66C134.39,229.09,135.41,229.3,136.42,229.49Z"/><path class="cls-9" d="M71.29,189.39s-.89-28.27,26.55-9.57C97.84,179.82,76.26,168.74,71.29,189.39Z"/><polygon class="cls-11" points="321.21 357.82 320.64 361.2 242.57 327.26 244.49 324.46 321.21 357.82"/><polygon class="cls-11" points="333.75 283.29 333.19 286.66 283.73 267.01 285.66 264.17 333.75 283.29"/><polygon class="cls-12" points="272.25 352.28 264.21 348.73 261.05 300.22 268.16 289.8 272.25 352.28"/><polygon class="cls-12" points="290.69 360.43 282.65 356.88 277.19 276.59 277.19 276.58 283.73 267.01 284.28 266.2 290.69 360.43"/><path class="cls-13" d="M487.61,466.91a5.93,5.93,0,0,0-8.46-8.25A15.92,15.92,0,0,0,481,438.49c-4.45-6.2-13.6-8.35-20.48-5a17.7,17.7,0,0,0-9,10.88,8.62,8.62,0,0,0-2.53-4.16c-2.81-2.51-7.91-2-9.89.92l-.06-.21a14.19,14.19,0,0,0-2.95-12.76c-6.16-7-21.15-6.82-27.37,0a13.61,13.61,0,0,0-3.15,6.08,14.4,14.4,0,0,0-.36,3.33c0,.87.68,2.63.45,3.37l-.06.21c-2-2.89-7.08-3.43-9.89-.92a8.6,8.6,0,0,0-2.52,4.16,17.72,17.72,0,0,0-9-10.88c-6.87-3.33-16-1.18-20.48,5a15.94,15.94,0,0,0,1.88,20.17,5.93,5.93,0,0,0-8.46,8.25Z"/><path class="cls-13" d="M427.37,410.12c.32-30.5-25.19-25.73-25.19-25.73l0,0s-5.31,25.4,25.19,25.73Z"/><path class="cls-13" d="M426.68,410.12c-.33-30.5,25.19-25.73,25.19-25.73l0,0s5.31,25.4-25.19,25.73Z"/><polygon class="cls-13" points="425.73 407.64 424.32 424.99 430.57 424.99 429.76 407.64 425.73 407.64"/></g></g></svg>