<svg id="Layer_1" data-name="Layer 1" xmlns="http://www.w3.org/2000/svg" width="104" height="104" viewBox="0 0 104 104">
  <defs>
    <style>
      .cls-1 {
        fill: #ffa400;
      }

      .cls-2 {
        fill: none;
      }

      .cls-3 {
        fill: #333;
      }
    </style>
  </defs>
  <title>icons-wmyd_pixel_perfect_designer</title>
  <g id="Group_1286" data-name="Group 1286">
    <rect class="cls-1" x="27.12799" y="34.44092" width="17.362" height="17.362" rx="1.335"/>
    <rect class="cls-1" x="52.61798" y="49.28101" width="17.362" height="17.362" rx="1.335"/>
    <rect class="cls-1" x="78.10797" y="33.53296" width="17.362" height="17.362" rx="1.335"/>
    <g>
      <rect class="cls-2" x="29.52832" y="36.84082" width="12.56152" height="12.56152"/>
      <rect class="cls-2" x="55.01807" y="51.68164" width="12.56152" height="12.56152"/>
      <rect class="cls-2" x="80.5083" y="35.93359" width="12.56152" height="12.56152"/>
      <rect class="cls-2" x="2.40039" y="85.20996" width="16.08154" height="16.08105"/>
      <polygon class="cls-2" points="18.482 82.81 18.482 78.4 9.283 78.4 9.283 76 18.482 76 18.482 67.188 12.672 67.188 12.672 64.788 18.482 64.788 18.482 55.976 9.283 55.976 9.283 53.575 18.482 53.575 18.482 44.765 12.672 44.765 12.672 42.364 18.482 42.364 18.482 33.552 9.283 33.552 9.283 31.151 18.482 31.151 18.482 22.34 12.672 22.34 12.672 19.939 18.482 19.939 18.482 11.128 9.283 11.128 9.283 8.728 18.482 8.728 18.482 2.4 2.4 2.4 2.4 82.81 18.482 82.81"/>
      <polygon class="cls-2" points="95.556 91.02 93.156 91.02 93.156 85.21 84.343 85.21 84.343 94.409 81.943 94.409 81.943 85.21 73.132 85.21 73.132 91.02 70.732 91.02 70.732 85.21 61.919 85.21 61.919 94.409 59.519 94.409 59.519 85.21 50.707 85.21 50.707 91.02 48.307 91.02 48.307 85.21 39.495 85.21 39.495 94.409 37.095 94.409 37.095 85.21 28.283 85.21 28.283 91.02 25.883 91.02 25.883 85.21 20.882 85.21 20.882 101.292 101.291 101.292 101.291 85.21 95.556 85.21 95.556 91.02"/>
      <path class="cls-3" d="M102.49121,82.80957H20.88232V1.2002A1.2002,1.2002,0,0,0,19.68213,0H1.2002A1.20021,1.20021,0,0,0,0,1.2002v101.292a1.20021,1.20021,0,0,0,1.2002,1.20019h101.291a1.20021,1.20021,0,0,0,1.2002-1.20019V84.00977A1.20021,1.20021,0,0,0,102.49121,82.80957ZM18.48193,2.40039V8.72754H9.2832v2.40039h9.19873v8.81152h-5.81v2.40039h5.81v8.81153H9.2832v2.40039h9.19873v8.8125h-5.81v2.40039h5.81V53.5752H9.2832v2.40039h9.19873v8.8125h-5.81v2.40039h5.81V76H9.2832v2.40039h9.19873v4.40918H2.40039V2.40039ZM2.40039,101.291V85.21H18.48193V101.291Zm98.89063.001H20.88232V85.21h5.00049v5.80957H28.2832V85.21h8.81153v9.19922h2.40039V85.21h8.81152v5.80957H50.707V85.21h8.81152v9.19922H61.919V85.21h8.813v5.80957h2.40039V85.21h8.81055v9.19922h2.40039V85.21h8.8125v5.80957h2.40039V85.21H101.291Z"/>
      <path class="cls-3" d="M28.46289,51.80273h6.146V73.89355a1.2002,1.2002,0,1,0,2.40039,0V51.80273h6.14551a1.33659,1.33659,0,0,0,1.33544-1.335V35.77637a1.33743,1.33743,0,0,0-1.33544-1.33594H37.00928V21.63672a1.2002,1.2002,0,1,0-2.40039,0V34.44043h-6.146a1.33733,1.33733,0,0,0-1.335,1.33594v14.6914A1.33649,1.33649,0,0,0,28.46289,51.80273Zm1.06543-14.96191H42.08984V49.40234H29.52832Z"/>
      <path class="cls-3" d="M53.95312,66.64355H59.979v7.25a1.2002,1.2002,0,1,0,2.40039,0v-7.25H68.645a1.33732,1.33732,0,0,0,1.335-1.33593V50.61621a1.33649,1.33649,0,0,0-1.335-1.335H62.499V21.63672a1.2002,1.2002,0,1,0-2.40039,0V49.28125H53.95312a1.33659,1.33659,0,0,0-1.33544,1.335V65.30762A1.33742,1.33742,0,0,0,53.95312,66.64355Zm1.065-14.96191H67.57959V64.24316H55.01807Z"/>
      <path class="cls-3" d="M79.44287,50.89551h6.146v22.999a1.2002,1.2002,0,1,0,2.40039,0v-22.999h6.14551a1.33743,1.33743,0,0,0,1.33544-1.33594V34.86816a1.3366,1.3366,0,0,0-1.33544-1.335H87.98926V21.63672a1.2002,1.2002,0,1,0-2.40039,0V33.5332h-6.146a1.3365,1.3365,0,0,0-1.335,1.335V49.55957A1.33733,1.33733,0,0,0,79.44287,50.89551ZM80.5083,35.93359H93.06982V48.49512H80.5083Z"/>
    </g>
  </g>
</svg>
