<svg id="Layer_1" data-name="Layer 1" xmlns="http://www.w3.org/2000/svg" width="138" height="164" viewBox="0 0 138 164">
  <defs>
    <style>
      .cls-1 {
        fill: #faa31b;
      }

      .cls-2 {
        fill: none;
      }

      .cls-3 {
        fill: #333;
      }
    </style>
  </defs>
  <title>icons-bi-production_reporting</title>
  <g id="Group_1274" data-name="Group 1274">
    <g id="Group_1272" data-name="Group 1272">
      <path id="Path_2196" data-name="Path 2196" class="cls-1" d="M101.51254,104.05811l-6.591,7.324-6.673-7.324Z"/>
      <path id="Path_2197" data-name="Path 2197" class="cls-1" d="M36.02853,104.05811l6.673,7.324,6.591-7.324Z"/>
      <path id="Path_2198" data-name="Path 2198" class="cls-1" d="M75.23752,108.30493l-6.591,7.324-6.673-7.324Z"/>
    </g>
    <g id="Group_1273" data-name="Group 1273">
      <path id="Path_2199" data-name="Path 2199" class="cls-1" d="M79.68057,14.5271l7.8,8h-7.66Z"/>
      <g>
        <polygon class="cls-2" points="80.133 15.181 80.133 22.167 87.143 22.167 80.133 15.181"/>
        <rect class="cls-2" x="95.01465" y="131.02637" width="6.25586" height="7.97266" rx="2"/>
        <path class="cls-2" d="M85.9668,5.95947,96.39648,16.4126a1.003,1.003,0,0,1,.292.70654V52.29h3.7666V11.8667L90.61035,2H58.90625V5.666H85.25879A1,1,0,0,1,85.9668,5.95947Z"/>
        <polygon class="cls-2" points="41.66 105.058 38.292 105.058 41.66 108.755 41.66 105.058"/>
        <rect class="cls-2" x="80.41504" y="136.18896" width="6.25684" height="7.97314" rx="2"/>
        <rect class="cls-2" x="50.52051" y="136.18896" width="6.25586" height="7.97314" rx="2"/>
        <rect class="cls-2" x="109.79492" y="136.18896" width="6.25586" height="7.97314" rx="2"/>
        <rect class="cls-2" x="65.63574" y="131.02637" width="6.25586" height="7.97266" rx="2"/>
        <polygon class="cls-2" points="64.237 109.305 67.771 113.183 67.771 109.305 64.237 109.305"/>
        <polygon class="cls-2" points="90.513 105.058 93.88 108.754 93.88 105.058 90.513 105.058"/>
        <polygon class="cls-2" points="47.048 105.058 43.66 105.058 43.66 108.821 47.048 105.058"/>
        <path class="cls-2" d="M88.5625,24.167H79.13281a.99974.99974,0,0,1-1-1V13.71387H47.01367V64.00293H88.5625ZM76.42871,54.312H53.74805a1,1,0,1,1,0-2H76.42871a1,1,0,0,1,0,2ZM52.74805,47.98877a.99973.99973,0,0,1,1-1H76.14453a1,1,0,0,1,0,2H53.74805A.99973.99973,0,0,1,52.74805,47.98877ZM76.42871,43.666H53.74805a1,1,0,0,1,0-2H76.42871a1,1,0,0,1,0,2ZM52.74805,37.34277a.99974.99974,0,0,1,1-1H76.14453a1,1,0,0,1,0,2H53.74805A.99973.99973,0,0,1,52.74805,37.34277Zm23.68066-3.76855H53.74805a1,1,0,0,1,0-2H76.42871a1,1,0,1,1,0,2Z"/>
        <polygon class="cls-2" points="99.268 105.058 95.88 105.058 95.88 108.822 99.268 105.058"/>
        <path class="cls-2" d="M80.01117,12.26056c.02386.01965.05334.02777.07574.05l10.18164,10.147c.01337.01337.0177.03137.03016.04529a.94212.94212,0,0,1,.26355.6629l.00024.00128V57.95605h4.126V17.53271L84.84375,7.666H53.13965v4.04785H79.13281A.99049.99049,0,0,1,80.01117,12.26056Z"/>
        <polygon class="cls-2" points="72.992 109.305 69.771 109.305 69.771 112.885 72.992 109.305"/>
        <rect class="cls-2" x="35.74023" y="131.02637" width="6.25586" height="7.97266" rx="2"/>
        <rect class="cls-2" x="21.1416" y="136.18896" width="6.25586" height="7.97314" rx="2"/>
        <path class="cls-2" d="M34.15,156.78418h9.61786a11.22273,11.22273,0,0,1,2.70874-5.9364.93836.93836,0,0,1-.06646-.1178c-.57813-1.77978-2.417-5.91894-6.99512-5.91894a8.11117,8.11117,0,0,0-7.74036,6.301A11.264,11.264,0,0,1,34.15,156.78418Z"/>
        <path class="cls-2" d="M63.529,156.78418H73.6629a11.22271,11.22271,0,0,1,2.70636-5.93366.93646.93646,0,0,1-.0675-.11956c-.57813-1.77979-2.417-5.919-6.99512-5.919a8.09341,8.09341,0,0,0-7.85217,6.81592A11.32429,11.32429,0,0,1,63.529,156.78418Z"/>
        <path class="cls-2" d="M17.09424,150.85168a.94638.94638,0,0,1-.06787-.12023c-.57813-1.77979-2.417-5.91895-6.99512-5.91895A7.66793,7.66793,0,0,0,4.249,147.42773a9.15621,9.15621,0,0,0-2.18652,7.148l.26953,2.2085H14.38892A11.22306,11.22306,0,0,1,17.09424,150.85168Z"/>
        <path class="cls-2" d="M93.42407,156.78418h9.61774a11.22286,11.22286,0,0,1,2.70673-5.934.93977.93977,0,0,1-.06788-.12018c-.57812-1.77978-2.417-5.91894-6.99511-5.91894a8.11359,8.11359,0,0,0-7.7403,6.29663A11.26239,11.26239,0,0,1,93.42407,156.78418Z"/>
        <path class="cls-2" d="M32.23047,157.78418c0-.02338.01172-.04291.0133-.06586a9.23259,9.23259,0,0,0-2.27789-5.54059,7.54036,7.54036,0,0,0-11.3927,0,9.38518,9.38518,0,0,0-2.24444,7.32862l.21459,1.87182H31.99561l.2146-1.87182a9.84565,9.84565,0,0,0,.04-1.62439A.94162.94162,0,0,1,32.23047,157.78418Z"/>
        <path class="cls-2" d="M91.50488,157.78418c0-.02283.01148-.04187.013-.06433a9.23227,9.23227,0,0,0-2.27783-5.54236,7.54085,7.54085,0,0,0-11.39294.00024,9.38492,9.38492,0,0,0-2.24439,7.32862l.2146,1.87182H91.26959l.2146-1.87182a9.85481,9.85481,0,0,0,.03992-1.62677A.92837.92837,0,0,1,91.50488,157.78418Z"/>
        <path class="cls-2" d="M112.92249,149.57788a7.56459,7.56459,0,0,0-5.69642,2.59985,9.38544,9.38544,0,0,0-2.2445,7.32862l.21472,1.87182h15.45233l.2146-1.87182a9.38518,9.38518,0,0,0-2.24445-7.32862A7.56452,7.56452,0,0,0,112.92249,149.57788Z"/>
        <rect class="cls-2" x="124.78516" y="131.02637" width="6.25684" height="7.97266" rx="2"/>
        <rect class="cls-2" x="6.36133" y="131.02637" width="6.25586" height="7.97266" rx="2"/>
        <path class="cls-2" d="M61.417,157.78418a.97242.97242,0,0,1,.16474-.51715,9.19385,9.19385,0,0,0-2.23688-5.0893,7.54043,7.54043,0,0,0-11.39276,0,9.38492,9.38492,0,0,0-2.24439,7.32862l.2146,1.87182H61.37457l.2146-1.87182a9.90339,9.90339,0,0,0,.06043-1.10431A.98123.98123,0,0,1,61.417,157.78418Z"/>
        <path class="cls-2" d="M127.51465,144.8125c-3.94238,0-6.34082,3.05762-7.27051,5.91895a.958.958,0,0,1-.09845.17462,11.23121,11.23121,0,0,1,2.65735,5.87811h12.41083l.27051-2.21582a9.14971,9.14971,0,0,0-2.18653-7.13965A7.66766,7.66766,0,0,0,127.51465,144.8125Z"/>
        <path class="cls-3" d="M126.78516,140.999H129.042a4.00426,4.00426,0,0,0,4-4v-3.97265a4.00426,4.00426,0,0,0-4-4h-2.25683a4.00426,4.00426,0,0,0-4,4V136.999A4.00426,4.00426,0,0,0,126.78516,140.999Zm-2-7.97265a2.00229,2.00229,0,0,1,2-2H129.042a2.00229,2.00229,0,0,1,2,2V136.999a2.00229,2.00229,0,0,1-2,2h-2.25683a2.00229,2.00229,0,0,1-2-2Z"/>
        <path class="cls-3" d="M99.27051,129.02637H97.01465a4.00426,4.00426,0,0,0-4,4V136.999a4.00426,4.00426,0,0,0,4,4h2.25586a4.00427,4.00427,0,0,0,4-4v-3.97265A4.00427,4.00427,0,0,0,99.27051,129.02637Zm2,7.97265a2.00229,2.00229,0,0,1-2,2H97.01465a2.00229,2.00229,0,0,1-2-2v-3.97265a2.00229,2.00229,0,0,1,2-2h2.25586a2.00229,2.00229,0,0,1,2,2Z"/>
        <path class="cls-3" d="M111.79492,146.16211h2.25586a4.00426,4.00426,0,0,0,4-4V138.189a4.00427,4.00427,0,0,0-4-4h-2.25586a4.00428,4.00428,0,0,0-4,4v3.97315A4.00427,4.00427,0,0,0,111.79492,146.16211Zm-2-7.97315a2.0023,2.0023,0,0,1,2-2h2.25586a2.0023,2.0023,0,0,1,2,2v3.97315a2.00229,2.00229,0,0,1-2,2h-2.25586a2.00229,2.00229,0,0,1-2-2Z"/>
        <path class="cls-3" d="M134.79,146.09766a9.63934,9.63934,0,0,0-7.27539-3.28516c-3.987,0-7.35608,2.53113-8.93707,6.649a9.43027,9.43027,0,0,0-11.24445-.04865c-1.59692-4.20495-4.715-6.60186-8.66516-6.60186a10.12477,10.12477,0,0,0-9.353,6.736,9.43627,9.43627,0,0,0-11.36108-.134c-1.59711-4.20441-4.71509-6.60108-8.66681-6.60108a10.08568,10.08568,0,0,0-9.467,7.0495,9.4571,9.4571,0,0,0-11.75818-.45062c-1.59717-4.20361-4.71491-6.59985-8.66443-6.59985a10.12369,10.12369,0,0,0-9.35315,6.73883,9.43575,9.43575,0,0,0-11.3656-.13587c-1.597-4.20471-4.71411-6.6015-8.64746-6.6015a9.64126,9.64126,0,0,0-7.27441,3.28418,11.15792,11.15792,0,0,0-2.67969,8.71387l.377,3.09472a.999.999,0,0,0,.99219.87891H14.2804c.01055.31549.02484.63159.06134.95l.41784,3.644H33.77936l.41784-3.644c.0365-.31836.05079-.63446.06134-.95h9.40082c.01056.31549.02484.63159.06134.95l.41785,3.644H63.15839l.41778-3.644c.0365-.31836.05078-.63446.06134-.95h9.91687c.01056.31549.02484.63159.06134.95l.41785,3.644H93.05341l.41778-3.644c.0365-.31836.05078-.63446.06134-.95h9.40076c.01056.31549.02484.63159.06134.95l.418,3.644h19.01977l.41785-3.644c.0365-.31836.05078-.63446.06134-.95h13.18805a.999.999,0,0,0,.99219-.87891l.37793-3.102A11.152,11.152,0,0,0,134.79,146.09766ZM98.68555,144.811c4.57812,0,6.417,4.13916,6.99511,5.91894a.93977.93977,0,0,0,.06788.12018,11.22286,11.22286,0,0,0-2.70673,5.934H93.42407a11.26239,11.26239,0,0,0-2.47882-5.67651A8.11359,8.11359,0,0,1,98.68555,144.811Zm-29.37891.001c4.57813,0,6.417,4.13916,6.99512,5.919a.93646.93646,0,0,0,.0675.11956,11.22271,11.22271,0,0,0-2.70636,5.93366H63.529a11.32429,11.32429,0,0,0-2.07452-5.15625A8.09341,8.09341,0,0,1,69.30664,144.812Zm-29.8916-.001c4.57812,0,6.417,4.13916,6.99512,5.91894a.93836.93836,0,0,0,.06646.1178,11.22273,11.22273,0,0,0-2.70874,5.9364H34.15a11.264,11.264,0,0,0-2.47534-5.67218A8.11117,8.11117,0,0,1,39.415,144.811ZM2.0625,154.57568a9.15621,9.15621,0,0,1,2.18652-7.148,7.66793,7.66793,0,0,1,5.78223-2.61523c4.57813,0,6.417,4.13916,6.99512,5.91895a.94638.94638,0,0,0,.06787.12023,11.22306,11.22306,0,0,0-2.70532,5.9325H2.332Zm30.14771,4.93067-.2146,1.87182H16.54333l-.21459-1.87182a9.38518,9.38518,0,0,1,2.24444-7.32862,7.54036,7.54036,0,0,1,11.3927,0,9.23259,9.23259,0,0,1,2.27789,5.54059c-.00158.02295-.0133.04248-.0133.06586a.94162.94162,0,0,0,.01971.09778A9.84565,9.84565,0,0,1,32.21021,159.50635Zm29.379,0-.2146,1.87182H45.9223l-.2146-1.87182a9.38492,9.38492,0,0,1,2.24439-7.32862,7.54043,7.54043,0,0,1,11.39276,0,9.19385,9.19385,0,0,1,2.23688,5.0893.9173.9173,0,0,0,.06787,1.135A9.90339,9.90339,0,0,1,61.58917,159.50635Zm29.895,0-.2146,1.87182H75.81732l-.2146-1.87182a9.38492,9.38492,0,0,1,2.24439-7.32862,7.54085,7.54085,0,0,1,11.39294-.00024,9.23227,9.23227,0,0,1,2.27783,5.54236c-.00152.02246-.013.0415-.013.06433a.92837.92837,0,0,0,.01923.0954A9.85481,9.85481,0,0,1,91.48419,159.50635Zm29.379,0-.2146,1.87182H105.19629l-.21472-1.87182a9.38544,9.38544,0,0,1,2.2445-7.32862,7.54036,7.54036,0,0,1,11.3927,0A9.38518,9.38518,0,0,1,120.86322,159.50635Zm14.62116-4.938-.27051,2.21582H122.803a11.23121,11.23121,0,0,0-2.65735-5.87811.958.958,0,0,0,.09845-.17462c.92969-2.86133,3.32813-5.91895,7.27051-5.91895a7.66766,7.66766,0,0,1,5.7832,2.61621A9.14971,9.14971,0,0,1,135.48438,154.56836Z"/>
        <path class="cls-3" d="M67.63574,129.02637a4.00427,4.00427,0,0,0-4,4V136.999a4.00427,4.00427,0,0,0,4,4H69.8916a4.00426,4.00426,0,0,0,4-4v-3.97265a4.00426,4.00426,0,0,0-4-4Zm4.25586,4V136.999a2.00229,2.00229,0,0,1-2,2H67.63574a2.00229,2.00229,0,0,1-2-2v-3.97265a2.00229,2.00229,0,0,1,2-2H69.8916A2.00229,2.00229,0,0,1,71.8916,133.02637Z"/>
        <path class="cls-3" d="M84.67188,134.189H82.415a4.00427,4.00427,0,0,0-4,4v3.97315a4.00426,4.00426,0,0,0,4,4h2.25684a4.00427,4.00427,0,0,0,4-4V138.189A4.00428,4.00428,0,0,0,84.67188,134.189Zm2,7.97315a2.0023,2.0023,0,0,1-2,2H82.415a2.00229,2.00229,0,0,1-2-2V138.189a2.0023,2.0023,0,0,1,2-2h2.25684a2.0023,2.0023,0,0,1,2,2Z"/>
        <path class="cls-3" d="M37.74023,140.999h2.25586a4.00426,4.00426,0,0,0,4-4v-3.97265a4.00426,4.00426,0,0,0-4-4H37.74023a4.00427,4.00427,0,0,0-4,4V136.999A4.00427,4.00427,0,0,0,37.74023,140.999Zm-2-7.97265a2.0023,2.0023,0,0,1,2-2h2.25586a2.00229,2.00229,0,0,1,2,2V136.999a2.00229,2.00229,0,0,1-2,2H37.74023a2.0023,2.0023,0,0,1-2-2Z"/>
        <path class="cls-3" d="M52.52051,134.189a4.00427,4.00427,0,0,0-4,4v3.97315a4.00426,4.00426,0,0,0,4,4h2.25586a4.00427,4.00427,0,0,0,4-4V138.189a4.00428,4.00428,0,0,0-4-4Zm4.25586,4v3.97315a2.00229,2.00229,0,0,1-2,2H52.52051a2.00229,2.00229,0,0,1-2-2V138.189a2.0023,2.0023,0,0,1,2-2h2.25586A2.0023,2.0023,0,0,1,56.77637,138.189Z"/>
        <path class="cls-3" d="M8.36133,140.999h2.25586a4.00427,4.00427,0,0,0,4-4v-3.97265a4.00427,4.00427,0,0,0-4-4H8.36133a4.00426,4.00426,0,0,0-4,4V136.999A4.00426,4.00426,0,0,0,8.36133,140.999Zm-2-7.97265a2.00229,2.00229,0,0,1,2-2h2.25586a2.00229,2.00229,0,0,1,2,2V136.999a2.00229,2.00229,0,0,1-2,2H8.36133a2.00229,2.00229,0,0,1-2-2Z"/>
        <path class="cls-3" d="M23.1416,146.16211h2.25586a4.00426,4.00426,0,0,0,4-4V138.189a4.00427,4.00427,0,0,0-4-4H23.1416a4.00428,4.00428,0,0,0-4,4v3.97315A4.00427,4.00427,0,0,0,23.1416,146.16211Zm-2-7.97315a2.0023,2.0023,0,0,1,2-2h2.25586a2.0023,2.0023,0,0,1,2,2v3.97315a2.00229,2.00229,0,0,1-2,2H23.1416a2.00229,2.00229,0,0,1-2-2Z"/>
        <path class="cls-3" d="M43.66016,97.61328c0-3.85205,3.28027-7.394,8.56054-9.24365l7.29981-2.55469a17.14443,17.14443,0,0,0,8.25-6.22778v27.71753h2V79.58813a17.14778,17.14778,0,0,0,8.249,6.22681l7.29981,2.55469c5.28027,1.84912,8.56054,5.39111,8.56054,9.24365v5.44483h2V97.61328c0-4.72754-3.793-8.99267-9.90039-11.13135l-7.2998-2.55468c-4.72852-1.6543-8.72364-5.96924-8.72364-9.42334V70.11523h-.18554a1,1,0,0,0-2,0H67.584v4.38868c0,3.4541-3.99511,7.76953-8.72363,9.42334l-7.2998,2.55468c-6.10743,2.13868-9.90039,6.4043-9.90039,11.13135v5.44483h2Z"/>
        <path class="cls-3" d="M88.249,103.05811a.99983.99983,0,0,0-.73925,1.67334l6.67285,7.32373a1.0003,1.0003,0,0,0,.73926.32666h.00292a.9999.9999,0,0,0,.74024-.33106l6.59082-7.32373a1.00019,1.00019,0,0,0-.74316-1.66894H88.249Zm11.01856,2-3.3877,3.76409-.96289,1.06989-1.03711-1.13831-3.36718-3.69567h8.75488Z"/>
        <path class="cls-3" d="M41.96191,112.05518a1.00033,1.00033,0,0,0,.73926.32666h.00293a.9999.9999,0,0,0,.74024-.33106l6.59179-7.32373a1.00019,1.00019,0,0,0-.74316-1.66894H36.02832a.99983.99983,0,0,0-.73926,1.67334Zm-.30175-6.99707h5.38769l-3.38769,3.76324-.96387,1.07074-1.03613-1.13721L38.292,105.05811Z"/>
        <path class="cls-3" d="M61.97363,107.30469a.99969.99969,0,0,0-.73925,1.67334l6.67285,7.32422a1.0003,1.0003,0,0,0,.73925.32666h.00293a.9999.9999,0,0,0,.74024-.33106l6.59082-7.32422a1.00019,1.00019,0,0,0-.74317-1.66894H61.97363Zm11.01856,2-3.22168,3.58-1.12891,1.25446-.87109-.95618-3.53321-3.87829h8.75489Z"/>
        <path class="cls-3" d="M76.42871,31.57422H53.74805a1,1,0,0,0,0,2H76.42871a1,1,0,1,0,0-2Z"/>
        <path class="cls-3" d="M53.74805,38.34277H76.14453a1,1,0,0,0,0-2H53.74805a1,1,0,0,0,0,2Z"/>
        <path class="cls-3" d="M76.42871,41.666H53.74805a1,1,0,0,0,0,2H76.42871a1,1,0,0,0,0-2Z"/>
        <path class="cls-3" d="M53.74805,48.98877H76.14453a1,1,0,0,0,0-2H53.74805a1,1,0,1,0,0,2Z"/>
        <path class="cls-3" d="M76.42871,52.312H53.74805a1,1,0,1,0,0,2H76.42871a1,1,0,0,0,0-2Z"/>
        <path class="cls-3" d="M46.01367,66.00293H89.5625a.99974.99974,0,0,0,1-1V59.95605h5.126a.99974.99974,0,0,0,1-1V54.29h4.7666a.99974.99974,0,0,0,1-1V11.45312a1.003,1.003,0,0,0-.292-.70654L91.7334.29346A1,1,0,0,0,91.02539,0H57.90625a.99974.99974,0,0,0-1,1V5.666h-4.7666a.99973.99973,0,0,0-1,1v5.04785h-5.126a.99974.99974,0,0,0-1,1V65.00293A.99974.99974,0,0,0,46.01367,66.00293ZM80.13281,15.1806,87.14307,22.167H80.13281ZM58.90625,2h31.7041l9.84473,9.8667V52.29h-3.7666V17.11914a1.003,1.003,0,0,0-.292-.70654L85.9668,5.95947a1,1,0,0,0-.708-.29345H58.90625Zm-5.7666,5.666h31.7041l9.84473,9.86669V57.95605h-4.126V23.167l-.00024-.00128a.94212.94212,0,0,0-.26355-.6629c-.01246-.01392-.01679-.03192-.03016-.04529l-10.18164-10.147c-.0224-.02222-.05188-.03034-.07574-.05a.99049.99049,0,0,0-.87836-.54669H53.13965Zm-6.126,6.04785H78.13281V23.167a.99974.99974,0,0,0,1,1H88.5625V64.00293H47.01367Z"/>
      </g>
    </g>
  </g>
</svg>
