<svg id="Layer_1" data-name="Layer 1" xmlns="http://www.w3.org/2000/svg" width="109" height="111" viewBox="0 0 109 111">
  <defs>
    <style>
      .cls-1 {
        fill: #faa31b;
      }

      .cls-2 {
        fill: none;
      }

      .cls-3 {
        fill: #333;
      }
    </style>
  </defs>
  <title>icons-wmyd-architecture_agnostic</title>
  <g id="Group_1289" data-name="Group 1289">
    <circle class="cls-1" cx="100.18998" cy="54.69188" r="8.645"/>
    <circle class="cls-1" cx="87.31895" cy="20.98191" r="8.645"/>
    <circle class="cls-1" cx="19.92399" cy="20.98191" r="8.645"/>
    <circle class="cls-1" cx="8.645" cy="54.69188" r="8.645"/>
    <circle class="cls-1" cx="54.736" cy="101.61692" r="8.645"/>
    <circle class="cls-1" cx="54.736" cy="8.645" r="8.645"/>
    <circle class="cls-1" cx="19.92399" cy="87.35984" r="8.645"/>
    <g>
      <path class="cls-2" d="M60.20569,25.56024c2.57812,2.72363,4.70947,7.13794,6.1358,12.65167H78.85681A29.8431,29.8431,0,0,0,60.20569,25.56024Z"/>
      <path class="cls-2" d="M63.86847,38.21191C61.60138,29.9035,57.75909,24.92383,54.082,24.92383s-7.51935,4.97967-9.78644,13.28808Z"/>
      <path class="cls-2" d="M60.98047,8.64453a6.24463,6.24463,0,1,0-6.24414,6.24512A6.25079,6.25079,0,0,0,60.98047,8.64453Z"/>
      <path class="cls-2" d="M41.82257,38.21191c1.42633-5.51373,3.55768-9.928,6.1358-12.65167A29.8431,29.8431,0,0,0,29.30725,38.21191Z"/>
      <path class="cls-2" d="M43.70654,40.6123a65.0888,65.0888,0,0,0-1.41925,12.87891H65.87677A65.0888,65.0888,0,0,0,64.45752,40.6123Z"/>
      <path class="cls-2" d="M87.31934,27.22656a6.24463,6.24463,0,1,0-6.24512-6.24511A6.25162,6.25162,0,0,0,87.31934,27.22656Z"/>
      <path class="cls-2" d="M80.30219,40.6123H66.906a68.2386,68.2386,0,0,1,1.371,12.87891h15.543A29.56321,29.56321,0,0,0,80.30219,40.6123Z"/>
      <path class="cls-2" d="M19.92383,81.11523A6.24463,6.24463,0,1,0,26.169,87.35938,6.25163,6.25163,0,0,0,19.92383,81.11523Z"/>
      <path class="cls-2" d="M78.85754,71.17285H66.34186c-1.42627,5.5141-3.5578,9.92877-6.13611,12.65265A29.84361,29.84361,0,0,0,78.85754,71.17285Z"/>
      <path class="cls-2" d="M42.28723,55.8916a65.08686,65.08686,0,0,0,1.419,12.88086H64.45782a65.08536,65.08536,0,0,0,1.419-12.88086Z"/>
      <path class="cls-2" d="M54.082,84.46191c3.67725,0,7.51965-4.98016,9.78674-13.28906H44.29529C46.56238,79.48175,50.40479,84.46191,54.082,84.46191Z"/>
      <path class="cls-2" d="M41.8222,71.17285H29.30652A29.84364,29.84364,0,0,0,47.95831,83.8255C45.38,81.10162,43.24847,76.687,41.8222,71.17285Z"/>
      <path class="cls-2" d="M66.90625,68.77246H80.30286A29.56,29.56,0,0,0,83.82019,55.8916H68.2771A68.23983,68.23983,0,0,1,66.90625,68.77246Z"/>
      <path class="cls-2" d="M26.169,20.98145a6.24512,6.24512,0,1,0-6.24512,6.24511A6.25163,6.25163,0,0,0,26.169,20.98145Z"/>
      <path class="cls-2" d="M100.19043,48.44727a6.24463,6.24463,0,1,0,6.24414,6.24414A6.25163,6.25163,0,0,0,100.19043,48.44727Z"/>
      <path class="cls-2" d="M8.64453,48.44727a6.24463,6.24463,0,1,0,6.24512,6.24414A6.25079,6.25079,0,0,0,8.64453,48.44727Z"/>
      <path class="cls-2" d="M41.25806,40.6123H27.86188A29.56308,29.56308,0,0,0,24.344,53.49121H39.887A68.23857,68.23857,0,0,1,41.25806,40.6123Z"/>
      <path class="cls-2" d="M48.49121,101.61719a6.24463,6.24463,0,1,0,6.24512-6.24512A6.25163,6.25163,0,0,0,48.49121,101.61719Z"/>
      <path class="cls-2" d="M41.25781,68.77246A68.24065,68.24065,0,0,1,39.887,55.8916H24.34387a29.55987,29.55987,0,0,0,3.51734,12.88086Z"/>
      <path class="cls-3" d="M100.19043,46.04688a8.65174,8.65174,0,0,0-8.55219,7.44433H86.22046a32.05282,32.05282,0,0,0-9.0539-21.16949l4.66529-4.66529A8.687,8.687,0,1,0,80.208,25.88574l-4.77393,4.77393a32.03184,32.03184,0,0,0-19.49756-8.07892v-5.384a8.64551,8.64551,0,1,0-2.40039,0v5.34057a32.0495,32.0495,0,0,0-21.83679,9.082l-5.1239-5.12317a8.6647,8.6647,0,1,0-1.77625,1.61835L30.03845,33.353A32.03017,32.03017,0,0,0,21.9436,53.49121H17.19672a8.64551,8.64551,0,1,0,0,2.40039h4.74676A32.01478,32.01478,0,0,0,29.48969,75.4L24.7182,80.17145a8.693,8.693,0,1,0,1.7923,1.60223L31.106,77.17822a32.0655,32.0655,0,0,0,22.43017,9.67023V93.065a8.64454,8.64454,0,1,0,2.40039,0v-6.26A32.04535,32.04535,0,0,0,75.98,78.22906l4.22467,4.22468.00257.00256a8.58509,8.58509,0,0,0-1.49958,4.23535c-.017.22113-.03387.44232-.03387.66773,0,.16033.01538.31677.02405.475a8.645,8.645,0,0,0,8.42035,8.16034c.0675.00159.13323.01019.20111.01019.12475,0,.24615-.01349.36969-.01873a8.63747,8.63747,0,0,0-.28376-17.267c-.02893-.00031-.05694-.00434-.08593-.00434h-.00019a8.60615,8.60615,0,0,0-5.4881,1.97071l-.0028-.00281L77.6759,76.5304a32.04094,32.04094,0,0,0,8.54468-20.6388h5.41766a8.64052,8.64052,0,1,0,8.55219-9.84472ZM19.92383,93.60449A6.24463,6.24463,0,1,1,26.169,87.35938,6.25246,6.25246,0,0,1,19.92383,93.60449ZM68.277,53.49121A68.2386,68.2386,0,0,0,66.906,40.6123H80.30219a29.56321,29.56321,0,0,1,3.51788,12.87891ZM54.082,84.46191c-3.67724,0-7.51965-4.98016-9.78674-13.28906H63.86877C61.60168,79.48175,57.75928,84.46191,54.082,84.46191ZM66.34186,71.17285H78.85754A29.84361,29.84361,0,0,1,60.20575,83.8255C62.78406,81.10162,64.91559,76.687,66.34186,71.17285ZM43.70624,68.77246a65.08686,65.08686,0,0,1-1.419-12.88086h23.5896a65.08536,65.08536,0,0,1-1.419,12.88086Zm-1.419-15.28125A65.0888,65.0888,0,0,1,43.70654,40.6123h20.751a65.0888,65.0888,0,0,1,1.41925,12.87891ZM54.082,24.92383c3.67706,0,7.51935,4.97967,9.78644,13.28808H44.29559C46.56268,29.9035,50.405,24.92383,54.082,24.92383Zm6.12366.63641A29.8431,29.8431,0,0,1,78.85681,38.21191H66.34149C64.91516,32.69818,62.78381,28.28387,60.20569,25.56024ZM87.31934,14.7373a6.24463,6.24463,0,1,1-6.24512,6.24415A6.2508,6.2508,0,0,1,87.31934,14.7373ZM48.49121,8.64453a6.24463,6.24463,0,1,1,6.24512,6.24512A6.25163,6.25163,0,0,1,48.49121,8.64453Zm-.53284,16.91571c-2.57812,2.72363-4.70947,7.13794-6.1358,12.65167H29.30725A29.8431,29.8431,0,0,1,47.95837,25.56024ZM13.67871,20.98145a6.24512,6.24512,0,1,1,6.24512,6.24511A6.25163,6.25163,0,0,1,13.67871,20.98145ZM27.86188,40.6123H41.25806a68.23857,68.23857,0,0,0-1.371,12.87891H24.344A29.56308,29.56308,0,0,1,27.86188,40.6123ZM8.64453,60.93652a6.24463,6.24463,0,1,1,6.24512-6.24511A6.25162,6.25162,0,0,1,8.64453,60.93652ZM39.887,55.8916a68.24065,68.24065,0,0,0,1.37085,12.88086H27.86121A29.55987,29.55987,0,0,1,24.34387,55.8916ZM29.30652,71.17285H41.8222c1.42627,5.5141,3.5578,9.92877,6.13611,12.65265A29.84364,29.84364,0,0,1,29.30652,71.17285Zm31.674,30.44434a6.24463,6.24463,0,1,1-6.24414-6.24512A6.25079,6.25079,0,0,1,60.98047,101.61719Zm26.33887-20.502a6.24463,6.24463,0,1,1-6.24512,6.24415A6.2508,6.2508,0,0,1,87.31934,81.11523ZM80.30286,68.77246H66.90625A68.23983,68.23983,0,0,0,68.2771,55.8916H83.82019A29.56,29.56,0,0,1,80.30286,68.77246Zm19.88757-7.83594a6.24463,6.24463,0,1,1,6.24414-6.24511A6.25246,6.25246,0,0,1,100.19043,60.93652Z"/>
      <path class="cls-1" d="M80.20471,82.45374a8.59035,8.59035,0,0,0-1.497,4.23791,8.58509,8.58509,0,0,1,1.49958-4.23535Z"/>
      <path class="cls-1" d="M78.69788,87.83435a8.63288,8.63288,0,0,0,8.42035,8.16034A8.645,8.645,0,0,1,78.69788,87.83435Z"/>
      <path class="cls-1" d="M87.31915,78.71484H87.319a8.609,8.609,0,0,0-5.49072,1.9679l.0028.00281A8.60615,8.60615,0,0,1,87.31915,78.71484Z"/>
      <path class="cls-1" d="M87.31934,93.60449a6.24463,6.24463,0,1,0-6.24512-6.24511A6.25162,6.25162,0,0,0,87.31934,93.60449Z"/>
      <path class="cls-1" d="M95.96387,87.35938A8.64878,8.64878,0,0,1,87.689,95.98615a8.63747,8.63747,0,0,0-.28376-17.267A8.652,8.652,0,0,1,95.96387,87.35938Z"/>
    </g>
  </g>
</svg>
