<svg id="Layer_1" data-name="Layer 1" xmlns="http://www.w3.org/2000/svg" width="88" height="101" viewBox="0 0 88 101">
  <defs>
    <style>
      .cls-1 {
        fill: #faa31b;
      }

      .cls-2 {
        fill: none;
      }

      .cls-3 {
        fill: #333;
      }
    </style>
  </defs>
  <title>icons-wmyd-api_first_approach</title>
  <g id="Group_1291" data-name="Group 1291">
    <path class="cls-1" d="M49.169,64.16626l-3.43115-6.17773-1.04895-1.88868-1.04907,1.88843-3.432,6.178a31.52218,31.52218,0,0,1-7.35766-1.96338l.11755-7.07373.03589-2.16016-1.85278,1.11109-6.06495,3.63647a31.908,31.908,0,0,1-5.38464-5.38427l3.63672-6.064,1.111-1.85254-2.15991.0354-7.07385.1167a31.52721,31.52721,0,0,1-1.96265-7.35766l6.17712-3.43116L21.31792,32.73l-1.88831-1.04907L13.25249,28.249A31.52952,31.52952,0,0,1,15.215,20.89136l7.07386.11743,2.16015.03613-1.11108-1.853L19.70122,13.1272a31.93343,31.93343,0,0,1,5.38464-5.38477l6.06482,3.63672,1.85291,1.11108-.03589-2.16015-.11755-7.07349A31.56163,31.56163,0,0,1,40.20793,1.2937l3.43189,6.177,1.04907,1.88819L45.73784,7.4707l3.431-6.177a31.56706,31.56706,0,0,1,7.35767,1.96289L56.41,10.33032l-.03564,2.15991L58.227,11.37915l6.06384-3.63672a31.93269,31.93269,0,0,1,5.38464,5.38477l-3.63684,6.06469-1.11108,1.853,2.16016-.03613,7.074-.11743a31.53633,31.53633,0,0,1,1.9635,7.35766l-6.1781,3.43189L68.05852,32.73l1.88867,1.04907,6.178,3.43116a31.53161,31.53161,0,0,1-1.96362,7.35766l-7.074-.1167-2.16-.0354,1.11121,1.85254,3.63671,6.064a31.90283,31.90283,0,0,1-5.38464,5.38427L58.227,54.08008,56.37432,52.969,56.41,55.12891l.11658,7.074A31.5276,31.5276,0,0,1,49.169,64.16626ZM44.39678,16.73511a15.70258,15.70258,0,1,0,11.10376,4.59912A15.60011,15.60011,0,0,0,44.39678,16.73511Z"/>
    <g>
      <path class="cls-2" d="M44.68792,38.04785A5.31787,5.31787,0,1,0,39.37,32.72949,5.32389,5.32389,0,0,0,44.68792,38.04785Z"/>
      <path class="cls-2" d="M85.46379,81.93262V36.707a1.96081,1.96081,0,0,0-1.958-1.959H74.16338l3.25549,1.8081a32.7227,32.7227,0,0,1-2.463,9.22486l-7.88806-.12989,4.056,6.76294a33.14738,33.14738,0,0,1-6.751,6.751l-6.76306-4.05591.13,7.88794a32.71941,32.71941,0,0,1-9.225,2.46289L44.68877,58.571,40.86187,65.46a32.72786,32.72786,0,0,1-9.2251-2.46289l.1311-7.88794-6.764,4.05591a33.14708,33.14708,0,0,1-6.751-6.751l4.0559-6.76294-7.88793.12989a32.72106,32.72106,0,0,1-2.462-9.22486l3.25507-1.8081H4.35784a1.96009,1.96009,0,0,0-1.95752,1.959V81.93262Z"/>
      <path class="cls-2" d="M44.39678,46.94214A14.50354,14.50354,0,1,0,29.89385,32.438,14.50374,14.50374,0,0,0,44.39678,46.94214Zm.29114-21.93042a7.71826,7.71826,0,1,1-7.71827,7.71777A7.72659,7.72659,0,0,1,44.68792,25.01172Z"/>
      <path class="cls-2" d="M21.24688,32.73a2.37444,2.37444,0,0,1-.066.49011,1.16416,1.16416,0,0,1,.06616.32776,1.19025,1.19025,0,0,1-1.10047,1.18006c-.04724.03076-.08453.07257-.13427.10021l-5.44617,3.02515a30.32779,30.32779,0,0,0,1.46667,5.501l6.23645-.10279.03968-.00024A2.39989,2.39989,0,0,1,24.367,46.8855l-3.20556,5.34521a30.72543,30.72543,0,0,0,4.026,4.02588l5.34619-3.20581a2.40007,2.40007,0,0,1,3.63391,2.09815l-.10364,6.23632a30.31247,30.31247,0,0,0,5.501,1.46729l3.02588-5.447a2.40013,2.40013,0,0,1,4.19616.00024l3.02515,5.44678a30.32191,30.32191,0,0,0,5.50086-1.46729l-.10279-6.23657a2.40027,2.40027,0,0,1,3.634-2.0979l5.34509,3.20557a30.70888,30.70888,0,0,0,4.026-4.02564L65.00957,46.8855a2.39991,2.39991,0,0,1,2.05811-3.63428l.03967.00024,6.23669.10279a30.33594,30.33594,0,0,0,1.46741-5.501l-5.4469-3.02515c-.03973-.02209-.06915-.056-.1073-.08007H67.893a1.2002,1.2002,0,0,1,0-2.40039h.28839a2.38293,2.38293,0,0,1,1.183-1.71558l5.447-3.02612A30.33049,30.33049,0,0,0,73.344,22.105l-6.23632.10376-.04017.00024a2.4,2.4,0,0,1-2.0581-3.63427l3.20581-5.34595a30.72725,30.72725,0,0,0-4.026-4.02612L58.84417,12.4082a2.39984,2.39984,0,0,1-3.634-2.09765l.10279-6.23609a30.34992,30.34992,0,0,0-5.501-1.467L46.78679,8.05347a2.40005,2.40005,0,0,1-4.19592,0L39.565,2.60742a30.3597,30.3597,0,0,0-5.5011,1.4668l.10364,6.23608a2.40018,2.40018,0,0,1-3.63391,2.09815L25.18755,9.20264a30.7208,30.7208,0,0,0-4.02612,4.02612L24.36711,18.575a2.4,2.4,0,0,1-2.05822,3.634l-.04-.00024L16.03264,22.105a30.3293,30.3293,0,0,0-1.46655,5.50122l5.44629,3.02588A2.39992,2.39992,0,0,1,21.24688,32.73Zm7.57617-6.87207A16.95188,16.95188,0,1,1,27.49382,32.438,16.84592,16.84592,0,0,1,28.82305,25.85791Z"/>
      <path class="cls-2" d="M2.40032,84.333v2.9541a1.9604,1.9604,0,0,0,1.95752,1.959h79.148a1.9605,1.9605,0,0,0,1.958-1.959V84.333Z"/>
      <path class="cls-2" d="M37.316,91.64648a10.97471,10.97471,0,0,1-2.01868,6.31446h17.272a10.97383,10.97383,0,0,1-2.01776-6.31446Z"/>
      <path class="cls-3" d="M83.50579,32.34766H71.21807l6.2008-3.44458a32.73312,32.73312,0,0,0-2.463-9.2251l-7.88806.1311,4.056-6.76391a33.17273,33.17273,0,0,0-6.751-6.75122L57.60979,10.3501l.13-7.88794A32.75094,32.75094,0,0,0,48.51482,0L44.68877,6.88794,40.86187,0a32.7594,32.7594,0,0,0-9.2251,2.46216l.1311,7.88794L25.00383,6.294a33.17243,33.17243,0,0,0-6.751,6.75122l4.0559,6.76391-7.88793-.1311a32.73148,32.73148,0,0,0-2.462,9.2251l6.19989,3.44458H4.35686A4.36468,4.36468,0,0,0-.00007,36.707V87.28809a4.36311,4.36311,0,0,0,4.35791,4.35839H34.91057a8.55333,8.55333,0,0,1-3.12012,6.585,1.20032,1.20032,0,0,0,.75928,2.12988H55.31682a1.20032,1.20032,0,0,0,.75928-2.12988,8.55251,8.55251,0,0,1-3.11926-6.585H83.50725a4.36468,4.36468,0,0,0,4.35693-4.35937V36.70605A4.3632,4.3632,0,0,0,83.50579,32.34766ZM16.03264,22.105l6.23621.10376.04.00024a2.4,2.4,0,0,0,2.05822-3.634l-3.20568-5.34619a30.7208,30.7208,0,0,1,4.02612-4.02612l5.34607,3.20581a2.40007,2.40007,0,0,0,3.63391-2.09815l-.10364-6.23608a30.3597,30.3597,0,0,1,5.5011-1.4668l3.02588,5.44605a2.40005,2.40005,0,0,0,4.19592,0l3.02515-5.44605a30.34992,30.34992,0,0,1,5.501,1.467l-.10279,6.23609a2.4,2.4,0,0,0,3.634,2.09765l5.34509-3.20556a30.72725,30.72725,0,0,1,4.026,4.02612l-3.20581,5.346a2.4,2.4,0,0,0,2.0581,3.63427l.04017-.00024L73.344,22.105a30.33049,30.33049,0,0,1,1.46741,5.501l-5.447,3.02612a2.38293,2.38293,0,0,0-1.183,1.71558H67.893a1.2002,1.2002,0,0,0,0,2.40039h1.36426c.03815.02411.06757.058.1073.08007l5.4469,3.02515a30.33594,30.33594,0,0,1-1.46741,5.501l-6.23669-.10279-.03967-.00024a2.39991,2.39991,0,0,0-2.05811,3.63428l3.20569,5.34521a30.70888,30.70888,0,0,1-4.026,4.02564l-5.34509-3.20557a2.4,2.4,0,0,0-3.634,2.0979l.10279,6.23657a30.32191,30.32191,0,0,1-5.50086,1.46729l-3.02515-5.44678a2.40013,2.40013,0,0,0-4.19616-.00024l-3.02588,5.447a30.31247,30.31247,0,0,1-5.501-1.46729l.10364-6.23632a2.40018,2.40018,0,0,0-3.63391-2.09815l-5.34619,3.20581a30.72543,30.72543,0,0,1-4.026-4.02588L24.367,46.8855a2.39989,2.39989,0,0,0-2.0581-3.63428l-.03968.00024-6.23645.10279a30.32779,30.32779,0,0,1-1.46667-5.501l5.44617-3.02515c.04974-.02764.087-.06945.13427-.10021A1.19025,1.19025,0,0,0,21.247,33.54785a1.16416,1.16416,0,0,0-.06616-.32776,2.37444,2.37444,0,0,0,.066-.49011,2.39992,2.39992,0,0,0-1.2345-2.0979L14.56609,27.6062A30.3293,30.3293,0,0,1,16.03264,22.105ZM4.35784,34.74805h10.856l-3.25507,1.8081a32.72106,32.72106,0,0,0,2.462,9.22486l7.88793-.12989-4.0559,6.76294a33.14708,33.14708,0,0,0,6.751,6.751l6.764-4.05591-.1311,7.88794A32.72786,32.72786,0,0,0,40.86187,65.46l3.8269-6.88892L48.51482,65.46a32.71941,32.71941,0,0,0,9.225-2.46289l-.13-7.88794L64.37285,59.165a33.14738,33.14738,0,0,0,6.751-6.751l-4.056-6.76294,7.88806.12989a32.7227,32.7227,0,0,0,2.463-9.22486l-3.25549-1.8081h9.34241a1.96081,1.96081,0,0,1,1.958,1.959V81.93262H2.40032V36.707A1.96009,1.96009,0,0,1,4.35784,34.74805ZM52.56926,97.96094h-17.272A10.97471,10.97471,0,0,0,37.316,91.64648H50.5515A10.97383,10.97383,0,0,0,52.56926,97.96094Zm30.93653-8.71485H4.35784a1.9604,1.9604,0,0,1-1.95752-1.959V84.333H85.46379v2.9541A1.9605,1.9605,0,0,1,83.50579,89.24609Z"/>
      <path class="cls-3" d="M32.44438,44.39087a16.86,16.86,0,1,0-3.62133-5.37256A16.8429,16.8429,0,0,0,32.44438,44.39087Zm11.9524-26.45581A14.50354,14.50354,0,1,1,29.89385,32.438,14.5027,14.5027,0,0,1,44.39678,17.93506Z"/>
      <path class="cls-3" d="M44.68792,40.44824a7.71826,7.71826,0,1,0-7.71827-7.71875A7.72743,7.72743,0,0,0,44.68792,40.44824Zm0-13.03613A5.31787,5.31787,0,1,1,39.37,32.72949,5.32368,5.32368,0,0,1,44.68792,27.41211Z"/>
    </g>
  </g>
</svg>
