<svg id="Layer_1" data-name="Layer 1" xmlns="http://www.w3.org/2000/svg" width="131" height="182" viewBox="0 0 131 182">
  <defs>
    <style>
      .cls-1 {
        fill: #faa31b;
      }

      .cls-2 {
        fill: none;
      }

      .cls-3 {
        fill: #333;
      }
    </style>
  </defs>
  <title>icons-bi-embedded_bi</title>
  <path id="Path_2197-2" data-name="Path 2197-2" class="cls-1" d="M58.007,102.26416l6.673,7.324,6.591-7.324Z"/>
  <g id="Group_1284" data-name="Group 1284">
    <g id="icons">
      <rect id="Rectangle_1822" data-name="Rectangle 1822" class="cls-1" x="77.373" y="27.95801" width="18.667" height="28.5"/>
      <path id="Path_2203" data-name="Path 2203" class="cls-1" d="M48.29,30.42212l-1.012,4.553-2.192,4.553-2.529,3.541-2.7,1.981,5.438,8.094,3.5-1.644,4.89-6.74512,3.2-8.26294,1.518-6.5769Z"/>
    </g>
    <g id="Layer_3" data-name="Layer 3">
      <g id="Group_1283" data-name="Group 1283">
        <path id="Path_2206" data-name="Path 2206" class="cls-1" d="M52.239,139.929l-.491,2.208-1.063,2.208-1.227,1.717-1.308.96094,2.637,3.925,1.7-.8,2.372-3.271,1.554-4.00708.736-3.189Z"/>
        <path id="Path_2207" data-name="Path 2207" class="cls-1" d="M98.952,166.5061a4.766,4.766,0,1,0-8.594,2.84107h0c.064.08691,3.826,4.76489,3.826,4.76489l3.828-4.76611h0a4.70677,4.70677,0,0,0,.943-2.84107Zm-4.767,1.05909a1.094,1.094,0,1,1,1.093-1.095v.001A1.094,1.094,0,0,1,94.185,167.56519Z"/>
        <g id="Group_1282" data-name="Group 1282">
          <circle class="cls-1" cx="71.91499" cy="141.25201" r="3.013"/>
          <circle class="cls-1" cx="90.3" cy="138.92706" r="3.013"/>
          <circle class="cls-1" cx="98.56" cy="128.82696" r="3.013"/>
          <circle class="cls-1" cx="81.161" cy="133.57819" r="3.013"/>
          <g>
            <path class="cls-2" d="M44.12109,127.56067l.3111-.31458c-.10266-.01086-.2077-.01257-.3111-.02087Z"/>
            <path class="cls-2" d="M47.34656,130.99835q.34314.17148.66906.36951l2.01648-2.0658c-.18853-.12829-.38763-.24109-.58343-.359Z"/>
            <path class="cls-2" d="M35.64014,139.481a7.48584,7.48584,0,1,0,7.48584-7.48584A7.49445,7.49445,0,0,0,35.64014,139.481Z"/>
            <path class="cls-2" d="M46.77,127.72607l-2.34265,2.36908q.45775.06327.90069.16846l-.04437-.04535,2.26007-2.20972C47.288,127.90967,47.03363,127.808,46.77,127.72607Z"/>
            <path class="cls-2" d="M55.38135,138.479c-.00757-.0932-.00733-.18835-.01691-.28094l-.28424.28094Z"/>
            <path class="cls-2" d="M51.308,134.70459c.11676.19928.2251.40314.3274.61121l2.07733-2.07734c-.12195-.206-.2395-.415-.37287-.61309Z"/>
            <path class="cls-2" d="M52.29175,137.07886a9.39646,9.39646,0,0,1,.22357,1.12359l2.37109-2.34393c-.07452-.24145-.16772-.47424-.25647-.70917l-2.13385,2.13385Z"/>
            <path class="cls-2" d="M32.04639,164.23828a3.378,3.378,0,0,1-.15235,1.92188,2.2819,2.2819,0,0,0-.11084.44433,1.57089,1.57089,0,0,0,.76319.59326,3.27055,3.27055,0,0,1,.6709.415,1.85665,1.85665,0,0,1,.63513,1.42572A15.65753,15.65753,0,0,1,38.34,166.97a36.73489,36.73489,0,0,0,4.48-2.56l.00323-.00219v-3.96051H29.65088v.73626A4.11727,4.11727,0,0,1,32.04639,164.23828Zm1.50781-2.05371a1.53012,1.53012,0,0,1,1.59814-.66943l.83057.15869a.9087.9087,0,0,0,.23828-.01709,1.63322,1.63322,0,0,1,1.57324-.79346c.21241.02588,2.08008.28662,2.25684,1.49219.15869,1.08887-.87158,1.60351-1.42529,1.87988a1.705,1.705,0,0,0-.58936.61279.96133.96133,0,0,1-.06787.103c-.02051.03809-.05225.11914-.09033.20752a2.50583,2.50583,0,0,1-1.98145,1.76172c-.07959.00732-.15576.01123-.22851.01123a1.72233,1.72233,0,0,1-1.19385-.43359,2.17361,2.17361,0,0,1-.59277-1.67285,1.00852,1.00852,0,0,1,.03466-.26172.2559.2559,0,0,0-.05468-.23731.979.979,0,0,1-.0625-.07861A1.721,1.721,0,0,1,33.5542,162.18457Z"/>
            <path class="cls-2" d="M36.04541,164.35791a3.24734,3.24734,0,0,1,.28174-.54883c.03223-.0542.06592-.10791.10058-.16015a2.76311,2.76311,0,0,1-.66113.01318,2.24245,2.24245,0,0,1,.15625.95508C35.97461,164.51953,36.01758,164.42139,36.04541,164.35791Z"/>
            <path class="cls-2" d="M39.13,168.81a1.04383,1.04383,0,0,1-.16.06,13.9931,13.9931,0,0,0-1.58.54l-.0144.007a5.86975,5.86975,0,0,1,.98425.47608,2.90441,2.90441,0,0,0,2.32325-.20752l.25146-.13477a3.05612,3.05612,0,0,1,1.88867-.53314v-2.23981L42.82,166.78A35.83524,35.83524,0,0,1,39.13,168.81Z"/>
            <path class="cls-2" d="M30.10254,164.71a.91237.91237,0,0,1-.02344-.1084,2.08671,2.08671,0,0,0-.42822-.96887v8.66663c.439-.32929.99731-.74793,1.57556-1.20661a5.17489,5.17489,0,0,0,.6344-1.99652c-.05811-.0332-.14648-.07812-.2168-.11328a3.4163,3.4163,0,0,1-1.63427-1.47363,2.35642,2.35642,0,0,1-.02637-1.94043A1.55146,1.55146,0,0,0,30.10254,164.71Z"/>
            <path class="cls-2" d="M42.63867,171.00781c-.14355-.01416-.23437.02393-.75879.30567l-.249.13281a4.89988,4.89988,0,0,1-4.06006.28857,1.00971,1.00971,0,0,1-.19482-.09765,3.87809,3.87809,0,0,0-1.90137-.61768,3.50294,3.50294,0,0,0-1.16242.12225c-.16076.123-.32147.24585-.48217.37818-.8996.78967-1.84919,1.53918-2.59894,2.09918H42.82324v-2.59546Z"/>
            <path class="cls-2" d="M43.126,151.78711a12.22722,12.22722,0,0,0,5.80664-1.46124l-1.61115-2.34973a9.4804,9.4804,0,1,1-5.20038-17.9264v-2.824a12.301,12.301,0,0,0,1.00489,24.5614Z"/>
            <path class="cls-2" d="M90.2998,139.93994a1.01294,1.01294,0,1,0-1.01269-1.01269A1.014,1.014,0,0,0,90.2998,139.93994Z"/>
            <path class="cls-2" d="M81.16113,134.59131a1.01294,1.01294,0,1,0-1.01318-1.01319A1.014,1.014,0,0,0,81.16113,134.59131Z"/>
            <path class="cls-2" d="M98.56006,129.83984a1.01294,1.01294,0,1,0-1.01318-1.01269A1.01359,1.01359,0,0,0,98.56006,129.83984Z"/>
            <path class="cls-2" d="M108.03711,119.20117v-6.04883H21.23877l.00012,6.04883Zm-73.35889-4.083H36.2749a1,1,0,0,1,0,2H34.67822a1,1,0,1,1,0-2Zm-5.14843,0H31.127a1,1,0,1,1,0,2H29.52979a1,1,0,0,1,0-2Zm-5.14795,0H25.979a1,1,0,0,1,0,2H24.38184a1,1,0,1,1,0-2Z"/>
            <path class="cls-2" d="M50.10284,133.07635l1.97144-2.01739c-.15741-.16724-.31812-.3302-.48462-.4884l-1.96814,2.01623C49.78827,132.744,49.94781,132.90759,50.10284,133.07635Z"/>
            <rect class="cls-2" x="70.66831" y="149.35191" width="2.53716" height="1.59305" transform="translate(-78.64978 221.1634) rotate(-89.64871)"/>
            <path class="cls-2" d="M52.55823,140.479a9.47615,9.47615,0,0,1-3.54566,6.427l1.59357,2.32421a12.28406,12.28406,0,0,0,4.77545-8.75122Z"/>
            <rect class="cls-2" x="87.8907" y="148.2318" width="4.85092" height="1.5928" transform="translate(-59.26297 238.42896) rotate(-89.64871)"/>
            <rect class="cls-2" x="92.29737" y="144.39879" width="12.55296" height="1.59305" transform="translate(-47.2231 242.87711) rotate(-89.64871)"/>
            <path class="cls-2" d="M71.915,142.26514a1.01294,1.01294,0,1,0-1.01318-1.01319A1.01443,1.01443,0,0,0,71.915,142.26514Z"/>
            <rect class="cls-2" x="77.42693" y="146.89159" width="7.49623" height="1.5928" transform="translate(-67.00786 227.95602) rotate(-89.64871)"/>
            <path class="cls-2" d="M21.239,121.20117l.00128,58.63086h86.79688V121.20117ZM71.915,138.23926a2.97525,2.97525,0,0,1,1.44183.38391l4.941-4.15375a2.97115,2.97115,0,0,1-.1499-.8913,3.01294,3.01294,0,0,1,6.02588,0,2.97182,2.97182,0,0,1-.14594.87855L87.9812,137.027a2.90794,2.90794,0,0,1,3.09076-1.00006l4.85272-5.76941a2.974,2.974,0,0,1-.3778-1.43036,3.01757,3.01757,0,1,1,1.85552,2.78l-4.67218,5.55475a2.98616,2.98616,0,0,1,.58277,1.76538,3.01121,3.01121,0,0,1-6.02222.03619l-4.444-2.88934a3.00332,3.00332,0,0,1-3.3584.00781l-4.78876,4.02576a3.01156,3.01156,0,1,1-2.78454-1.86841Zm29.499-.30371-.0874,14.55273a1.00007,1.00007,0,0,1-1,.99414h-.00586l-3.59277-.02148a1.00007,1.00007,0,0,1-.99414-1.00586l.08691-14.55274a.99931.99931,0,0,1,.29736-.70556.95473.95473,0,0,1,.7085-.28858l3.59326.02149a1.00026,1.00026,0,0,1,.99414,1.00586Zm-8.28125,7.68359-.04052,6.85107a.99943.99943,0,0,1-1,.99415h-.00586l-3.59278-.02149a1.00007,1.00007,0,0,1-.99414-1.00586l.04053-6.85058a1.00006,1.00006,0,0,1,1-.99414h.00586l3.59277.021a.99944.99944,0,0,1,.99414,1.00586Zm-18.38574,2.27734-.02734,4.53711a1.00007,1.00007,0,0,1-1,.99414h-.00586l-3.59278-.02148a1.00007,1.00007,0,0,1-.99414-1.00586l.02686-4.53711a1.00087,1.00087,0,0,1,.29687-.70557.921.921,0,0,1,.709-.28857l3.59326.02148a1.00027,1.00027,0,0,1,.99414,1.00586ZM43.126,125.1748a14.28752,14.28752,0,0,1,3.02856.32953l.05737-.058.09961.09851a14.26376,14.26376,0,1,1-3.18554-.37Zm1.69726,49.44434a1,1,0,0,1-1,1H28.65088a1,1,0,0,1-1-1V159.44727a1,1,0,0,1,1-1H43.82324a1,1,0,0,1,1,1Zm19.36865,0a1,1,0,0,1-1,1H48.02a1,1,0,0,1-1-1V159.44727a1,1,0,0,1,1-1H63.19189a1,1,0,0,1,1,1Zm19.21094-.227a1,1,0,0,1-1,1H67.231a1,1,0,0,1-1-1V159.21973a1,1,0,0,1,1-1H82.40283a1,1,0,0,1,1,1Zm.54-21.93945a1.00007,1.00007,0,0,1-1,.99414H82.937l-3.59277-.02149a1.00026,1.00026,0,0,1-.99414-1.00586l.05713-9.49609a1.03657,1.03657,0,0,1,1.00586-.99414l3.59277.02148A1.00027,1.00027,0,0,1,84,142.95654ZM102.771,174.39209a1.00005,1.00005,0,0,1-1,1H86.59912a1.00005,1.00005,0,0,1-1-1V159.21973a1.00005,1.00005,0,0,1,1-1H101.771a1.00005,1.00005,0,0,1,1,1Z"/>
            <path class="cls-2" d="M94.186,162.68359h-.00147a3.82433,3.82433,0,0,0-3.82324,3.82569,3.84883,3.84883,0,0,0,.75293,2.27685c.10449.13526,1.99365,2.48535,3.06933,3.82325l3.09473-3.853a3.77339,3.77339,0,0,0,.73486-2.18164c-.00146-.023-.00244-.04541-.00244-.06836A3.829,3.829,0,0,0,94.186,162.68359Zm.00048,5.82325h-.00146a2.03345,2.03345,0,1,1,.00146,0Z"/>
            <path class="cls-2" d="M68.231,173.39209H81.40283V160.21973H68.231ZM78.408,164.48a1.211,1.211,0,1,1-1.211,1.211A1.211,1.211,0,0,1,78.408,164.48Zm-4.185,6.50714a1.211,1.211,0,1,1-1.211-1.211A1.211,1.211,0,0,1,74.223,170.98712Zm-2.785-8.928a1.211,1.211,0,1,1-1.211,1.211A1.211,1.211,0,0,1,71.438,162.05908Z"/>
            <path class="cls-2" d="M60.82666,172.08154l1.3457-1.47949.01953.01776v-6.817l-.36767.10736-.56055-1.91993.92822-.27105v-1.27191H49.02v.45892l1.75586,1.82672-1.4419,1.38574-.314-.32654v6.8064l.70459-.20593.56152,1.91992-1.26611.37012v.93652H62.19189v-.29663Zm-.79541-9.73144L60.5918,164.27l-2.46387.71973-.56055-1.91993Zm-9.80811,2.69433,1.44239-1.38574.85156.88623.12109-.03515.06787.23193.231.24023-.12549.12061.38721,1.32715-.70264.20508a1.00053,1.00053,0,0,1-1.00146-.26709Zm1.29493,6.90821-.56055-1.91993,2.46387-.71972.56054,1.91992Zm2.35254-7.80323,2.46435-.71972.56055,1.91992-2.46436.71973Zm1.34423,6.72364-.561-1.91993,2.46387-.72021.561,1.91992Zm2.82569-1.32373.63965-.70411-.32911-.97216a1.148,1.148,0,0,1,1.03418.1958l1.83643,1.66894L59.877,171.21826Z"/>
            <path class="cls-2" d="M94.18311,166.31836a.15318.15318,0,0,0-.15186.15283c0,.168.30518.168.30518,0A.15348.15348,0,0,0,94.18311,166.31836Z"/>
            <path class="cls-2" d="M87.59912,173.39209h4.79779c-1.41308-1.75787-2.74689-3.4184-2.7973-3.48682a5.74242,5.74242,0,0,1-1.12109-3.395,5.7073,5.7073,0,0,1,5.70507-5.70947H94.186a5.71374,5.71374,0,0,1,5.707,5.62256c.00244.02588.00341.05225.00341.07861a5.68738,5.68738,0,0,1-1.13134,3.40918l-2.79547,3.481H100.771V160.21973H87.59912Z"/>
            <path class="cls-3" d="M43.126,153.78711a14.30013,14.30013,0,0,0,3.18554-28.24231l-.09961-.09851-.05737.058A14.30379,14.30379,0,1,0,43.126,153.78711Zm7.48016-4.55689L49.01257,146.906a9.47615,9.47615,0,0,0,3.54566-6.427h2.82336A12.28406,12.28406,0,0,1,50.60614,149.23022ZM52.07428,131.059l-1.97144,2.01739c-.155-.16876-.31457-.33239-.48132-.48956l1.96814-2.01623C51.75616,130.72876,51.91687,130.89172,52.07428,131.059Zm3.30707,7.42H55.0802l.28424-.28094C55.374,138.29065,55.37378,138.3858,55.38135,138.479Zm-.49494-2.62048-2.37109,2.34393a9.39646,9.39646,0,0,0-.22357-1.12359l.20434.20434,2.13385-2.13385C54.71869,135.38428,54.81189,135.61707,54.88641,135.85852Zm-3.251-.54272c-.1023-.20807-.21064-.41193-.3274-.61121l2.03186-2.07922c.13337.19812.25092.4071.37287.61309Zm-3.61976-3.94794q-.32675-.19767-.66906-.36951l2.10211-2.0553c.1958.11792.3949.23072.58343.359Zm-2.68756-1.10425q-.44292-.10584-.90069-.16846L46.77,127.72607c.26361.08191.51794.1836.77374.28247l-2.26007,2.20972ZM43.126,131.99512a7.48609,7.48609,0,1,1-7.48584,7.48584A7.494,7.494,0,0,1,43.126,131.99512Zm.99511-4.43445v-.33545c.1034.0083.20844.01.3111.02087Zm-2-.335v2.824a9.48413,9.48413,0,1,0,5.20038,17.9264l1.61115,2.34973a12.30037,12.30037,0,1,1-6.81153-23.10016Z"/>
            <path class="cls-3" d="M99.89648,166.502c0-.02636-.001-.05273-.00341-.07861a5.71374,5.71374,0,0,0-5.707-5.62256h-.00245a5.7073,5.7073,0,0,0-5.70507,5.70947,5.74242,5.74242,0,0,0,1.12109,3.395c.05041.06842,1.38422,1.72895,2.7973,3.48682h3.57276l2.79547-3.481A5.68738,5.68738,0,0,0,99.89648,166.502Zm-2.61816,2.2544-3.09473,3.853c-1.07568-1.3379-2.96484-3.688-3.06933-3.82325a3.84883,3.84883,0,0,1-.75293-2.27685,3.82433,3.82433,0,0,1,3.82324-3.82569H94.186a3.829,3.829,0,0,1,3.8247,3.82276c0,.023.001.04541.00244.06836A3.77339,3.77339,0,0,1,97.27832,168.75635Z"/>
            <path class="cls-3" d="M94.18164,164.43555a2.03565,2.03565,0,0,0,.00342,4.07129h.00146a2.03565,2.03565,0,0,0-.00488-4.07129Zm-.15039,2.03564a.15259.15259,0,1,1,.30518,0C94.33643,166.63916,94.03125,166.63916,94.03125,166.47119Z"/>
            <path class="cls-3" d="M43.82324,158.44727H28.65088a1,1,0,0,0-1,1v15.17187a1,1,0,0,0,1,1H43.82324a1,1,0,0,0,1-1V159.44727A1,1,0,0,0,43.82324,158.44727Zm-1,10.57037a3.05612,3.05612,0,0,0-1.88867.53314l-.25146.13477a2.90441,2.90441,0,0,1-2.32325.20752,5.86975,5.86975,0,0,0-.98425-.47608l.0144-.007a13.9931,13.9931,0,0,1,1.58-.54,1.04383,1.04383,0,0,0,.16-.06,35.83524,35.83524,0,0,0,3.69-2.03l.00323-.00214Zm-12.81347-1.50836a3.4163,3.4163,0,0,0,1.63427,1.47363c.07032.03516.15869.08008.2168.11328a5.17489,5.17489,0,0,1-.6344,1.99652c-.57825.45868-1.1366.87732-1.57556,1.20661v-8.66663a2.08671,2.08671,0,0,1,.42822.96887.91237.91237,0,0,0,.02344.1084,1.55146,1.55146,0,0,1-.11914.85889A2.35642,2.35642,0,0,0,30.00977,167.50928Zm12.81347-7.062v3.96051L42.82,164.41a36.73489,36.73489,0,0,1-4.48,2.56,15.65753,15.65753,0,0,0-4.48761,2.06854,1.85665,1.85665,0,0,0-.63513-1.42572,3.27055,3.27055,0,0,0-.6709-.415,1.57089,1.57089,0,0,1-.76319-.59326,2.2819,2.2819,0,0,1,.11084-.44433,3.378,3.378,0,0,0,.15235-1.92188,4.11727,4.11727,0,0,0-2.39551-3.05475v-.73626ZM31.23108,173.61914c.74975-.56,1.69934-1.30951,2.59894-2.09918.1607-.13233.32141-.25519.48217-.37818a3.50294,3.50294,0,0,1,1.16242-.12225,3.87809,3.87809,0,0,1,1.90137.61768,1.00971,1.00971,0,0,0,.19482.09765,4.89988,4.89988,0,0,0,4.06006-.28857l.249-.13281c.52442-.28174.61524-.31983.75879-.30567l.18457.01587v2.59546Z"/>
            <path class="cls-3" d="M63.19189,158.44727H48.02a1,1,0,0,0-1,1v15.17187a1,1,0,0,0,1,1H63.19189a1,1,0,0,0,1-1V159.44727A1,1,0,0,0,63.19189,158.44727ZM49.02,173.61914v-.93652l1.26611-.37012-.56152-1.91992-.70459.20593v-6.8064l.314.32654,1.4419-1.38574L49.02,160.90619v-.45892H62.19189v1.27191l-.92822.27105.56055,1.91993.36767-.10736v6.817l-.01953-.01776-1.3457,1.47949,1.36523,1.241v.29663Z"/>
            <path class="cls-3" d="M82.40283,158.21973H67.231a1,1,0,0,0-1,1v15.17236a1,1,0,0,0,1,1H82.40283a1,1,0,0,0,1-1V159.21973A1,1,0,0,0,82.40283,158.21973Zm-1,15.17236H68.231V160.21973H81.40283Z"/>
            <path class="cls-3" d="M101.771,158.21973H86.59912a1.00005,1.00005,0,0,0-1,1v15.17236a1.00005,1.00005,0,0,0,1,1H101.771a1.00005,1.00005,0,0,0,1-1V159.21973A1.00005,1.00005,0,0,0,101.771,158.21973Zm-1,15.17236H87.59912V160.21973H100.771Z"/>
            <path class="cls-3" d="M33.86182,164.32617a.2559.2559,0,0,1,.05468.23731,1.00852,1.00852,0,0,0-.03466.26172,2.17361,2.17361,0,0,0,.59277,1.67285,1.72233,1.72233,0,0,0,1.19385.43359c.07275,0,.14892-.00391.22851-.01123a2.50583,2.50583,0,0,0,1.98145-1.76172c.03808-.08838.06982-.16943.09033-.20752a.96133.96133,0,0,0,.06787-.103,1.705,1.705,0,0,1,.58936-.61279c.55371-.27637,1.584-.791,1.42529-1.87988-.17676-1.20557-2.04443-1.46631-2.25684-1.49219a1.63322,1.63322,0,0,0-1.57324.79346.9087.9087,0,0,1-.23828.01709l-.83057-.15869a1.53012,1.53012,0,0,0-1.59814.66943,1.721,1.721,0,0,0,.24512,2.063A.979.979,0,0,0,33.86182,164.32617Zm2.56591-.67724c-.03466.05224-.06835.106-.10058.16015a3.24734,3.24734,0,0,0-.28174.54883c-.02783.06348-.0708.16162-.12256.25928a2.24245,2.24245,0,0,0-.15625-.95508A2.76311,2.76311,0,0,0,36.42773,163.64893Z"/>
            <path class="cls-3" d="M52.21582,166.6748a1.00236,1.00236,0,0,0,.28027-.04l.70264-.20508-.38721-1.32715.12549-.12061-.231-.24023-.06787-.23193-.12109.03515-.85156-.88623-1.44239,1.38574,1.27149,1.32325A1.00008,1.00008,0,0,0,52.21582,166.6748Z"/>
            <rect class="cls-3" x="54.0994" y="163.74947" width="2.5673" height="2.00008" transform="translate(-43.96554 22.13275) rotate(-16.28069)"/>
            <rect class="cls-3" x="57.79617" y="162.66988" width="2.56684" height="2.00008" transform="matrix(0.95992, -0.28026, 0.28026, 0.95992, -43.50283, 23.11713)"/>
            <rect class="cls-3" x="51.18631" y="169.63277" width="2.56684" height="2.00008" transform="matrix(0.95992, -0.28026, 0.28026, 0.95992, -45.71917, 21.54368)"/>
            <rect class="cls-3" x="54.88277" y="168.55287" width="2.56697" height="2.00022" transform="translate(-45.30283 22.56017) rotate(-16.2893)"/>
            <path class="cls-3" d="M59.38525,168.06885a1.148,1.148,0,0,0-1.03418-.1958l.32911.97216-.63965.70411,1.83642,1.66894,1.34473-1.48047Z"/>
            <circle class="cls-3" cx="71.43799" cy="163.27008" r="1.211"/>
            <circle class="cls-3" cx="78.40802" cy="165.69098" r="1.211"/>
            <circle class="cls-3" cx="73.01202" cy="170.98712" r="1.211"/>
            <path class="cls-3" d="M70.15967,146.86914a.921.921,0,0,0-.709.28857,1.00087,1.00087,0,0,0-.29687.70557l-.02686,4.53711a1.00007,1.00007,0,0,0,.99414,1.00586l3.59278.02148h.00586a1.00007,1.00007,0,0,0,1-.99414l.02734-4.53711a1.00027,1.00027,0,0,0-.99414-1.00586Zm2.56592,4.55274-1.59278-.00977L71.148,148.875l1.59326.00977Z"/>
            <path class="cls-3" d="M88.5459,144.59229H88.54a1.00006,1.00006,0,0,0-1,.99414l-.04053,6.85058a1.00007,1.00007,0,0,0,.99414,1.00586l3.59278.02149h.00586a.99943.99943,0,0,0,1-.99415l.04052-6.85107a.99944.99944,0,0,0-.99414-1.00586Zm2.55224,6.86621-1.59277-.00977.02881-4.85059,1.59277.00928Z"/>
            <path class="cls-3" d="M96.82666,136.9082a.95473.95473,0,0,0-.7085.28858.99931.99931,0,0,0-.29736.70556l-.08691,14.55274a1.00007,1.00007,0,0,0,.99414,1.00586l3.59277.02148h.00586a1.00007,1.00007,0,0,0,1-.99414l.0874-14.55273a1.00026,1.00026,0,0,0-.99414-1.00586Zm2.50586,14.56836-1.59277-.00976.07519-12.55274,1.59326.00977Z"/>
            <path class="cls-3" d="M83.00586,141.95068l-3.59277-.02148a1.03657,1.03657,0,0,0-1.00586.99414l-.05713,9.49609a1.00026,1.00026,0,0,0,.99414,1.00586l3.59277.02149h.00586a1.00007,1.00007,0,0,0,1-.99414L84,142.95654a1.00027,1.00027,0,0,0-.99414-1.00586Zm-1.05713,9.49024-1.59277-.00977.04541-7.49609,1.59277.00976Z"/>
            <path class="cls-3" d="M71.915,144.26514a3.00729,3.00729,0,0,0,2.78454-4.15747l4.78876-4.02576a3.00332,3.00332,0,0,0,3.3584-.00781l4.444,2.88934a3.01117,3.01117,0,1,0,5.43945-1.80157l4.67218-5.55475a3.0851,3.0851,0,1,0-1.47772-1.34961L91.072,136.02692A2.90794,2.90794,0,0,0,87.9812,137.027l-3.95331-2.57031a2.97182,2.97182,0,0,0,.14594-.87855,3.01294,3.01294,0,0,0-6.02588,0,2.97115,2.97115,0,0,0,.1499.8913l-4.941,4.15375a2.97525,2.97525,0,0,0-1.44183-.38391,3.01294,3.01294,0,1,0,0,6.02588Zm26.645-16.45118a1.01294,1.01294,0,1,1-1.01318,1.01319A1.014,1.014,0,0,1,98.56006,127.814Zm-8.26026,10.1001a1.01294,1.01294,0,1,1-1.01269,1.01319A1.01443,1.01443,0,0,1,90.2998,137.91406Zm-9.13867-5.34863a1.01294,1.01294,0,1,1-1.01318,1.01269A1.01359,1.01359,0,0,1,81.16113,132.56543ZM71.915,140.23926a1.01294,1.01294,0,1,1-1.01318,1.01269A1.014,1.014,0,0,1,71.915,140.23926Z"/>
            <path class="cls-3" d="M110.10205,120.20117a.98058.98058,0,0,0-.06494-.32153v-6.7273a2.002,2.002,0,0,0-2-2H21.24023a2.002,2.002,0,0,0-2,2V179.832a2.002,2.002,0,0,0,2,2h86.79688a2.002,2.002,0,0,0,2-2V120.52271A.98063.98063,0,0,0,110.10205,120.20117Zm-88.86182-7.04883h86.79688v6.04883H21.23889l-.00012-6.04883Zm0,66.67969L21.239,121.20117h86.79816V179.832Z"/>
            <path class="cls-3" d="M24.38184,117.11816H25.979a1,1,0,0,0,0-2H24.38184a1,1,0,1,0,0,2Z"/>
            <path class="cls-3" d="M29.52979,117.11816H31.127a1,1,0,1,0,0-2H29.52979a1,1,0,0,0,0,2Z"/>
            <path class="cls-3" d="M34.67822,117.11816H36.2749a1,1,0,0,0,0-2H34.67822a1,1,0,1,0,0,2Z"/>
          </g>
        </g>
      </g>
      <g>
        <circle class="cls-2" cx="29.49902" cy="29.5" r="17.56104"/>
        <path class="cls-2" d="M30.8269,10.00623a19.45174,19.45174,0,0,1,4.26764.75824l6.22718-6.0893a27.30736,27.30736,0,0,0-3.76953-1.46991Z"/>
        <path class="cls-2" d="M56.97473,28.50336A27.44316,27.44316,0,0,0,56.386,23.73l-4.82068,4.76514h5.36877C56.94849,28.49512,56.96045,28.50275,56.97473,28.50336Z"/>
        <path class="cls-2" d="M48.26471,24.02142a19.45194,19.45194,0,0,1,.73065,4.20118l6.81128-6.73291a27.29328,27.29328,0,0,0-1.39355-3.61664Z"/>
        <path class="cls-2" d="M43.17731,5.65784,37.18549,11.517a19.54244,19.54244,0,0,1,3.321,1.82574l5.60413-5.74066A27.59172,27.59172,0,0,0,43.17731,5.65784Z"/>
        <path class="cls-2" d="M45.80182,18.71375a19.52611,19.52611,0,0,1,1.73053,3.21191l5.91693-5.91693a27.5835,27.5835,0,0,0-2.00867-3.06519Z"/>
        <path class="cls-2" d="M56.93408,30.49512H49.00964A19.53152,19.53152,0,0,1,40.78748,45.447l4.49395,6.55359A27.48434,27.48434,0,0,0,56.975,30.48688C56.96063,30.48749,56.94861,30.49512,56.93408,30.49512Z"/>
        <path class="cls-2" d="M30.48877,7.50409l4.8255-4.87982a27.43973,27.43973,0,0,0-4.8255-.59918Z"/>
        <path class="cls-2" d="M42.10608,14.5672a19.72763,19.72763,0,0,1,2.49444,2.5144l5.56531-5.695a27.7395,27.7395,0,0,0-2.504-2.5105Z"/>
        <rect class="cls-2" x="97.03906" y="28.95801" width="31.68506" height="27"/>
        <rect class="cls-2" x="78.23642" y="28.95801" width="16.80264" height="27"/>
        <path class="cls-2" d="M78.24,5.47v6.05h50.48V5.47Zm4.74,3.97h-1.6a1,1,0,0,1,0-2h1.6a1,1,0,1,1,0,2Zm5.14,0H86.53a1,1,0,0,1,0-2h1.59a1,1,0,1,1,0,2Zm5.15,0h-1.6a1,1,0,0,1,0-2h1.6a1,1,0,1,1,0,2Z"/>
        <rect class="cls-2" x="78.23578" y="13.521" width="50.48834" height="13.43701"/>
        <path class="cls-2" d="M43.60693,53.09485l-4.50634-6.57166a19.54439,19.54439,0,1,1-10.61182-36.533V2.02563A27.49617,27.49617,0,1,0,43.60693,53.09485Z"/>
        <path class="cls-3" d="M130.72,12.2V5.47a1.99943,1.99943,0,0,0-2-2H78.24a1.99947,1.99947,0,0,0-2,2V55.96a1.99943,1.99943,0,0,0,2,2h50.48a1.99939,1.99939,0,0,0,2-2V12.84a.83172.83172,0,0,0,.07-.32A.87446.87446,0,0,0,130.72,12.2ZM95.04,55.96H78.24v-27h16.8Zm33.68,0H97.04v-27h31.68Zm0-29H78.24V13.52h50.48Zm0-15.44H78.24V5.47h50.48Z"/>
        <path class="cls-3" d="M81.37988,9.438h1.59717a1,1,0,1,0,0-2H81.37988a1,1,0,0,0,0,2Z"/>
        <path class="cls-3" d="M86.52686,9.438H88.124a1,1,0,1,0,0-2H86.52686a1,1,0,0,0,0,2Z"/>
        <path class="cls-3" d="M91.6748,9.438H93.272a1,1,0,1,0,0-2H91.6748a1,1,0,0,0,0,2Z"/>
        <path class="cls-3" d="M98.81,58.03v1.42a8.98369,8.98369,0,0,1-8.97,8.98H78.45a14.8217,14.8217,0,0,0-13.81,9.5,14.82507,14.82507,0,0,0-13.82-9.5H39.44a8.9922,8.9922,0,0,1-8.98-8.98v-.47a29.60835,29.60835,0,1,0-2-.01v.48A10.99163,10.99163,0,0,0,39.44,70.43H50.82A12.83108,12.83108,0,0,1,63.64,83.24v18.02h2V83.24A12.829,12.829,0,0,1,78.45,70.43H89.84a10.98308,10.98308,0,0,0,10.97-10.98V58.03ZM45.28,52l-4.49-6.55A19.54186,19.54186,0,0,0,49.01,30.5h7.92c.02,0,.03-.01.04-.01A27.458,27.458,0,0,1,45.28,52ZM56.97,28.5h-5.4l4.82-4.77A26.81548,26.81548,0,0,1,56.97,28.5Zm-1.16-7.01L49,28.22a19.44043,19.44043,0,0,0-.74-4.2l6.15-6.15A26.82235,26.82235,0,0,1,55.81,21.49Zm-4.37-8.55a27.00289,27.00289,0,0,1,2.01,3.07l-5.92,5.92a19.16489,19.16489,0,0,0-1.73-3.22Zm-1.27-1.55L44.6,17.08A19.67836,19.67836,0,0,0,42.11,14.57l5.55-5.69A27.01741,27.01741,0,0,1,50.17,11.39ZM46.11,7.6l-5.6,5.74a19.42389,19.42389,0,0,0-3.32-1.82l5.99-5.86A27.5236,27.5236,0,0,1,46.11,7.6ZM41.32,4.68l-6.23,6.08a19.88429,19.88429,0,0,0-4.26-.75l6.72-6.8A26.06755,26.06755,0,0,1,41.32,4.68ZM30.49,2.03a27.26021,27.26021,0,0,1,4.82.59L30.49,7.5ZM47.06,29.5A17.56,17.56,0,1,1,29.5,11.94,17.58327,17.58327,0,0,1,47.06,29.5ZM2,29.5A27.52287,27.52287,0,0,1,28.49,2.03V9.99A19.54716,19.54716,0,1,0,39.1,46.52l4.51,6.57A27.48137,27.48137,0,0,1,2,29.5Z"/>
        <path class="cls-3" d="M72.18,101.86a.99643.99643,0,0,0-.91-.6H58.01a1.01051,1.01051,0,0,0-.92.6.99884.99884,0,0,0,.18,1.08l6.67,7.32a1.00087,1.00087,0,0,0,.74.33,1.22524,1.22524,0,0,0,.74-.33l6.59-7.33A.96171.96171,0,0,0,72.18,101.86Zm-6.54,5.17-.49.55-.47.52-.48-.52-.56-.62-3.37-3.7h8.76Z"/>
      </g>
    </g>
  </g>
</svg>
