<svg id="Layer_1" data-name="Layer 1" xmlns="http://www.w3.org/2000/svg" width="87" height="105" viewBox="0 0 87 105">
  <defs>
    <style>
      .cls-1 {
        fill: #faa31b;
      }

      .cls-2 {
        fill: none;
      }

      .cls-3 {
        fill: #333;
      }
    </style>
  </defs>
  <title>icons-wmyd-multi_tenant_support</title>
  <g id="Group_1287" data-name="Group 1287">
    <rect class="cls-1" x="70.92307" y="36.80908" width="10.72" height="12.514" rx="2.5"/>
    <path class="cls-1" d="M85.15287,66.11816H67.41428l-.315-2.74585A10.70049,10.70049,0,0,1,69.665,55.01807a8.77207,8.77207,0,0,1,13.23737,0,10.70064,10.70064,0,0,1,2.56555,8.35424Z"/>
    <rect class="cls-1" x="70.92307" y="73.61914" width="10.72" height="12.514" rx="2.5"/>
    <path class="cls-1" d="M85.15287,102.92725H67.41428l-.315-2.74488a10.94964,10.94964,0,0,1,.43243-4.56762,10.43367,10.43367,0,0,1,2.13361-3.7876,8.7712,8.7712,0,0,1,13.23657,0,10.43352,10.43352,0,0,1,2.13361,3.7876,10.94945,10.94945,0,0,1,.43237,4.56762Z"/>
    <rect class="cls-1" x="70.92307" width="10.72" height="12.514" rx="2.5"/>
    <g id="Path_2218" data-name="Path 2218">
      <path class="cls-1" d="M85.15293,29.30811H67.41422l-.315-2.74463a10.9507,10.9507,0,0,1,.43249-4.56763,10.43367,10.43367,0,0,1,2.13361-3.7876,8.77121,8.77121,0,0,1,13.23657,0,10.43352,10.43352,0,0,1,2.13361,3.7876,10.9495,10.9495,0,0,1,.43237,4.56763Z"/>
      <g>
        <path class="cls-2" d="M68.98828,23.52441h-.59479a9.8045,9.8045,0,0,0-.10205,2.9021l.193,1.68164H84.08276l.193-1.68139a9.75831,9.75831,0,0,0-.38477-4.07031,9.22347,9.22347,0,0,0-1.88464-3.34937,7.57124,7.57124,0,0,0-11.44544,0,9.10285,9.10285,0,0,0-1.57263,2.51306Z"/>
        <rect class="cls-2" x="12.41211" y="2.40039" width="13.86035" height="18.34668" rx="2.09961"/>
        <path class="cls-2" d="M35.35846,40.73853A19.11094,19.11094,0,0,0,31.45,33.79932a16.04419,16.04419,0,0,0-24.21582,0,19.11094,19.11094,0,0,0-3.90845,6.93921,20.0731,20.0731,0,0,0-.79229,8.373l1.702,14.8418A26.06756,26.06756,0,0,0,5.6,70.419,8.51168,8.51168,0,0,0,8.832,74.55273,2.40013,2.40013,0,0,1,9.88916,76.542V100.7522a1.6,1.6,0,0,0,1.53192,1.585h5.561a2.88913,2.88913,0,0,0,.64636-.07056,2.38731,2.38731,0,0,1,.55786-.403c-.00177-.02668-.01544-.04938-.01544-.07648V84.832a1.2002,1.2002,0,0,1,2.40039,0v16.95508a1.116,1.116,0,0,1-.02417.11993,2.39093,2.39093,0,0,1,.49341.37445,3.81558,3.81558,0,0,0,.71759.05567h5.505a1.6,1.6,0,0,0,1.532-1.585V76.542a2.40013,2.40013,0,0,1,1.05719-1.98926A8.51194,8.51194,0,0,0,33.08417,70.419a26.06571,26.06571,0,0,0,1.36456-6.46534l1.702-14.84228A20.07251,20.07251,0,0,0,35.35846,40.73853Z"/>
        <path class="cls-2" d="M73.42383,2.40039h5.71973A.09961.09961,0,0,1,79.24316,2.5v7.51465a.09961.09961,0,0,1-.09961.09961h-5.7207a.09961.09961,0,0,1-.09961-.09961V2.501A.10059.10059,0,0,1,73.42383,2.40039Z"/>
        <path class="cls-2" d="M69.15234,99.17871h-.91546c.008.28815.0213.57678.05456.8667l.193,1.68188H84.08276l.193-1.68164a9.75833,9.75833,0,0,0-.38477-4.07031A9.22343,9.22343,0,0,0,82.00635,92.626a7.57122,7.57122,0,0,0-11.44544,0,9.22343,9.22343,0,0,0-1.88464,3.34936c-.0835.26508-.1471.53375-.20746.803h.68353Z"/>
        <rect class="cls-2" x="73.32324" y="39.20898" width="5.91992" height="7.71387" rx="0.09961"/>
        <path class="cls-2" d="M73.42285,76.01953h5.71973a.10059.10059,0,0,1,.10059.10059v7.51367a.09961.09961,0,0,1-.09961.09961h-5.7207a.09961.09961,0,0,1-.09961-.09961V76.11914A.09961.09961,0,0,1,73.42285,76.01953Z"/>
        <path class="cls-2" d="M82.00671,55.81689a7.572,7.572,0,0,0-11.44616,0,9.22183,9.22183,0,0,0-1.8844,3.34888c-.0824.26154-.14484.52667-.20465.79224h.67987V62.3584h-.91516c.00781.29162.0216.58374.05523.8772l.19306,1.68261H84.0827l.19306-1.68261a9.757,9.757,0,0,0-.38471-4.06983A9.22083,9.22083,0,0,0,82.00671,55.81689Z"/>
        <path class="cls-3" d="M14.51172,23.14746h9.66113a4.50491,4.50491,0,0,0,4.5-4.5V4.5a4.50491,4.50491,0,0,0-4.5-4.5H14.51172a4.50491,4.50491,0,0,0-4.5,4.5V18.64746A4.50491,4.50491,0,0,0,14.51172,23.14746ZM12.41211,4.5a2.10138,2.10138,0,0,1,2.09961-2.09961h9.66113A2.10138,2.10138,0,0,1,26.27246,4.5V18.64746a2.10138,2.10138,0,0,1-2.09961,2.09961H14.51172a2.10138,2.10138,0,0,1-2.09961-2.09961Z"/>
        <path class="cls-3" d="M73.42285,36.80859a2.50357,2.50357,0,0,0-2.5,2.5v7.51465a2.50357,2.50357,0,0,0,2.5,2.5h5.7207a2.50357,2.50357,0,0,0,2.5-2.5V39.30859a2.50357,2.50357,0,0,0-2.5-2.5Zm5.82031,2.5v7.51465a.1.1,0,0,1-.09961.09961h-5.7207a.1.1,0,0,1-.09961-.09961V39.30859a.1.1,0,0,1,.09961-.09961h5.7207A.1.1,0,0,1,79.24316,39.30859Z"/>
        <path class="cls-3" d="M86.6601,63.509c.754-6.573-3.868-12.70605-10.376-12.70605h-.001c-5.30926,0-9.36047,4.08258-10.2644,9.155H54.27637V23.52441H65.96863a12.24736,12.24736,0,0,0-.06153,3.17579l.437,3.80786h19.879l.437-3.80786c.754-6.573-3.868-12.707-10.376-12.707h-.001A10.40768,10.40768,0,0,0,66.57251,21.124H53.07617a1.19989,1.19989,0,0,0-1.20019,1.2002V59.958H37.32269L38.5351,49.385c1.395-12.158-7.154-23.50293-19.193-23.50293S-1.24591,37.22705.14911,49.385l1.702,14.842c.59594,5.19409,1.572,9.57007,5.638,12.31494V100.7522a3.98941,3.98941,0,0,0,3.93194,3.98486h5.561c.882,0,2.005-.22607,2.345-.7749.31305.50683,1.183.7749,2.431.7749h5.505a3.98947,3.98947,0,0,0,3.932-3.98486V76.542c4.066-2.74487,5.042-7.12085,5.638-12.31494l.21429-1.86865H51.876V97.97852a1.19989,1.19989,0,0,0,1.20019,1.20019H65.83344c.00817.37805.02984.75824.07366,1.14038l.437,3.80811h19.879l.437-3.80811c.754-6.573-3.868-12.707-10.376-12.707h-.001c-5.3128,0-9.36548,4.08887-10.26581,9.16626H54.27637V62.3584H65.83276c.00794.38141.03009.765.07434,1.15063l.437,3.80909h19.879Zm-16.09919-44.502a7.57124,7.57124,0,0,1,11.44544,0A9.22347,9.22347,0,0,1,83.891,22.35645a9.75831,9.75831,0,0,1,.38477,4.07031l-.193,1.68139H68.48444l-.193-1.68164a9.8045,9.8045,0,0,1,.10205-2.9021h.59479V21.52014A9.10285,9.10285,0,0,1,70.56091,19.00708ZM33.08417,70.419a8.51194,8.51194,0,0,1-3.23188,4.13378A2.40013,2.40013,0,0,0,28.7951,76.542V100.7522a1.6,1.6,0,0,1-1.532,1.585h-5.505a3.81558,3.81558,0,0,1-.71759-.05567,2.39093,2.39093,0,0,0-.49341-.37445,1.116,1.116,0,0,0,.02417-.11993V84.832a1.2002,1.2002,0,0,0-2.40039,0v16.95508c0,.0271.01367.0498.01544.07648a2.38731,2.38731,0,0,0-.55786.403,2.88913,2.88913,0,0,1-.64636.07056h-5.561a1.6,1.6,0,0,1-1.53192-1.585V76.542A2.40013,2.40013,0,0,0,8.832,74.55273,8.51168,8.51168,0,0,1,5.6,70.419a26.06756,26.06756,0,0,1-1.36457-6.46558l-1.702-14.8418a20.0731,20.0731,0,0,1,.79229-8.373,19.11094,19.11094,0,0,1,3.90845-6.93921,16.04419,16.04419,0,0,1,24.21582,0,19.11094,19.11094,0,0,1,3.90845,6.93921,20.07251,20.07251,0,0,1,.7923,8.3728l-1.702,14.84228A26.06571,26.06571,0,0,1,33.08417,70.419Zm35.5921,25.55639A9.22343,9.22343,0,0,1,70.56091,92.626a7.57122,7.57122,0,0,1,11.44544,0A9.22343,9.22343,0,0,1,83.891,95.97534a9.75833,9.75833,0,0,1,.38477,4.07031l-.193,1.68164H68.48444l-.193-1.68188c-.03326-.28992-.04651-.57855-.05456-.8667h.91546V96.77832h-.68353C68.52917,96.50909,68.59277,96.24042,68.67627,95.97534ZM84.27576,63.2356l-.19306,1.68261H68.4845l-.19306-1.68261c-.03363-.29346-.04742-.58558-.05523-.8772h.91516V59.958H68.4715c.05981-.26557.12225-.5307.20465-.79224a9.22183,9.22183,0,0,1,1.8844-3.34888,7.572,7.572,0,0,1,11.44616,0,9.22083,9.22083,0,0,1,1.88434,3.34888A9.757,9.757,0,0,1,84.27576,63.2356Z"/>
        <path class="cls-3" d="M73.42285,73.61914a2.50357,2.50357,0,0,0-2.5,2.5v7.51367a2.50378,2.50378,0,0,0,2.5,2.501h5.7207a2.50378,2.50378,0,0,0,2.5-2.501V76.11914a2.50357,2.50357,0,0,0-2.5-2.5Zm5.82031,2.5v7.51367a.10024.10024,0,0,1-.09961.10059h-5.7207a.10024.10024,0,0,1-.09961-.10059V76.11914a.1.1,0,0,1,.09961-.09961h5.7207A.1.1,0,0,1,79.24316,76.11914Z"/>
        <path class="cls-3" d="M73.42285,12.51465h5.7207a2.50378,2.50378,0,0,0,2.5-2.501V2.5a2.50357,2.50357,0,0,0-2.5-2.5h-5.7207a2.50357,2.50357,0,0,0-2.5,2.5v7.51367A2.50378,2.50378,0,0,0,73.42285,12.51465ZM73.32324,2.5a.1.1,0,0,1,.09961-.09961h5.7207A.1.1,0,0,1,79.24316,2.5v7.51367a.10024.10024,0,0,1-.09961.10059h-5.7207a.10024.10024,0,0,1-.09961-.10059Z"/>
      </g>
    </g>
  </g>
</svg>
