<svg xmlns="http://www.w3.org/2000/svg" viewBox="0 0 500 500"><defs><style>.cls-1{isolation:isolate;}.cls-2{fill:#704e40;}.cls-3{fill:#845f53;}.cls-15,.cls-4{fill:#231f20;}.cls-14,.cls-4{opacity:0.2;mix-blend-mode:multiply;}.cls-5{fill:#55a4db;}.cls-6{fill:#e8282b;}.cls-7{fill:#39b54a;}.cls-8{fill:#a62b2b;}.cls-9{fill:#fff;}.cls-10{fill:#1b75bc;}.cls-11{fill:#b2d7e8;}.cls-12{fill:#8dc641;}.cls-13{fill:#e73f34;}</style></defs><title>02</title><g class="cls-1"><g id="Layer_1" data-name="Layer 1"><path class="cls-2" d="M421.54,296.88,401,305.21h0l-2.53,1-9.78,4-2.06.84-13.95,5.64V437.15H346.49V299.37l-2.35-.38-2.14-.35-19.41-3.15-2.2-.36h0l-7.72-1.25-2-.32h0L301.26,292V199.67h13.57v80.81l2.18.35,2.4.39,27.08,4.4V220.54h26.15V302l17.93-7.26h0l3.22-1.3,14-5.67-1.07-60.46c3.71,2.27,8.39,3.62,13.6,1.61Z"/><path class="cls-3" d="M310.36,255.7a47.5,47.5,0,0,1-5.36,9.94,23.91,23.91,0,0,1-3.74,4v-2.72a23.71,23.71,0,0,0,2.14-2.48,45.4,45.4,0,0,0,5.12-9.52Z"/><path class="cls-3" d="M358.42,351.42a11.63,11.63,0,0,1-3.58,3.8,10,10,0,0,1-5.36,1.26h-.61a21,21,0,0,1-2.38-.2v-2a22.12,22.12,0,0,0,2.44.22,8.7,8.7,0,0,0,4.88-1,9.9,9.9,0,0,0,2.94-3.19c4.88-7.44,6.33-15.89,3.87-22.61a37.76,37.76,0,0,0-3.42-6.57c-.85-1.42-1.73-2.89-2.49-4.42A31.66,31.66,0,0,1,352,296.91a61.81,61.81,0,0,1,1.92-7.1c1.24-4,2.41-7.73,2.23-11.66-.29-6.55-4.46-12.38-7.57-16.19l1.55-1.27c3.29,4,7.71,10.23,8,17.37.19,4.28-1.09,8.38-2.32,12.34a62,62,0,0,0-1.87,6.88,29.67,29.67,0,0,0,2.56,18.56c.72,1.45,1.58,2.88,2.42,4.27A41,41,0,0,1,362.5,327C365.17,334.33,363.65,343.45,358.42,351.42Z"/><path class="cls-3" d="M353.93,329a15.18,15.18,0,0,1-1.2,5.8,13,13,0,0,1-3.62,5.34,8.48,8.48,0,0,1-2.62,1.49v-2.16a6.68,6.68,0,0,0,1.34-.87,11.06,11.06,0,0,0,3-4.54,13.22,13.22,0,0,0,1.06-5,9.94,9.94,0,0,0-5.44-8.57,5.93,5.93,0,0,0-.68-.31l.68-1.73.05-.13A12,12,0,0,1,353.93,329Z"/><path class="cls-3" d="M372.64,287.72v2.78l-.05,0a9.52,9.52,0,0,1-5.78,2.32,5.72,5.72,0,0,1-3-.81c-2.59-1.57-3.14-4.78-3.23-6.54a32.09,32.09,0,0,1,.7-7.29A23.46,23.46,0,0,0,360,263l1.89-.64a25.29,25.29,0,0,1,1.41,16.26,30.44,30.44,0,0,0-.68,6.83c.06,1.1.41,3.8,2.28,4.94s4.63.18,6.44-1.33A11.6,11.6,0,0,0,372.64,287.72Z"/><path class="cls-3" d="M368.39,307.19a14.32,14.32,0,0,0,1.91,10.29,10.78,10.78,0,0,0,2.34,2.51v2.41a12.52,12.52,0,0,1-4-3.81,16.31,16.31,0,0,1-2.22-11.74c.63-3.7,2.75-7.78,6.22-9.92v2.44A13.34,13.34,0,0,0,368.39,307.19Z"/><path class="cls-3" d="M372.64,333.22v8.39a67.91,67.91,0,0,1-8.78,19.1,52.82,52.82,0,0,1-17.37,16.47v-2.34a51.07,51.07,0,0,0,15.72-15.24,70,70,0,0,0,10.38-26.39Z"/><path class="cls-3" d="M370.46,385.6a7.08,7.08,0,0,1-6,3.11,3.75,3.75,0,0,1-1.91-.59,3.63,3.63,0,0,1-1.2-4.12,8.72,8.72,0,0,1,2.06-3.1l1.48,1.35a6.78,6.78,0,0,0-1.63,2.36,1.7,1.7,0,0,0,.4,1.85,1.84,1.84,0,0,0,.92.25,5,5,0,0,0,4.23-2.25,8,8,0,0,0,1.23-5.11,4.73,4.73,0,0,0-.5-2c-.8-1.41-2.75-1.85-4.17-1.79a13.82,13.82,0,0,0-5.85,1.81,34.69,34.69,0,0,0-13,11.67V385.6a36.69,36.69,0,0,1,12.11-10,16.61,16.61,0,0,1,6.7-2c2.07-.08,4.73.62,6,2.8a6.63,6.63,0,0,1,.76,2.87A10,10,0,0,1,370.46,385.6Z"/><path class="cls-3" d="M393.8,293.47a22.65,22.65,0,0,0-3.33,6.49,42.92,42.92,0,0,0-1.82,10.23l-2.06.84a46.4,46.4,0,0,1,2-11.7,26.25,26.25,0,0,1,2-4.56h0Z"/><path class="cls-3" d="M414.93,292.21a32.65,32.65,0,0,1-6.34,5.38c-1.25.88-2.53,1.79-3.69,2.77a16.23,16.23,0,0,0-3.93,4.85h0l-2.53,1a15.74,15.74,0,0,1,5.18-7.39c1.22-1,2.54-2,3.82-2.88a31,31,0,0,0,6-5c3.53-4.2,4.79-10.71,3.36-17.41-1.31-6.18-4.49-11.83-7.57-17.3l1.74-1c3.15,5.6,6.41,11.38,7.79,17.87C420.27,280.39,418.86,287.54,414.93,292.21Z"/><path class="cls-3" d="M313.15,257.84a39.6,39.6,0,0,1-4.89,14.34,23.41,23.41,0,0,1-7,7.38v-2.45a21.91,21.91,0,0,0,5.29-6,37.6,37.6,0,0,0,4.63-13.63Z"/><path class="cls-3" d="M319.41,281.22a17.82,17.82,0,0,0-2.75,3.43,31.27,31.27,0,0,0-4,9.23l-2-.32a33.15,33.15,0,0,1,4.3-10,22.68,22.68,0,0,1,2-2.74Z"/><path class="cls-3" d="M344.14,299l-2.14-.35a16.86,16.86,0,0,0-1.23-3.5,8.54,8.54,0,0,0-5-4.63c-2.49-.73-5.28.19-7.16.95a17.15,17.15,0,0,0-4.92,2.82,8.62,8.62,0,0,0-1.14,1.21l-2.2-.36a10.6,10.6,0,0,1,2-2.35,19.22,19.22,0,0,1,5.5-3.17c2.16-.87,5.38-1.92,8.46-1a10.55,10.55,0,0,1,6.2,5.67A20.53,20.53,0,0,1,344.14,299Z"/><ellipse class="cls-4" cx="164.04" cy="463.41" rx="134.19" ry="3.41"/><path class="cls-5" d="M217.16,276.11c-32.75-8.07-51.09-24.4-60.7-36.68C146,226,143.32,214.58,143.21,214.1l4.93-1.11c0,.11,2.59,11,12.48,23.54,9.12,11.57,26.54,27,57.75,34.67Z"/><path class="cls-6" d="M215.31,271.53a10.31,10.31,0,0,1-1.41-4.41,26.79,26.79,0,0,1-.29-6.26c.18-2.1.92-6.38,4-5.08,4.24,1.92,1,11.9,0,15.07l.45.13a30.16,30.16,0,0,1,6.31,1.55,51.07,51.07,0,0,1,8.85,4.71,38.18,38.18,0,0,1,5,3.65,9.43,9.43,0,0,1,2.87,3.64,2.22,2.22,0,0,1-1.11,2.89c-1.13.4-2.46-.13-3.51-.54a31.28,31.28,0,0,1-5.06-2.74,99.31,99.31,0,0,1-9-6.64l-1-.83c4.14,3.57,9.35,15.48,5.49,17.85-5.85,1.48-6.58-14.53-6.72-19-.51,2.71-1.85,12.16-5.71,8-2-2.16-.37-9.54.45-12"/><path class="cls-5" d="M202.36,290.11c-33.47-4.18-53.58-18.26-64.56-29.33-12-12.09-16-23.14-16.13-23.61l4.77-1.68c0,.11,3.86,10.62,15.15,21.92,10.41,10.43,29.51,23.7,61.4,27.68Z"/><path class="cls-7" d="M238.68,273.14s6.21-20.07,22.35-22.77l4.13,6s-15.4.49-24.16,21.27Z"/><path class="cls-8" d="M241.65,274.21c-1.58-5-5.56-12.52-9.57-16.14s-9.49-6-14.81-5.07c-5.6.93-10.21,5.3-12.53,10.48-7.25,16.16,1.6,36.79,17.76,43.82,12.4,5.39,25.63,1.34,34.25-8.79,2.57-3,4.87-7.19,3.79-11.28-1-3.6-4.25-6-7.47-7.89a63.92,63.92,0,0,0-11.42-5.13Z"/><path class="cls-9" d="M211,267.71l-1.8-.92c.12-.24,3-5.81,8.47-6.67,3.64-.58,7.44,1.09,11.31,5l-1.43,1.43c-3.38-3.38-6.59-4.85-9.56-4.39C213.56,262.81,211,267.66,211,267.71Z"/><path class="cls-6" d="M200,285.78a10.15,10.15,0,0,1-1.92-4.22,26.35,26.35,0,0,1-1-6.18c-.07-2.11.17-6.45,3.41-5.52,4.44,1.41,2.36,11.7,1.8,15l.46.08a29.58,29.58,0,0,1,6.45.8,51.5,51.5,0,0,1,9.34,3.64,38.77,38.77,0,0,1,5.4,3.05,9.23,9.23,0,0,1,3.27,3.27,2.21,2.21,0,0,1-.76,3c-1.07.53-2.46.17-3.55-.13a31.52,31.52,0,0,1-5.35-2.12,99.61,99.61,0,0,1-9.74-5.54l-1.1-.71c4.53,3.07,11.09,14.28,7.53,17.09-5.63,2.16-8.23-13.66-8.89-18.08-.19,2.75-.42,12.29-4.74,8.59-2.25-1.91-1.48-9.43-1-11.93"/><polygon class="cls-10" points="145.38 294.22 144.16 459.33 140.68 459.01 139.54 294.22 145.38 294.22"/><path class="cls-10" d="M144.26,459.27s3,4.76,10.23,4.76l.2,1.48s-9.27.74-12.07-3.7l.19,3.39-3.09-.32,1-6.14Z"/><polygon class="cls-10" points="128.81 294.22 127.59 459.33 124.12 459.01 122.97 294.22 128.81 294.22"/><path class="cls-10" d="M127.69,459.27s3,4.76,10.24,4.76l.19,1.48s-9.27.74-12.06-3.7l.18,3.39-3.08-.32,1-6.14Z"/><polygon class="cls-5" points="108.53 299.01 105.22 224.99 158.07 223.4 152.89 299.25 108.53 299.01"/><polygon class="cls-11" points="135.43 279.81 136.92 246.58 137.92 246.63 136.48 278.79 153.8 278.39 153.83 279.39 135.43 279.81"/><path class="cls-12" d="M461.48,466.91a9.5,9.5,0,0,0-13.55-13.22c8.56-8.06,9.9-22.69,3-32.29-7.13-9.94-21.79-13.38-32.8-8a28.3,28.3,0,0,0-14.35,17.43,13.85,13.85,0,0,0-4-6.68c-4.5-4-12.67-3.14-15.85,1.47l-.09-.32a22.73,22.73,0,0,0-4.73-20.44c-9.86-11.17-33.87-10.93-43.83,0a21.64,21.64,0,0,0-5,9.74,22.78,22.78,0,0,0-.57,5.33c0,1.39,1.07,4.21.72,5.4,0,.11-.07.22-.1.32-3.17-4.61-11.34-5.49-15.84-1.47a13.85,13.85,0,0,0-4,6.68A28.35,28.35,0,0,0,296,413.36c-11-5.34-25.67-1.9-32.8,8-6.89,9.6-5.55,24.23,3,32.29a9.5,9.5,0,0,0-13.55,13.22Z"/><circle class="cls-12" cx="355.42" cy="139.83" r="128.99"/><path class="cls-4" d="M436.06,39.15A129,129,0,0,1,244.47,205.64,129,129,0,1,0,436.06,39.15Z"/><polygon class="cls-9" points="108.63 234.36 52.86 208.84 41.88 139.13 38.74 116.95 17.19 75.08 29.97 65.22 67.88 73.57 109.22 93.48 162.02 53.69 188.77 37.8 186 90.62 210.81 135.29 202.26 180.28 160.54 226.43 108.63 234.36"/><path class="cls-13" d="M244.91,154.91s-4.31-21-27.36-33.06c0,0,9.12-1,11.93.62a48.7,48.7,0,0,0-24.92-14.17l-7-27.61,12.11,2.48s-1.17-4.49-13.14-9.56c6.5-16.1-.51-43.82-.51-43.82-37.7,0-49.16,20.78-51.81,27.21a172.9,172.9,0,0,0-33.43,7.83s7.35-8.1,16.08-10.24c0,0-23-2.16-41.18,17.8,0,0-39.1-21.28-72.86-7.17,0,0-1.33,17.87,26.36,58.7,0,0-22.44,18.61-26.31,38.37,0,0,11.43-18.63,19-23.29,0,0-28,37.57-11.81,62.45,0,0-1.52-16.46,3-21.73,0,0-.7,15.51,4.2,28.53-.27-.14-.54-.29-.82-.42a15,15,0,0,1,2.08,2.4c.05.08.08.15.14.23a40.72,40.72,0,0,1,6.63,1.74c-1.38-4.82-2.28-10.06-1.08-13.33a142,142,0,0,0,6.21,15.66c.84.45,1.69.87,2.51,1.39,5,3.15,9.72,6.49,14.37,10.06,2.65.47,5.3.94,8,1.43,12.61,4.28,20.87,8,34.82,10.26,12.75,2.11,25.29,4.52,37.89,7.34,6.07,1.36,10.54-.21,17.34-.85,9.28-.87,14.88-4.8.05,2.18a56,56,0,0,1,12.2-4.11l-.16-.1h0c.83-.3,1.66-.6,2.5-.93a30.74,30.74,0,0,0,6.29-3.35c5.31-3.52,13-10.29,19.33-22.4,0,0-2.08,13.59-4,15.76,0,0,16.82-12.65,19.86-28.06,0,0-1.35,13.76-2.44,16.5,0,0,18.2-17.84,22.55-40.57,0,0,.49,8-.33,9.55,0,0,20.24-11.25,4.85-39A13.31,13.31,0,0,1,244.91,154.91ZM46.47,107.14c-12.93-9.53-20.4-33.22-20.4-33.22,17-7.36,42.49,8,42.49,8C55.86,91.1,46.47,107.14,46.47,107.14Zm97.47,63.53c-15.91,3-31.77-10.1-35.43-29.33s3.94-49.49,19.84-52.52,34.1,22.33,37.76,41.56S159.84,167.64,143.94,170.67Zm55.33-18.85c-1.52,8.09-7.85,17.42-7.85,17.42s-29.95-7.7-17.33-13.52S200.78,143.73,199.27,151.82ZM184.55,77.09s-19.89-13.94-27.49-16.33c-3.28-1,8.55-17.59,29.62-20.09C186.68,40.67,193.5,66.59,184.55,77.09Z"/><path class="cls-13" d="M22.11,180.38s.45,40.81,20.74,58c0,0-6.77-16.83-7.27-24.65,0,0,8.87,31.93,56.33,39.47A56.53,56.53,0,0,1,69.82,236.1s61.13,30.79,105.25,2.43L88.21,217.09S48.6,180,47.66,179.93,22.11,180.38,22.11,180.38Z"/><path class="cls-13" d="M120.49,151.18s9.26-37.87,41.74-11.64C162.23,139.54,133.54,124.24,120.49,151.18Z"/><path class="cls-9" d="M176.16,135s6.62-26.4,26.74-8.87C202.9,126.12,185,116.08,176.16,135Z"/><path class="cls-9" d="M104.65,207.75c18.89,9.32,42.26,8.7,69.54-1.85a1.28,1.28,0,1,0-.92-2.38c-27.86,10.78-51.45,11-70.1.57-29-16.18-36.16-53-36.23-53.33a1.27,1.27,0,0,0-2.5.46c.07.38,7.41,38.31,37.48,55.09Q103.27,207.06,104.65,207.75Z"/><path class="cls-9" d="M53.06,151.29s6.91-27.43,28.16-1.9C81.22,149.39,63.51,132.8,53.06,151.29Z"/><path class="cls-7" d="M316.52,158.73s-8-19.27,2.66-31.56l7,2s-11.46,10.14-5,31.57Z"/><path class="cls-8" d="M319.47,157.67c-4.4-2.85-12.19-6-17.54-6.27s-11,1.46-14.54,5.51c-3.69,4.26-4.44,10.53-2.93,16,4.7,16.95,24.54,27.1,41.34,22.23,12.9-3.73,20.44-15.21,20.61-28.41,0-4-.83-8.59-4.26-11-3-2.14-7.06-1.92-10.7-1.29a62.94,62.94,0,0,0-12,3.31Z"/><path class="cls-9" d="M290,172.57c-.06-.25-1.37-6.35,2.24-10.46,2.42-2.74,6.39-3.88,11.79-3.38l-.19,2c-4.72-.44-8.11.47-10.08,2.7-2.94,3.33-1.81,8.65-1.8,8.71Z"/><path class="cls-7" d="M304.49,67.72S298.76,53.87,306.4,45l5,1.43s-8.24,7.28-3.58,22.68Z"/><path class="cls-8" d="M306.62,67c-3.17-2-8.76-4.34-12.61-4.51s-7.92,1.06-10.45,4c-2.65,3.06-3.18,7.56-2.1,11.46,3.37,12.17,17.63,19.47,29.71,16,9.26-2.68,14.68-10.93,14.8-20.42,0-2.83-.6-6.16-3.06-7.92-2.16-1.54-5.07-1.38-7.69-.93A46,46,0,0,0,306.61,67Z"/><path class="cls-9" d="M285.41,77.66c-.05-.18-1-4.56,1.61-7.52,1.74-2,4.59-2.79,8.47-2.43l-.14,1.44c-3.39-.31-5.83.34-7.24,1.94-2.11,2.39-1.3,6.22-1.29,6.26Z"/><path class="cls-7" d="M385.18,77.38s12.57-14.88,6.6-28.84L385,48.33s7.32,12.28-4.54,29.51Z"/><path class="cls-8" d="M386,76.09c-4.11-2.66-11.39-5.65-16.39-5.87s-10.3,1.37-13.58,5.16c-3.45,4-4.15,9.83-2.74,14.9,4.39,15.83,22.93,25.32,38.63,20.77,12-3.49,19.09-14.22,19.25-26.55,0-3.69-.78-8-4-10.3-2.81-2-6.6-1.8-10-1.21A58.57,58.57,0,0,0,386,76.09Z"/><path class="cls-9" d="M358.39,90c-.05-.24-1.27-5.94,2.1-9.78,2.26-2.56,6-3.62,11-3.16l-.17,1.87c-4.41-.41-7.58.44-9.42,2.53-2.75,3.11-1.7,8.08-1.68,8.13Z"/><path class="cls-7" d="M422.54,183.47s-8.63-14.35-1.65-25.37l5.77.75s-7.89,9.41-.19,25.65Z"/><path class="cls-8" d="M423.12,182.35c-3.54-2.29-9.79-4.86-14.09-5s-8.85,1.18-11.67,4.43c-3,3.42-3.56,8.45-2.35,12.8,3.77,13.6,19.7,21.76,33.19,17.85,10.35-3,16.4-12.22,16.54-22.81,0-3.17-.67-6.89-3.42-8.85-2.41-1.72-5.67-1.55-8.59-1a50.71,50.71,0,0,0-9.61,2.66Z"/><path class="cls-9" d="M399.42,194.31c0-.21-1.1-5.1,1.81-8.4,1.94-2.2,5.12-3.12,9.46-2.71l-.15,1.6c-3.79-.35-6.52.38-8.1,2.17-2.36,2.68-1.45,6.95-1.44,7Z"/><polygon class="cls-3" points="372.64 393.15 372.64 395.59 370.39 397.16 369.24 395.52 372.64 393.15"/><path class="cls-12" d="M290.47,31.79a15,15,0,0,0,.07-11.63,9.68,9.68,0,0,0-2.93-4.05,7.46,7.46,0,0,0-10.12,1.39A7.47,7.47,0,0,0,279,27.61a27.06,27.06,0,0,0-16-1.87c-4.73.9-9.9,4.16-9.73,9,.16,4.43,6,7.46,9.74,5-4.83,2.23-9.49,5.15-12.72,9.37s-4.86,9.93-3.24,15,7,9,12.22,8"/><path class="cls-12" d="M401.32,250.69c-1.55,2.25-3.45,4.26-5,6.54a12.33,12.33,0,0,0-2.41,7.69c.24,2.72,2.17,5.42,4.87,5.86s5.64-2.2,5-4.85a7.61,7.61,0,1,0,14.47-4.43c-1.08,3.29,2.93,6.54,6.31,5.78s5.6-4.09,6.47-7.44a18.17,18.17,0,0,0-9.44-20.31"/><g class="cls-14"><path class="cls-15" d="M401.32,250.69c-1.55,2.25-3.45,4.26-5,6.54a12.33,12.33,0,0,0-2.41,7.69c.24,2.72,2.17,5.42,4.87,5.86s5.64-2.2,5-4.85a7.61,7.61,0,1,0,14.47-4.43c-1.08,3.29,2.93,6.54,6.31,5.78s5.6-4.09,6.47-7.44a18.17,18.17,0,0,0-9.44-20.31"/></g><path class="cls-12" d="M297.52,247.17a9.33,9.33,0,0,0-8.51,8,6.93,6.93,0,0,0,2.26,6.16,4.69,4.69,0,0,0,6.2-.26,9.13,9.13,0,0,0,9.24,11.21,4.81,4.81,0,0,0,3.05-1,4.89,4.89,0,0,0,1.36-3.86c.68,3.13,4.18,5.19,7.35,4.7a8.76,8.76,0,0,0,6.7-6.19,13.26,13.26,0,0,0-1-9.35,27.88,27.88,0,0,0-5.73-7.67"/><g class="cls-14"><path class="cls-15" d="M297.52,247.17a9.33,9.33,0,0,0-8.51,8,6.93,6.93,0,0,0,2.26,6.16,4.69,4.69,0,0,0,6.2-.26,9.13,9.13,0,0,0,9.24,11.21,4.81,4.81,0,0,0,3.05-1,4.89,4.89,0,0,0,1.36-3.86c.68,3.13,4.18,5.19,7.35,4.7a8.76,8.76,0,0,0,6.7-6.19,13.26,13.26,0,0,0-1-9.35,27.88,27.88,0,0,0-5.73-7.67"/></g><path class="cls-4" d="M350.58,134s11.72,29.42,22.56,0C373.14,134,362.74,153.37,350.58,134Z"/><path class="cls-4" d="M365.21,119.52s21.33,53.53,41.06,0C406.27,119.52,387.35,154.75,365.21,119.52Z"/><path class="cls-4" d="M401,131.19s11.73,29.42,22.56,0C423.58,131.19,413.19,150.55,401,131.19Z"/><path class="cls-4" d="M237.43,117s11.72,29.42,22.56,0C260,117,249.59,136.35,237.43,117Z"/><path class="cls-4" d="M252.06,102.5s21.33,53.53,41.05,0C293.11,102.5,274.2,137.73,252.06,102.5Z"/><path class="cls-4" d="M287.87,114.18s11.72,29.41,22.56,0C310.43,114.18,300,133.54,287.87,114.18Z"/><path class="cls-4" d="M299.59,214.65s7.58,19,14.6,0C314.19,214.65,307.46,227.18,299.59,214.65Z"/><path class="cls-4" d="M309.06,205.27s13.8,34.64,26.57,0C335.63,205.27,323.39,228.07,309.06,205.27Z"/><path class="cls-4" d="M332.24,212.82s7.58,19,14.6,0C346.84,212.82,340.11,225.35,332.24,212.82Z"/></g></g></svg>