<svg id="Layer_1" data-name="Layer 1" xmlns="http://www.w3.org/2000/svg" viewBox="0 0 370 350"><defs><style>.cls-3{fill:#bcd6d2}.cls-4{fill:#414042}.cls-5{fill:#e63f31}.cls-6{fill:#5b5244}.cls-8{fill:#f4af6b}.cls-9{fill:#ab5531}.cls-10{fill:#fff}.cls-11{fill:#e73e32}</style></defs><circle cx="184.866" cy="173.928" r="166.461" opacity=".2" fill="#feb0c0"/><path d="M318.89 174.996a133.335 133.335 0 01-13.49 58.63q-1.545 3.18-3.26 6.27a1.82 1.82 0 00-.15.27c-1.07 1.9-2.17 3.77-3.32 5.62a134.212 134.212 0 01-75.63 57.62c-.39.11-.81.24-1.27.37a131.205 131.205 0 01-16.19 3.53c-.53.09-1.07.16-1.6.24-3.15.45-6.33.78-9.54 1.01q-4.68.33-9.44.33a133.89 133.89 0 01-20.75-1.6q-3.615-.555-7.15-1.31-3.39-.72-6.72-1.61c-.38-.1-.77-.21-1.15-.32-.71-.2-1.43-.4-2.14-.61-.71-.2-1.42-.42-2.12-.64a81 81 0 01-1.66-.53c-.42-.13-.83-.27-1.25-.41l-1.29-.45c-.57-.2-1.13-.4-1.69-.6-.73-.27-1.45-.54-2.17-.82-.74-.28-1.46-.57-2.19-.86q-1.08-.435-2.16-.9a134.276 134.276 0 01-74.72-81.23q-.795-2.4-1.49-4.85a.326.326 0 01-.04-.14q-.96-3.27-1.72-6.6a134.098 134.098 0 0169.26-149.54q4.35-2.235 8.87-4.16c.18-.07.36-.15.55-.23a132.805 132.805 0 0127.32-8.14c.39-.07.79-.14 1.19-.21q5.595-.99 11.34-1.49 5.88-.51 11.88-.52a133.241 133.241 0 0166.45 17.63q2.955 1.695 5.8 3.52 4.605 2.955 8.95 6.28a133.828 133.828 0 0115.58 13.94c1.01 1.05 2 2.13 2.98 3.22q2.565 2.865 4.97 5.88a133.298 133.298 0 0129.16 83.41z" fill="#feb0c0"/><path class="cls-3" transform="rotate(-4.644 242.258 198.78)" d="M240.65 187.535h3.215v22.488h-3.215z"/><path class="cls-3" d="M234.106 174.086l-1.713 23.474 9.231-6.58 10.172 5.003-2.725-12.546-8.3-2.96 7.903 1.117-4.788-22.038-5.333-6.378 4.867 4.225-6.063-27.924-3.085 42.29 5.568-2.755-5.734 5.072z"/><path class="cls-3" transform="rotate(-4.644 264.879 182.337)" d="M264.075 176.715h1.608v11.244h-1.608z"/><path class="cls-3" d="M260.8 169.988l-.853 11.739 4.615-3.29 5.086 2.502-1.365-6.273-4.148-1.48 3.952.559-2.397-11.019-2.664-3.189 2.431 2.115-3.029-13.965-1.542 21.143 2.784-1.373-2.87 2.531z"/><path class="cls-4" d="M183.04 211.772c17.087 12.142 35.675 18.891 55.366 20.207.664.048 1.333.086 2.001.114 1.756.09 3.528.127 5.3.123 2.512-.004 4.9-.087 7.145-.27q1.47-.084 2.872-.232a80.67 80.67 0 002.913-.324l.798-.109c.845-.122 1.651-.241 2.423-.367l.805-.138a71.049 71.049 0 0011.303-2.78l2.08 5.516 2.091 5.515a84.192 84.192 0 01-17.126 3.942c-.274.036-.552.083-.832.106-.812.11-1.645.207-2.497.305l-.815.066-2.988.243q-1.405.104-2.902.168c-1.514.074-3.07.123-4.677.132-2.002-.003-4.146-.023-6.385-.133-.674-.037-1.357-.074-2.056-.124A118.738 118.738 0 01183 225.874q-3.386-2.096-6.779-4.502z"/><path class="cls-5" d="M291.37 231.12c-2.955-3.84-4.668-24.087 2.822-21.066 5.684 2.506 1.512 15.866.312 20.112l.602.17c8.516 2.389 15.06 4.539 22.288 9.782 1.843 1.332 13.64 9.828 7.214 11.895-2.278.724-5.12-.828-7.07-1.802a64.138 64.138 0 01-7.247-4.357c-3.676-2.485-7.223-5.185-10.668-7.941a24.943 24.943 0 018.733 15.347c.304 2.065 1.067 7.09-1.239 8.312s-4.724-2.415-5.565-4.033a27.033 27.033 0 01-2.164-7.204 90.798 90.798 0 01-1.424-13.94c-.629 3.623-2.24 16.259-7.46 10.736-2.71-2.855-.979-8.524.065-11.762z"/><path class="cls-4" d="M264.404 250.831l1.917-33.276 18.501.353.307 37.691-20.725-4.768z"/><path class="cls-6" transform="rotate(-80.434 275.042 247.067)" d="M274.098 240.982h1.889v12.169h-1.889z"/><path class="cls-6" transform="rotate(-82.364 274.964 241.107)" d="M274.02 235.207h1.889v11.801h-1.889z"/><path class="cls-6" transform="rotate(-83.672 274.384 234.292)" d="M273.442 228.702h1.885v11.181h-1.885z"/><path class="cls-6" transform="rotate(-85.024 275.24 229.303)" d="M274.296 224.078h1.889v10.45h-1.889z"/><path class="cls-6" transform="rotate(-88.194 275.074 223.834)" d="M274.13 218.689h1.889v10.29h-1.889z"/><path class="cls-4" d="M177.408 217.496c-19.883 6.614-39.638 7.675-58.854 3.178a105.956 105.956 0 01-7.054-1.905 119.129 119.129 0 01-6.759-2.342c-.917-.348-1.737-.694-2.672-1.075s-1.836-.774-2.688-1.156c-.233-.122-.5-.237-.737-.339q-1.156-.538-2.21-1.06l-.728-.363a71.078 71.078 0 01-10.002-5.955l-3.6 4.665-3.61 4.666a85.754 85.754 0 0015.23 8.766l.766.341c.742.343 1.512.674 2.303 1.018.251.1.498.212.754.313.896.379 1.83.75 2.783 1.12q1.33.518 2.74 1.016c1.44.51 2.905 1.012 4.435 1.49q2.887.908 6.15 1.736c.641.166 1.305.326 1.984.485a118.814 118.814 0 0057.683-1.082 128.843 128.843 0 007.798-2.329z"/><path class="cls-5" d="M68.214 207.137c3.95-2.808 11.493-21.674 3.446-20.972-6.158.743-6.075 14.739-6.169 19.148l-.623-.013c-8.844-.2-15.74-.047-24.172 2.853-2.15.739-15.913 5.423-10.372 9.272 1.966 1.361 5.138.7 7.286.341a64.89 64.89 0 008.204-2.051c4.247-1.307 8.41-2.86 12.533-4.511a24.948 24.948 0 00-12.832 12.134c-.89 1.89-3.09 6.465-1.239 8.311s5.22-.934 6.5-2.233a27.416 27.416 0 004.174-6.257 87.947 87.947 0 005.422-12.917c-.452 3.642-2.595 16.2 4.009 12.442 3.428-1.94 3.421-7.876 3.369-11.273z"/><path class="cls-4" d="M88.188 231.133l7.878-32.385-17.804-5.054-11.289 35.956 21.215 1.483z"/><path class="cls-6" transform="rotate(-82.594 79.108 224.415)" d="M78.163 218.331h1.889V230.5h-1.889z"/><path class="cls-6" transform="rotate(-80.674 80.921 218.78)" d="M79.977 212.88h1.889v11.801h-1.889z"/><path class="cls-6" transform="rotate(-79.194 82.782 212.963)" d="M81.837 207.363h1.889v11.201h-1.889z"/><path class="cls-6" transform="rotate(-78.014 84.119 207.385)" d="M83.175 202.16h1.889v10.45h-1.889z"/><path class="cls-6" transform="rotate(-74.844 85.861 202.224)" d="M84.917 197.081h1.889v10.285h-1.889z"/><path d="M206.95 215.286l-.23 7.3-.07 2.16-.1 2.96-.11 3.54-.19 5.88-.84 26.17-.18 5.59-.19 5.86-1.06 32.8a135.159 135.159 0 01-46.88-1.57q-3.39-.72-6.72-1.61l1.75-28.13.34-5.41.56-9 1.7-27.37.35-5.58.01-.18.19-3.07 21.01-4.2 2.27-.46 14.35-2.87z" fill="#e2e2e2"/><path class="cls-8" d="M192.8 239.386a37.5 37.5 0 01-4.12 4.99 18.157 18.157 0 01-4.09 3.19 7.801 7.801 0 01-8.16.11c-4.77-2.79-7.2-9.98-7.2-9.98l3.15-1.31 3.03-1.27 3.19-1.33 2.52-1.05z"/><path class="cls-9" d="M188.68 244.376a18.157 18.157 0 01-4.09 3.19 21.259 21.259 0 01-9.18-12.45l3.19-1.33c.69 2.05 3 6.72 10.08 10.59zM176.43 247.676c-4.77-2.79-7.2-9.98-7.2-9.98l3.15-1.31a54.543 54.543 0 004.05 11.29z"/><path class="cls-10" d="M181.12 232.739l-20.279 14.937-5.564-22.052 51.273 2.079-8.004 23.411-17.426-18.375zM150.088 204.926l-37.353-46.307-5.738-43.42 26.09-41.317.436-54.624 24.448 20.649 48.273 40.839 40.54-16.786 36.646-5.935 11.674 10.099-22.829 38.817-4.187 21.008-14.234 65.977-54.627 21.365-49.139-10.365z"/><path class="cls-11" d="M295.62 155.136c-2.62-19.07-23.05-38.05-23.05-38.05a230.695 230.695 0 0017.16-25.5c11.33-19.85 11.16-29.13 11.16-29.13-16.79-8.15-35.57-6.77-49.44-3.71a106.352 106.352 0 00-20.51 6.63 51.453 51.453 0 00-34.09-18.97 32.098 32.098 0 00-4.27-.25c8.09 2.48 14.59 10.4 14.79 10.65a164.766 164.766 0 00-31.48-9.27 36.94 36.94 0 00-2.77-5.9 35.776 35.776 0 00-3.87-5.38c-5.99-7.04-16.74-14.72-35.7-16.98h-.03c-1.8-.21-3.68-.38-5.63-.49 0 0-6.72 21.37-4.04 37.08a30.312 30.312 0 001.17 4.71c-11.7 4.19-13.06 8.42-13.06 8.42l11.7-1.72-8.18 25.99a46.783 46.783 0 00-24.55 12.2c2.77-1.4 11.42.04 11.42.04-22.31 10.08-27.73 29.47-27.89 30.08a12.693 12.693 0 018.85-4.52c-16.02 25.38 2.15 37.24 2.53 37.48-.66-1.55.23-9.13.23-9.13 2.93 21.93 19.35 39.95 19.35 39.95-.89-2.68-1.45-15.88-1.45-15.88 2.04 14.64 16.98 27.45 17.45 27.85-1.74-2.21-3-15.26-3-15.26 5.35 11.88 12.37 18.76 17.26 22.41.32.25.64.49.97.71a29.232 29.232 0 004.84 2.82c.79.36 1.57.7 2.34 1.03l-.14.08c.29.08.58.16.87.25a52.959 52.959 0 0110.01 4.04c-5.53-2.99-7.81-4-7.96-4.09a44.162 44.162 0 008.67 2.3c6.46.97 10.64 2.71 16.5 1.75 1.79-.3 3.58-.58 5.37-.86 1.03-.17 2.06-.32 3.09-.48.81-.12 1.63-.25 2.44-.36 6.64-.98 13.28-1.85 19.96-2.63 1.36-.15 2.72-.31 4.08-.46l1.65-.18c13.43-1.45 21.52-4.5 33.79-7.93q3.84-.48 7.67-.93c4.63-3.16 9.31-6.1 14.27-8.84.8-.43 1.64-.79 2.46-1.17a136.315 136.315 0 006.78-14.62c.97 3.18-.17 8.14-1.75 12.67a40.07 40.07 0 016.43-1.31c.05-.06.09-.13.14-.2a14.636 14.636 0 012.12-2.19l-.82.36c4.74-10.72 5.44-23.52 5.53-26.41.02-.39.02-.6.02-.6a5.886 5.886 0 01.42.64 4.456 4.456 0 01.34.65c2.93 6.14.92 19.61.92 19.61 16.77-22.88-7.92-60.26-7.92-60.26 6.94 4.85 16.85 23.26 16.85 23.26zm-106.31-76.37c15.02 3.77 20.64 33.06 16.11 51.22-4.53 18.15-20.92 26.4-35.95 22.65-15.02-3.75-22.98-18.06-18.45-36.22 4.53-18.16 23.26-41.42 38.29-37.65zm57.44-3.41a81.34 81.34 0 0119.45-6.81c7.18-1.46 15.12-1.71 21.55 1.5a100.112 100.112 0 01-5.97 12.44c-3.69 6.54-8.95 14.04-15.28 18.19 0 0-8.09-15.83-19.75-25.32zm-113.41-32.86a84.895 84.895 0 012.86-12.84 41.863 41.863 0 0124.39 13.68c3.1 3.7 4.14 6.75 2.81 7.09-7.38 1.88-27.12 14.12-27.12 14.12a17.729 17.729 0 01-3.06-7.6 33.153 33.153 0 01-.5-5.24 56.936 56.936 0 01.62-9.21z"/><path class="cls-11" d="M261.451 170.105c-.9.044-40.724 33.295-40.724 33.295l-84.102 15.81c40.617 29.442 100.645 3.339 100.645 3.339a54.07 54.07 0 01-22.011 15.148c45.718-4.651 55.912-34.664 55.912-34.664-.906 7.449-8.27 23.147-8.27 23.147 20.292-15.335 22.92-54.275 22.92-54.275s-23.47-1.844-24.37-1.8z"/><path class="cls-10" d="M208.107 192.192c29.539-14.361 38.568-50.09 38.656-50.447q.014-.046.023-.094a1.022 1.022 0 10-2.006-.391c-.083.347-8.882 35.148-37.55 49.098-18.429 8.965-41.002 7.514-67.085-4.305a1.017 1.017 0 00-.821 1.854c24.413 11.062 45.891 13.204 63.926 6.394q2.49-.94 4.857-2.11z"/><path class="cls-10" d="M257.774 149.965c-6.763-26.736-22.588-12.818-22.588-12.818 18.343-20.302 22.644 8.363 22.644 8.363zM118.204 135.102c1.012 7.788 6.55 17.055 6.55 17.055s29.018-5.758 17.276-11.97c-11.739-6.232-24.837-12.873-23.826-5.085z"/><path class="cls-9" d="M192.8 275.426l-3.75 3.6-3.24 3.12-7.46 7.17-9.92-10.77-3.77-4.09-.69-.75 3.68-7.68 1.83-3.84 2.41-5.03 1.85-3.85 2.69-5.63 8.16-.11 2.48 8.4 1.37 4.67 1.28 4.34 1.27 4.31 1.81 6.14z"/><path class="cls-8" d="M188.44 260.636a66.559 66.559 0 00-16.55-3.48l1.85-3.85a71.089 71.089 0 0113.33 2.66zM189.05 279.026l-3.24 3.12a61.598 61.598 0 00-17.38-3.6l-3.77-4.09a64.456 64.456 0 0124.39 4.57zM190.99 269.286c-5.76-1.21-15.55-2.45-23.34-3.26l1.83-3.84c5.62.6 13.98 1.6 20.24 2.79z"/><path fill="#fbf9fc" d="M216.229 102.425l-.877-1.34 13.377-8.747-14.81-5.836 12.872-8.823.907 1.322-10.384 7.117 14.884 5.865-15.969 10.442z"/><path d="M206.95 249.086l-.19 5.59-.2 5.86-.98 46.77c-.53.09-1.07.16-1.6.24a135.159 135.159 0 01-46.88-1.57q-3.39-.72-6.72-1.61c-.38-.1-.77-.21-1.15-.32l1.58-42.03.36-5.41.59-9 .01.01 3.19 3.29 8.34 8.59.72.75 3.98 4.09 10.44 10.77 7.86-7.17 3.42-3.12 3.95-3.6z" fill="#58595b"/><path class="cls-9" d="M208.544 255.599l-.202 5.86-29.248 27.75-26.974-26.27.361-5.41 26.656 25.96 29.407-27.89z"/><path class="cls-4" d="M164.25 307.286q-3.615-.555-7.15-1.31-3.39-.72-6.72-1.61c-.38-.1-.77-.21-1.15-.32-.71-.2-1.43-.4-2.14-.61-.71-.2-1.42-.42-2.12-.64a81 81 0 01-1.66-.53c-.42-.13-.83-.27-1.25-.41l-1.29-.45c-.57-.2-1.13-.4-1.69-.6-.73-.27-1.45-.54-2.17-.82-.74-.28-1.46-.57-2.19-.86q-1.08-.435-2.16-.9l20.66-63.62 1.86-5.73.05-.16zM223.04 303.406c-.39.11-.81.24-1.27.37a131.205 131.205 0 01-16.19 3.53c-.53.09-1.07.16-1.6.24-3.15.45-6.33.78-9.54 1.01l12-77.31 1.49 6.46z"/><path class="cls-11" d="M168.323 141.438a5.229 5.229 0 01-1.98-.379c-6.634-2.686-5.337-18.687-5.168-20.503a1 1 0 011.992.186c-.422 4.523-.537 16.657 3.926 18.464 2.185.88 6.631-.362 15.429-11.323a1 1 0 011.56 1.252c-6.62 8.247-11.805 12.303-15.76 12.303z"/><path class="cls-10" d="M130.86 125.32a4.098 4.098 0 01-1.381-.234c-6.09-2.163-4.95-18.674-4.799-20.55a.915.915 0 01.997-.848.926.926 0 01.849.996c-.523 6.538-.014 17.384 3.572 18.657 1.507.534 5.173-.238 12.846-11.396a.926.926 0 111.525 1.05c-5.685 8.267-10.16 12.325-13.61 12.325z"/><path class="cls-4" d="M49.285 206.017a18.011 18.011 0 1118.01-18.011 18.032 18.032 0 01-18.01 18.011zm0-33.022a15.011 15.011 0 1015.01 15.011 15.028 15.028 0 00-15.01-15.011zM31.466 167.976a18.011 18.011 0 1118.01-18.011 18.032 18.032 0 01-18.01 18.01zm0-33.022a15.011 15.011 0 1015.01 15.01 15.028 15.028 0 00-15.01-15.01z"/><path class="cls-4" transform="rotate(-26.415 40.902 168.74)" d="M39.402 164.237h3.001v9.007h-3.001z"/><path class="cls-4" d="M24.026 135.885a1.501 1.501 0 01-1.38-.91l-2.6-6.068a1.5 1.5 0 112.757-1.181l2.6 6.068a1.5 1.5 0 01-1.377 2.091z"/></svg>